<svg viewBox="0 0 330 200" xmlns="http://www.w3.org/2000/svg"><g><g><g><g><g><line x1="40" y1="177" x2="35" y2="177" style="visibility: inherit;" fill="rgb(0, 0, 0)" stroke="rgb(204, 204, 204)" stroke-width="1px"></line><line x1="40" y1="151.71428571428572" x2="35" y2="151.71428571428572" style="visibility: inherit;" fill="rgb(0, 0, 0)" stroke="rgb(204, 204, 204)" stroke-width="1px"></line><line x1="40" y1="126.42857142857143" x2="35" y2="126.42857142857143" style="visibility: inherit;" fill="rgb(0, 0, 0)" stroke="rgb(204, 204, 204)" stroke-width="1px"></line><line x1="40" y1="101.14285714285714" x2="35" y2="101.14285714285714" style="visibility: inherit;" fill="rgb(0, 0, 0)" stroke="rgb(204, 204, 204)" stroke-width="1px"></line><line x1="40" y1="75.85714285714286" x2="35" y2="75.85714285714286" style="visibility: inherit;" fill="rgb(0, 0, 0)" stroke="rgb(204, 204, 204)" stroke-width="1px"></line><line x1="40" y1="50.57142857142857" x2="35" y2="50.57142857142857" style="visibility: inherit;" fill="rgb(0, 0, 0)" stroke="rgb(204, 204, 204)" stroke-width="1px"></line><line x1="40" y1="25.285714285714295" x2="35" y2="25.285714285714295" style="visibility: inherit;" fill="rgb(0, 0, 0)" stroke="rgb(204, 204, 204)" stroke-width="1px"></line><line x1="40" y1="0" x2="35" y2="0" style="visibility: inherit;" fill="rgb(0, 0, 0)" stroke="rgb(204, 204, 204)" stroke-width="1px"></line></g><g transform="translate(30, 0)"><text x="0" y="177" dx="0em" dy="0.3em" style="text-anchor: end; visibility: hidden; font-family: Roboto, sans-serif; font-size: 12px; font-weight: 200;" fill="rgb(33, 33, 33)" stroke="none" stroke-width="1px">0</text><text x="0" y="151.71428571428572" dx="0em" dy="0.3em" style="text-anchor: end; visibility: inherit; font-family: Roboto, sans-serif; font-size: 12px; font-weight: 200;" fill="rgb(33, 33, 33)" stroke="none" stroke-width="1px">50</text><text x="0" y="126.42857142857143" dx="0em" dy="0.3em" style="text-anchor: end; visibility: inherit; font-family: Roboto, sans-serif; font-size: 12px; font-weight: 200;" fill="rgb(33, 33, 33)" stroke="none" stroke-width="1px">100</text><text x="0" y="101.14285714285714" dx="0em" dy="0.3em" style="text-anchor: end; visibility: inherit; font-family: Roboto, sans-serif; font-size: 12px; font-weight: 200;" fill="rgb(33, 33, 33)" stroke="none" stroke-width="1px">150</text><text x="0" y="75.85714285714286" dx="0em" dy="0.3em" style="text-anchor: end; visibility: inherit; font-family: Roboto, sans-serif; font-size: 12px; font-weight: 200;" fill="rgb(33, 33, 33)" stroke="none" stroke-width="1px">200</text><text x="0" y="50.57142857142857" dx="0em" dy="0.3em" style="text-anchor: end; visibility: inherit; font-family: Roboto, sans-serif; font-size: 12px; font-weight: 200;" fill="rgb(33, 33, 33)" stroke="none" stroke-width="1px">250</text><text x="0" y="25.285714285714295" dx="0em" dy="0.3em" style="text-anchor: end; visibility: inherit; font-family: Roboto, sans-serif; font-size: 12px; font-weight: 200;" fill="rgb(33, 33, 33)" stroke="none" stroke-width="1px">300</text><text x="0" y="0" dx="0em" dy="0.3em" style="text-anchor: end; visibility: hidden; font-family: Roboto, sans-serif; font-size: 12px; font-weight: 200;" fill="rgb(33, 33, 33)" stroke="none" stroke-width="1px">350</text></g><line x1="40" y1="0" x2="40" y2="177" fill="rgb(0, 0, 0)" stroke="rgb(204, 204, 204)" stroke-width="1px"></line></g></g><g transform="translate(40, 0)" clip-path="url(#clip_0)"><clipPath id="clip_0"><rect width="290" height="177"></rect></clipPath><g><g><g><line x1="0" y1="0" x2="0" y2="177" fill="rgb(0, 0, 0)" stroke="rgb(66, 66, 66)" stroke-width="1px" opacity="0.25"></line><line x1="32.22222222222222" y1="0" x2="32.22222222222222" y2="177" fill="rgb(0, 0, 0)" stroke="rgb(66, 66, 66)" stroke-width="1px" opacity="0.25"></line><line x1="64.44444444444444" y1="0" x2="64.44444444444444" y2="177" fill="rgb(0, 0, 0)" stroke="rgb(66, 66, 66)" stroke-width="1px" opacity="0.25"></line><line x1="96.66666666666666" y1="0" x2="96.66666666666666" y2="177" fill="rgb(0, 0, 0)" stroke="rgb(66, 66, 66)" stroke-width="1px" opacity="0.25"></line><line x1="128.88888888888889" y1="0" x2="128.88888888888889" y2="177" fill="rgb(0, 0, 0)" stroke="rgb(66, 66, 66)" stroke-width="1px" opacity="0.25"></line><line x1="161.11111111111111" y1="0" x2="161.11111111111111" y2="177" fill="rgb(0, 0, 0)" stroke="rgb(66, 66, 66)" stroke-width="1px" opacity="0.25"></line><line x1="193.33333333333331" y1="0" x2="193.33333333333331" y2="177" fill="rgb(0, 0, 0)" stroke="rgb(66, 66, 66)" stroke-width="1px" opacity="0.25"></line><line x1="225.55555555555557" y1="0" x2="225.55555555555557" y2="177" fill="rgb(0, 0, 0)" stroke="rgb(66, 66, 66)" stroke-width="1px" opacity="0.25"></line><line x1="257.77777777777777" y1="0" x2="257.77777777777777" y2="177" fill="rgb(0, 0, 0)" stroke="rgb(66, 66, 66)" stroke-width="1px" opacity="0.25"></line><line x1="290" y1="0" x2="290" y2="177" fill="rgb(0, 0, 0)" stroke="rgb(66, 66, 66)" stroke-width="1px" opacity="0.25"></line></g><g><line x1="0" y1="177" x2="290" y2="177" fill="rgb(0, 0, 0)" stroke="rgb(66, 66, 66)" stroke-width="1px" opacity="0.25"></line><line x1="0" y1="151.71428571428572" x2="290" y2="151.71428571428572" fill="rgb(0, 0, 0)" stroke="rgb(66, 66, 66)" stroke-width="1px" opacity="0.25"></line><line x1="0" y1="126.42857142857143" x2="290" y2="126.42857142857143" fill="rgb(0, 0, 0)" stroke="rgb(66, 66, 66)" stroke-width="1px" opacity="0.25"></line><line x1="0" y1="101.14285714285714" x2="290" y2="101.14285714285714" fill="rgb(0, 0, 0)" stroke="rgb(66, 66, 66)" stroke-width="1px" opacity="0.25"></line><line x1="0" y1="75.85714285714286" x2="290" y2="75.85714285714286" fill="rgb(0, 0, 0)" stroke="rgb(66, 66, 66)" stroke-width="1px" opacity="0.25"></line><line x1="0" y1="50.57142857142857" x2="290" y2="50.57142857142857" fill="rgb(0, 0, 0)" stroke="rgb(66, 66, 66)" stroke-width="1px" opacity="0.25"></line><line x1="0" y1="25.285714285714295" x2="290" y2="25.285714285714295" fill="rgb(0, 0, 0)" stroke="rgb(66, 66, 66)" stroke-width="1px" opacity="0.25"></line><line x1="0" y1="0" x2="290" y2="0" fill="rgb(0, 0, 0)" stroke="rgb(66, 66, 66)" stroke-width="1px" opacity="0.25"></line></g></g></g><g><g><line x1="0" y1="177" x2="290" y2="177" fill="rgb(0, 0, 0)" stroke="rgb(153, 153, 153)" stroke-width="1.5px"></line></g></g><g><g><line x1="32.22222222222222" y1="0" x2="32.22222222222222" y2="177" fill="rgb(0, 0, 0)" stroke="rgb(153, 153, 153)" stroke-width="1.5px"></line></g></g><g><g><g><g><g><path stroke="rgb(0, 153, 136)" stroke-width="2px" d="M33.050333333333334,177L33.88166666666667,176.68392857142857L34.713,176.32915451895045L35.544333333333334,175.940231092437L36.37566666666667,175.5225141270943L37.207,175.0815041430106L38.03833333333333,174.62233438557018L38.86966666666667,174.14945812602662L39.701,173.6665222806935L40.532333333333334,173.1763782261781L41.36366666666667,172.68117320360665L42.195,172.18247550868782L43.02633333333333,171.6814022973949L43.85766666666667,171.17873318027085L44.68899999999999,170.67500306182453L45.52033333333333,170.1705738177752L46.35166666666667,169.66568740168947L47.183,169.1605039917513L48.01433333333333,168.65512874237487L48.845666666666666,168.14963019216844L49.677,167.64405273875914L50.50833333333333,167.13842498809686L51.339666666666666,166.6327652852249L52.171,166.12708534645913L53.00233333333333,165.62139262731935L53.83366666666667,165.11569185661565L54.665,164.6099860249558L55.49633333333333,164.1042770187062L56.327666666666666,163.5985660248912L57.159,163.09285378884923L57.99033333333333,162.58714077765813L58.821666666666665,162.08142728348972L59.653,161.57571348880214L60.48433333333334,161.0699995073634L61.315666666666665,160.5642854100102L62.147,160.05857124078995L62.97833333333334,159.55285702705856L63.809666666666665,159.0471427857859L64.64099999999999,158.5414285274877L65.47233333333334,158.03571425867375L66.30366666666667,157.52999998337006L67.135,157.0242857040644L67.96633333333334,156.5185714222926L68.79766666666666,156.01285713900225L69.629,155.50714285477736L70.46033333333334,155.00142856997775L71.29166666666666,154.49571428482486L72.123,153.989999999455L72.95433333333334,153.4842857139519L73.78566666666667,152.97857142836705L74.61699999999999,152.47285714273207L75.44833333333332,151.96714285706634L76.27966666666667,151.46142857138176L77.111,150.95571428568567L77.94233333333332,150.44999999998254L78.77366666666667,149.94428571427503L79.605,149.4385714285649L80.43633333333332,148.93285714285315L81.26766666666667,148.42714285714044L82.099,147.9214285714271L82.93033333333332,147.4157142857134L83.76166666666667,146.90999999999946L84.593,146.40428571428538L85.42433333333332,145.89857142857122L86.25566666666667,145.39285714285703L87.087,144.88714285714278L87.91833333333332,144.38142857142853L88.74966666666667,143.87571428571425L89.581,143.36999999999998L90.41233333333334,142.8642857142857L91.24366666666667,142.35857142857142L92.075,141.85285714285715L92.90633333333334,141.34714285714284L93.73766666666666,140.84142857142857L94.569,140.3357142857143L95.40033333333334,139.83L96.23166666666665,139.3242857142857L97.063,138.81857142857143L97.89433333333334,138.31285714285713L98.72566666666665,137.80714285714285L99.557,137.30142857142857L100.38833333333334,136.7957142857143L101.21966666666665,136.29L102.051,135.78428571428572L102.88233333333334,135.2785714285714L103.71366666666667,134.77285714285713L104.545,134.26714285714286L105.37633333333333,133.76142857142858L106.20766666666667,133.2557142857143L107.039,132.75L107.87033333333333,132.2442857142857L108.70166666666667,131.73857142857142L109.533,131.23285714285714L110.36433333333333,130.72714285714287L111.19566666666667,130.2214285714286L112.02699999999999,129.71571428571428L112.85833333333333,129.21L113.68966666666667,128.7042857142857L114.52099999999999,128.19857142857143L115.35233333333333,127.69285714285714L116.18366666666667,127.18714285714287L117.015,126.68142857142858L117.84633333333333,126.17571428571429L118.67766666666667,125.66999999999999L119.509,125.1642857142857L120.34033333333333,124.65857142857143L121.17166666666667,124.15285714285714L122.003,123.64714285714287L122.83433333333333,123.14142857142858L123.66566666666667,122.63571428571429L124.497,122.13L125.32833333333333,121.62428571428572L126.15966666666667,121.11857142857143L126.991,120.61285714285715L127.82233333333332,120.10714285714286L128.65366666666665,119.60142857142857L129.485,119.09571428571428L130.31633333333335,118.58999999999999L131.14766666666665,118.08428571428571L131.979,117.57857142857144L132.81033333333335,117.07285714285715L133.64166666666665,116.56714285714285L134.473,116.06142857142856L135.30433333333335,115.55571428571427L136.13566666666665,115.05L136.967,114.5442857142857L137.79833333333335,114.03857142857144L138.62966666666665,113.53285714285715L139.46099999999998,113.02714285714286L140.29233333333335,112.52142857142856L141.12366666666665,112.01571428571427L141.95499999999998,111.51L142.78633333333335,111.00428571428573L143.61766666666668,110.49857142857144L144.44899999999998,109.99285714285715L145.28033333333335,109.48714285714286L146.11166666666668,108.98142857142857L146.943,108.47571428571429L147.77433333333332,107.97L148.60566666666665,107.46428571428572L149.43699999999998,106.95857142857143L150.26833333333335,106.45285714285714L151.09966666666668,105.94714285714285L151.931,105.44142857142856L152.76233333333334,104.93571428571428L153.59366666666665,104.43000000000002L154.42499999999998,103.92428571428572L155.25633333333334,103.41857142857143L156.08766666666668,102.91285714285713L156.919,102.40714285714284L157.75033333333334,101.90142857142858L158.58166666666665,101.39571428571428L159.41299999999998,100.89000000000001L160.24433333333332,100.38428571428572L161.07566666666668,99.87857142857143L161.907,99.37285714285713L162.73833333333334,98.86714285714284L163.56966666666668,98.36142857142858L164.40099999999998,97.8557142857143L165.23233333333332,97.35000000000001L166.06366666666668,96.84428571428572L166.895,96.33857142857143L167.72633333333334,95.83285714285714L168.55766666666668,95.32714285714286L169.38899999999998,94.82142857142857L170.22033333333331,94.3157142857143L171.05166666666668,93.81L171.883,93.30428571428571L172.71433333333334,92.79857142857142L173.54566666666668,92.29285714285713L174.37699999999998,91.78714285714285L175.20833333333331,91.28142857142859L176.03966666666665,90.77571428571429L176.871,90.27L177.70233333333334,89.7642857142857L178.53366666666668,89.25857142857141L179.365,88.75285714285715L180.1963333333333,88.24714285714285L181.02766666666665,87.74142857142856L181.859,87.2357142857143L182.69033333333334,86.73L183.52166666666668,86.22428571428571L184.353,85.71857142857144L185.1843333333333,85.21285714285715L186.01566666666665,84.70714285714286L186.847,84.20142857142858L187.67833333333334,83.69571428571429L188.50966666666667,83.19L189.341,82.68428571428572L190.17233333333334,82.17857142857143L191.00366666666665,81.67285714285714L191.83499999999998,81.16714285714285L192.66633333333334,80.66142857142857L193.49766666666667,80.15571428571428L194.329,79.64999999999999L195.16033333333334,79.14428571428572L195.99166666666665,78.63857142857142L196.82299999999998,78.13285714285713L197.65433333333334,77.62714285714287L198.48566666666667,77.12142857142857L199.317,76.61571428571428L200.14833333333334,76.11000000000001L200.97966666666665,75.60428571428572L201.81099999999998,75.09857142857142L202.64233333333334,74.59285714285713L203.47366666666667,74.08714285714287L204.305,73.58142857142857L205.13633333333334,73.07571428571428L205.96766666666667,72.57000000000001L206.79899999999998,72.06428571428572L207.63033333333334,71.55857142857143L208.46166666666667,71.05285714285715L209.293,70.54714285714286L210.12433333333334,70.04142857142857L210.95566666666667,69.53571428571429L211.78699999999998,69.03L212.6183333333333,68.52428571428571L213.44966666666667,68.01857142857142L214.281,67.51285714285714L215.11233333333334,67.00714285714285L215.94366666666667,66.50142857142856L216.775,65.99571428571429L217.6063333333333,65.49L218.43766666666667,64.9842857142857L219.269,64.47857142857144L220.10033333333334,63.972857142857144L220.93166666666667,63.46714285714285L221.763,62.96142857142858L222.5943333333333,62.455714285714286L223.42566666666667,61.949999999999996L224.257,61.444285714285726L225.08833333333334,60.938571428571436L225.91966666666667,60.43285714285714L226.751,59.92714285714285L227.5823333333333,59.42142857142858L228.41366666666664,58.91571428571429L229.245,58.40999999999999L230.07633333333334,57.90428571428572L230.90766666666667,57.39857142857143L231.739,56.89285714285714L232.57033333333334,56.38714285714286L233.40166666666664,55.88142857142857L234.233,55.37571428571428L235.06433333333334,54.87000000000001L235.89566666666667,54.36428571428572L236.727,53.85857142857142L237.55833333333334,53.35285714285713L238.38966666666664,52.84714285714286L239.221,52.34142857142857L240.05233333333334,51.83571428571428L240.88366666666667,51.330000000000005L241.715,50.824285714285715L242.54633333333334,50.318571428571424L243.37766666666667,49.81285714285715L244.20899999999997,49.30714285714286L245.04033333333334,48.801428571428566L245.87166666666667,48.2957142857143L246.703,47.790000000000006L247.53433333333334,47.28428571428571L248.36566666666667,46.77857142857142L249.19699999999997,46.27285714285715L250.02833333333334,45.76714285714286L250.85966666666667,45.26142857142857L251.691,44.75571428571429L252.52233333333334,44.25L253.35366666666667,43.74428571428571L254.18499999999997,43.23857142857143L255.01633333333334,42.73285714285714L255.84766666666667,42.22714285714285L256.679,41.72142857142858L257.51033333333334,41.21571428571429L258.3416666666667,40.709999999999994L259.173,40.2042857142857L260.0043333333333,39.698571428571434L260.83566666666667,39.19285714285714L261.667,38.68714285714285L262.49833333333333,38.181428571428576L263.3296666666667,37.675714285714285L264.161,37.169999999999995L264.9923333333333,36.66428571428572L265.82366666666667,36.15857142857143L266.655,35.65285714285714L267.48633333333333,35.14714285714287L268.3176666666667,34.64142857142858L269.149,34.13571428571428L269.98033333333336,33.62999999999999L270.81166666666667,33.12428571428572L271.643,32.61857142857143L272.47433333333333,32.11285714285714L273.3056666666667,31.60714285714286L274.137,31.10142857142857L274.96833333333336,30.59571428571428L275.79966666666667,30.090000000000007L276.631,29.584285714285716L277.46233333333333,29.078571428571422L278.2936666666667,28.572857142857153L279.125,28.06714285714286L279.95633333333336,27.561428571428568L280.78766666666667,27.055714285714277L281.61899999999997,26.550000000000004" style="fill: none;" fill="none"></path></g></g></g></g><g opacity="0.2"><g><g><g><path stroke="rgb(0, 153, 136)" stroke-width="2px" d="M33.050333333333334,177L33.88166666666667,176.4942857142857L34.713,175.98857142857145L35.544333333333334,175.48285714285714L36.37566666666667,174.97714285714287L37.207,174.4714285714286L38.03833333333333,173.96571428571428L38.86966666666667,173.46L39.701,172.9542857142857L40.532333333333334,172.44857142857143L41.36366666666667,171.94285714285715L42.195,171.43714285714285L43.02633333333333,170.93142857142857L43.85766666666667,170.4257142857143L44.68899999999999,169.92L45.52033333333333,169.4142857142857L46.35166666666667,168.90857142857143L47.183,168.40285714285713L48.01433333333333,167.89714285714285L48.845666666666666,167.39142857142858L49.677,166.88571428571427L50.50833333333333,166.38L51.339666666666666,165.87428571428572L52.171,165.3685714285714L53.00233333333333,164.86285714285714L53.83366666666667,164.35714285714286L54.665,163.85142857142858L55.49633333333333,163.34571428571428L56.327666666666666,162.84L57.159,162.33428571428573L57.99033333333333,161.82857142857142L58.821666666666665,161.32285714285715L59.653,160.81714285714287L60.48433333333334,160.31142857142856L61.315666666666665,159.8057142857143L62.147,159.3L62.97833333333334,158.7942857142857L63.809666666666665,158.28857142857143L64.64099999999999,157.78285714285715L65.47233333333334,157.27714285714285L66.30366666666667,156.77142857142857L67.135,156.2657142857143L67.96633333333334,155.76L68.79766666666666,155.25428571428571L69.629,154.74857142857144L70.46033333333334,154.24285714285713L71.29166666666666,153.73714285714286L72.123,153.23142857142855L72.95433333333334,152.72571428571428L73.78566666666667,152.22L74.61699999999999,151.71428571428572L75.44833333333332,151.20857142857145L76.27966666666667,150.70285714285714L77.111,150.19714285714284L77.94233333333332,149.6914285714286L78.77366666666667,149.18571428571428L79.605,148.68L80.43633333333332,148.17428571428573L81.26766666666667,147.66857142857143L82.099,147.16285714285715L82.93033333333332,146.65714285714284L83.76166666666667,146.15142857142857L84.593,145.6457142857143L85.42433333333332,145.14000000000001L86.25566666666667,144.6342857142857L87.087,144.12857142857143L87.91833333333332,143.62285714285713L88.74966666666667,143.11714285714285L89.581,142.61142857142858L90.41233333333334,142.10571428571427L91.24366666666667,141.6L92.075,141.09428571428572L92.90633333333334,140.5885714285714L93.73766666666666,140.08285714285714L94.569,139.57714285714286L95.40033333333334,139.07142857142856L96.23166666666665,138.5657142857143L97.063,138.06L97.89433333333334,137.55428571428573L98.72566666666665,137.04857142857142L99.557,136.54285714285714L100.38833333333334,136.03714285714287L101.21966666666665,135.53142857142856L102.051,135.0257142857143L102.88233333333334,134.52L103.71366666666667,134.0142857142857L104.545,133.50857142857143L105.37633333333333,133.00285714285715L106.20766666666667,132.49714285714285L107.039,131.99142857142857L107.87033333333333,131.4857142857143L108.70166666666667,130.98L109.533,130.4742857142857L110.36433333333333,129.9685714285714L111.19566666666667,129.46285714285713L112.02699999999999,128.95714285714288L112.85833333333333,128.45142857142858L113.68966666666667,127.94571428571429L114.52099999999999,127.44L115.35233333333333,126.9342857142857L116.18366666666667,126.42857142857143L117.015,125.92285714285714L117.84633333333333,125.41714285714286L118.67766666666667,124.91142857142857L119.509,124.40571428571428L120.34033333333333,123.89999999999999L121.17166666666667,123.3942857142857L122.003,122.88857142857142L122.83433333333333,122.38285714285716L123.66566666666667,121.87714285714287L124.497,121.37142857142857L125.32833333333333,120.86571428571428L126.15966666666667,120.35999999999999L126.991,119.85428571428572L127.82233333333332,119.34857142857142L128.65366666666665,118.84285714285716L129.485,118.33714285714287L130.31633333333335,117.83142857142857L131.14766666666665,117.32571428571428L131.979,116.81999999999998L132.81033333333335,116.31428571428572L133.64166666666665,115.80857142857144L134.473,115.30285714285715L135.30433333333335,114.79714285714286L136.13566666666665,114.29142857142857L136.967,113.78571428571428L137.79833333333335,113.28L138.62966666666665,112.77428571428571L139.46099999999998,112.26857142857143L140.29233333333335,111.76285714285714L141.12366666666665,111.25714285714285L141.95499999999998,110.75142857142856L142.78633333333335,110.24571428571427L143.61766666666668,109.74L144.44899999999998,109.23428571428573L145.28033333333335,108.72857142857144L146.11166666666668,108.22285714285714L146.943,107.71714285714285L147.77433333333332,107.21142857142856L148.60566666666665,106.7057142857143L149.43699999999998,106.2L150.26833333333335,105.69428571428573L151.09966666666668,105.18857142857144L151.931,104.68285714285715L152.76233333333334,104.17714285714285L153.59366666666665,103.67142857142856L154.42499999999998,103.16571428571429L155.25633333333334,102.66000000000001L156.08766666666668,102.15428571428572L156.919,101.64857142857143L157.75033333333334,101.14285714285714L158.58166666666665,100.63714285714285L159.41299999999998,100.13142857142857L160.24433333333332,99.62571428571428L161.07566666666668,99.12L161.907,98.61428571428571L162.73833333333334,98.10857142857142L163.56966666666668,97.60285714285713L164.40099999999998,97.09714285714286L165.23233333333332,96.59142857142857L166.06366666666668,96.0857142857143L166.895,95.58000000000001L167.72633333333334,95.07428571428571L168.55766666666668,94.56857142857142L169.38899999999998,94.06285714285713L170.22033333333331,93.55714285714286L171.05166666666668,93.05142857142857L171.883,92.5457142857143L172.71433333333334,92.04L173.54566666666668,91.53428571428572L174.37699999999998,91.02857142857142L175.20833333333331,90.52285714285715L176.03966666666665,90.01714285714286L176.871,89.51142857142858L177.70233333333334,89.00571428571429L178.53366666666668,88.5L179.365,87.99428571428571L180.1963333333333,87.48857142857143L181.02766666666665,86.98285714285714L181.859,86.47714285714285L182.69033333333334,85.97142857142858L183.52166666666668,85.46571428571428L184.353,84.96L185.1843333333333,84.4542857142857L186.01566666666665,83.94857142857143L186.847,83.44285714285714L187.67833333333334,82.93714285714285L188.50966666666667,82.43142857142858L189.341,81.92571428571429L190.17233333333334,81.41999999999999L191.00366666666665,80.91428571428573L191.83499999999998,80.40857142857143L192.66633333333334,79.90285714285714L193.49766666666667,79.39714285714287L194.329,78.89142857142858L195.16033333333334,78.38571428571429L195.99166666666665,77.88L196.82299999999998,77.37428571428572L197.65433333333334,76.86857142857143L198.48566666666667,76.36285714285714L199.317,75.85714285714286L200.14833333333334,75.35142857142857L200.97966666666665,74.84571428571428L201.81099999999998,74.34L202.64233333333334,73.83428571428571L203.47366666666667,73.32857142857142L204.305,72.82285714285715L205.13633333333334,72.31714285714285L205.96766666666667,71.81142857142856L206.79899999999998,71.30571428571427L207.63033333333334,70.8L208.46166666666667,70.2942857142857L209.293,69.78857142857142L210.12433333333334,69.28285714285715L210.95566666666667,68.77714285714286L211.78699999999998,68.27142857142856L212.6183333333333,67.7657142857143L213.44966666666667,67.26L214.281,66.75428571428571L215.11233333333334,66.24857142857144L215.94366666666667,65.74285714285715L216.775,65.23714285714286L217.6063333333333,64.73142857142858L218.43766666666667,64.22571428571429L219.269,63.72L220.10033333333334,63.21428571428571L220.93166666666667,62.70857142857143L221.763,62.20285714285714L222.5943333333333,61.69714285714285L223.42566666666667,61.19142857142858L224.257,60.68571428571428L225.08833333333334,60.17999999999999L225.91966666666667,59.67428571428572L226.751,59.16857142857143L227.5823333333333,58.66285714285714L228.41366666666664,58.157142857142865L229.245,57.651428571428575L230.07633333333334,57.145714285714284L230.90766666666667,56.63999999999999L231.739,56.13428571428572L232.57033333333334,55.628571428571426L233.40166666666664,55.122857142857136L234.233,54.617142857142866L235.06433333333334,54.11142857142857L235.89566666666667,53.60571428571428L236.727,53.10000000000001L237.55833333333334,52.59428571428572L238.38966666666664,52.08857142857143L239.221,51.58285714285715L240.05233333333334,51.07714285714286L240.88366666666667,50.57142857142857L241.715,50.06571428571428L242.54633333333334,49.56L243.37766666666667,49.05428571428571L244.20899999999997,48.54857142857142L245.04033333333334,48.04285714285715L245.87166666666667,47.537142857142854L246.703,47.03142857142856L247.53433333333334,46.525714285714294L248.36566666666667,46.02L249.19699999999997,45.51428571428571L250.02833333333334,45.008571428571436L250.85966666666667,44.502857142857145L251.691,43.997142857142855L252.52233333333334,43.491428571428564L253.35366666666667,42.98571428571429L254.18499999999997,42.48L255.01633333333334,41.974285714285706L255.84766666666667,41.46857142857144L256.679,40.962857142857146L257.51033333333334,40.45714285714285L258.3416666666667,39.95142857142858L259.173,39.44571428571429L260.0043333333333,38.94L260.83566666666667,38.43428571428572L261.667,37.92857142857143L262.49833333333333,37.42285714285714L263.3296666666667,36.91714285714285L264.161,36.41142857142857L264.9923333333333,35.90571428571428L265.82366666666667,35.39999999999999L266.655,34.89428571428572L267.48633333333333,34.38857142857143L268.3176666666667,33.882857142857134L269.149,33.377142857142864L269.98033333333336,32.871428571428574L270.81166666666667,32.36571428571428L271.643,31.86000000000001L272.47433333333333,31.354285714285716L273.3056666666667,30.848571428571425L274.137,30.342857142857135L274.96833333333336,29.83714285714286L275.79966666666667,29.33142857142857L276.631,28.825714285714277L277.46233333333333,28.320000000000004L278.2936666666667,27.814285714285713L279.125,27.308571428571423L279.95633333333336,26.80285714285715L280.78766666666667,26.29714285714286L281.61899999999997,25.791428571428565" style="fill: none;" fill="none"></path></g></g></g></g></g><g><g opacity="0.24242"><span fill="rgb(0, 0, 0)" stroke="none" stroke-width="1px">Alt + Scroll to Zoom</span></g></g></g><g transform="translate(40, 177)" clip-path="url(#clip_1)"><clipPath id="clip_1"><rect width="290" height="23"></rect></clipPath><g><g><line x1="0" y1="0" x2="0" y2="5" style="visibility: inherit;" fill="rgb(0, 0, 0)" stroke="rgb(204, 204, 204)" stroke-width="1px"></line><line x1="32.22222222222222" y1="0" x2="32.22222222222222" y2="5" style="visibility: inherit;" fill="rgb(0, 0, 0)" stroke="rgb(204, 204, 204)" stroke-width="1px"></line><line x1="64.44444444444444" y1="0" x2="64.44444444444444" y2="5" style="visibility: inherit;" fill="rgb(0, 0, 0)" stroke="rgb(204, 204, 204)" stroke-width="1px"></line><line x1="96.66666666666666" y1="0" x2="96.66666666666666" y2="5" style="visibility: inherit;" fill="rgb(0, 0, 0)" stroke="rgb(204, 204, 204)" stroke-width="1px"></line><line x1="128.88888888888889" y1="0" x2="128.88888888888889" y2="5" style="visibility: inherit;" fill="rgb(0, 0, 0)" stroke="rgb(204, 204, 204)" stroke-width="1px"></line><line x1="161.11111111111111" y1="0" x2="161.11111111111111" y2="5" style="visibility: inherit;" fill="rgb(0, 0, 0)" stroke="rgb(204, 204, 204)" stroke-width="1px"></line><line x1="193.33333333333331" y1="0" x2="193.33333333333331" y2="5" style="visibility: inherit;" fill="rgb(0, 0, 0)" stroke="rgb(204, 204, 204)" stroke-width="1px"></line><line x1="225.55555555555557" y1="0" x2="225.55555555555557" y2="5" style="visibility: inherit;" fill="rgb(0, 0, 0)" stroke="rgb(204, 204, 204)" stroke-width="1px"></line><line x1="257.77777777777777" y1="0" x2="257.77777777777777" y2="5" style="visibility: inherit;" fill="rgb(0, 0, 0)" stroke="rgb(204, 204, 204)" stroke-width="1px"></line><line x1="290" y1="0" x2="290" y2="5" style="visibility: inherit;" fill="rgb(0, 0, 0)" stroke="rgb(204, 204, 204)" stroke-width="1px"></line></g><g transform="translate(0, 8)"><text x="0" y="0" dx="0em" dy="0.95em" style="text-anchor: middle; visibility: hidden; font-family: Roboto, sans-serif; font-size: 12px; font-weight: 200;" fill="rgb(33, 33, 33)" stroke="none" stroke-width="1px">-10k</text><text x="32.22222222222222" y="0" dx="0em" dy="0.95em" style="text-anchor: middle; visibility: inherit; font-family: Roboto, sans-serif; font-size: 12px; font-weight: 200;" fill="rgb(33, 33, 33)" stroke="none" stroke-width="1px">0</text><text x="64.44444444444444" y="0" dx="0em" dy="0.95em" style="text-anchor: middle; visibility: inherit; font-family: Roboto, sans-serif; font-size: 12px; font-weight: 200;" fill="rgb(33, 33, 33)" stroke="none" stroke-width="1px">10k</text><text x="96.66666666666666" y="0" dx="0em" dy="0.95em" style="text-anchor: middle; visibility: inherit; font-family: Roboto, sans-serif; font-size: 12px; font-weight: 200;" fill="rgb(33, 33, 33)" stroke="none" stroke-width="1px">20k</text><text x="128.88888888888889" y="0" dx="0em" dy="0.95em" style="text-anchor: middle; visibility: inherit; font-family: Roboto, sans-serif; font-size: 12px; font-weight: 200;" fill="rgb(33, 33, 33)" stroke="none" stroke-width="1px">30k</text><text x="161.11111111111111" y="0" dx="0em" dy="0.95em" style="text-anchor: middle; visibility: inherit; font-family: Roboto, sans-serif; font-size: 12px; font-weight: 200;" fill="rgb(33, 33, 33)" stroke="none" stroke-width="1px">40k</text><text x="193.33333333333331" y="0" dx="0em" dy="0.95em" style="text-anchor: middle; visibility: inherit; font-family: Roboto, sans-serif; font-size: 12px; font-weight: 200;" fill="rgb(33, 33, 33)" stroke="none" stroke-width="1px">50k</text><text x="225.55555555555557" y="0" dx="0em" dy="0.95em" style="text-anchor: middle; visibility: inherit; font-family: Roboto, sans-serif; font-size: 12px; font-weight: 200;" fill="rgb(33, 33, 33)" stroke="none" stroke-width="1px">60k</text><text x="257.77777777777777" y="0" dx="0em" dy="0.95em" style="text-anchor: middle; visibility: inherit; font-family: Roboto, sans-serif; font-size: 12px; font-weight: 200;" fill="rgb(33, 33, 33)" stroke="none" stroke-width="1px">70k</text><text x="290" y="0" dx="0em" dy="0.95em" style="text-anchor: middle; visibility: hidden; font-family: Roboto, sans-serif; font-size: 12px; font-weight: 200;" fill="rgb(33, 33, 33)" stroke="none" stroke-width="1px">80k</text></g><line x1="0" y1="0" x2="290" y2="0" fill="rgb(0, 0, 0)" stroke="rgb(204, 204, 204)" stroke-width="1px"></line></g></g></g></g></svg>