<svg viewBox="0 0 330 200" xmlns="http://www.w3.org/2000/svg"><g><g><g><g><g><line x1="40" y1="177" x2="35" y2="177" style="visibility: inherit;" fill="rgb(0, 0, 0)" stroke="rgb(204, 204, 204)" stroke-width="1px"></line><line x1="40" y1="165.2" x2="35" y2="165.2" style="visibility: inherit;" fill="rgb(0, 0, 0)" stroke="rgb(204, 204, 204)" stroke-width="1px"></line><line x1="40" y1="153.4" x2="35" y2="153.4" style="visibility: inherit;" fill="rgb(0, 0, 0)" stroke="rgb(204, 204, 204)" stroke-width="1px"></line><line x1="40" y1="141.6" x2="35" y2="141.6" style="visibility: inherit;" fill="rgb(0, 0, 0)" stroke="rgb(204, 204, 204)" stroke-width="1px"></line><line x1="40" y1="129.8" x2="35" y2="129.8" style="visibility: inherit;" fill="rgb(0, 0, 0)" stroke="rgb(204, 204, 204)" stroke-width="1px"></line><line x1="40" y1="118.00000000000001" x2="35" y2="118.00000000000001" style="visibility: inherit;" fill="rgb(0, 0, 0)" stroke="rgb(204, 204, 204)" stroke-width="1px"></line><line x1="40" y1="106.2" x2="35" y2="106.2" style="visibility: inherit;" fill="rgb(0, 0, 0)" stroke="rgb(204, 204, 204)" stroke-width="1px"></line><line x1="40" y1="94.4" x2="35" y2="94.4" style="visibility: inherit;" fill="rgb(0, 0, 0)" stroke="rgb(204, 204, 204)" stroke-width="1px"></line><line x1="40" y1="82.6" x2="35" y2="82.6" style="visibility: inherit;" fill="rgb(0, 0, 0)" stroke="rgb(204, 204, 204)" stroke-width="1px"></line><line x1="40" y1="70.8" x2="35" y2="70.8" style="visibility: inherit;" fill="rgb(0, 0, 0)" stroke="rgb(204, 204, 204)" stroke-width="1px"></line><line x1="40" y1="59.00000000000001" x2="35" y2="59.00000000000001" style="visibility: inherit;" fill="rgb(0, 0, 0)" stroke="rgb(204, 204, 204)" stroke-width="1px"></line><line x1="40" y1="47.20000000000001" x2="35" y2="47.20000000000001" style="visibility: inherit;" fill="rgb(0, 0, 0)" stroke="rgb(204, 204, 204)" stroke-width="1px"></line><line x1="40" y1="35.39999999999999" x2="35" y2="35.39999999999999" style="visibility: inherit;" fill="rgb(0, 0, 0)" stroke="rgb(204, 204, 204)" stroke-width="1px"></line><line x1="40" y1="23.599999999999994" x2="35" y2="23.599999999999994" style="visibility: inherit;" fill="rgb(0, 0, 0)" stroke="rgb(204, 204, 204)" stroke-width="1px"></line><line x1="40" y1="11.799999999999997" x2="35" y2="11.799999999999997" style="visibility: inherit;" fill="rgb(0, 0, 0)" stroke="rgb(204, 204, 204)" stroke-width="1px"></line><line x1="40" y1="0" x2="35" y2="0" style="visibility: inherit;" fill="rgb(0, 0, 0)" stroke="rgb(204, 204, 204)" stroke-width="1px"></line></g><g transform="translate(30, 0)"><text x="0" y="177" dx="0em" dy="0.3em" style="text-anchor: end; visibility: hidden; font-family: Roboto, sans-serif; font-size: 12px; font-weight: 200;" fill="rgb(33, 33, 33)" stroke="none" stroke-width="1px">0</text><text x="0" y="165.2" dx="0em" dy="0.3em" style="text-anchor: end; visibility: inherit; font-family: Roboto, sans-serif; font-size: 12px; font-weight: 200;" fill="rgb(33, 33, 33)" stroke="none" stroke-width="1px">20</text><text x="0" y="153.4" dx="0em" dy="0.3em" style="text-anchor: end; visibility: hidden; font-family: Roboto, sans-serif; font-size: 12px; font-weight: 200;" fill="rgb(33, 33, 33)" stroke="none" stroke-width="1px">40</text><text x="0" y="141.6" dx="0em" dy="0.3em" style="text-anchor: end; visibility: inherit; font-family: Roboto, sans-serif; font-size: 12px; font-weight: 200;" fill="rgb(33, 33, 33)" stroke="none" stroke-width="1px">60</text><text x="0" y="129.8" dx="0em" dy="0.3em" style="text-anchor: end; visibility: hidden; font-family: Roboto, sans-serif; font-size: 12px; font-weight: 200;" fill="rgb(33, 33, 33)" stroke="none" stroke-width="1px">80</text><text x="0" y="118.00000000000001" dx="0em" dy="0.3em" style="text-anchor: end; visibility: inherit; font-family: Roboto, sans-serif; font-size: 12px; font-weight: 200;" fill="rgb(33, 33, 33)" stroke="none" stroke-width="1px">100</text><text x="0" y="106.2" dx="0em" dy="0.3em" style="text-anchor: end; visibility: hidden; font-family: Roboto, sans-serif; font-size: 12px; font-weight: 200;" fill="rgb(33, 33, 33)" stroke="none" stroke-width="1px">120</text><text x="0" y="94.4" dx="0em" dy="0.3em" style="text-anchor: end; visibility: inherit; font-family: Roboto, sans-serif; font-size: 12px; font-weight: 200;" fill="rgb(33, 33, 33)" stroke="none" stroke-width="1px">140</text><text x="0" y="82.6" dx="0em" dy="0.3em" style="text-anchor: end; visibility: hidden; font-family: Roboto, sans-serif; font-size: 12px; font-weight: 200;" fill="rgb(33, 33, 33)" stroke="none" stroke-width="1px">160</text><text x="0" y="70.8" dx="0em" dy="0.3em" style="text-anchor: end; visibility: inherit; font-family: Roboto, sans-serif; font-size: 12px; font-weight: 200;" fill="rgb(33, 33, 33)" stroke="none" stroke-width="1px">180</text><text x="0" y="59.00000000000001" dx="0em" dy="0.3em" style="text-anchor: end; visibility: hidden; font-family: Roboto, sans-serif; font-size: 12px; font-weight: 200;" fill="rgb(33, 33, 33)" stroke="none" stroke-width="1px">200</text><text x="0" y="47.20000000000001" dx="0em" dy="0.3em" style="text-anchor: end; visibility: inherit; font-family: Roboto, sans-serif; font-size: 12px; font-weight: 200;" fill="rgb(33, 33, 33)" stroke="none" stroke-width="1px">220</text><text x="0" y="35.39999999999999" dx="0em" dy="0.3em" style="text-anchor: end; visibility: hidden; font-family: Roboto, sans-serif; font-size: 12px; font-weight: 200;" fill="rgb(33, 33, 33)" stroke="none" stroke-width="1px">240</text><text x="0" y="23.599999999999994" dx="0em" dy="0.3em" style="text-anchor: end; visibility: inherit; font-family: Roboto, sans-serif; font-size: 12px; font-weight: 200;" fill="rgb(33, 33, 33)" stroke="none" stroke-width="1px">260</text><text x="0" y="11.799999999999997" dx="0em" dy="0.3em" style="text-anchor: end; visibility: hidden; font-family: Roboto, sans-serif; font-size: 12px; font-weight: 200;" fill="rgb(33, 33, 33)" stroke="none" stroke-width="1px">280</text><text x="0" y="0" dx="0em" dy="0.3em" style="text-anchor: end; visibility: hidden; font-family: Roboto, sans-serif; font-size: 12px; font-weight: 200;" fill="rgb(33, 33, 33)" stroke="none" stroke-width="1px">300</text></g><line x1="40" y1="0" x2="40" y2="177" fill="rgb(0, 0, 0)" stroke="rgb(204, 204, 204)" stroke-width="1px"></line></g></g><g transform="translate(40, 0)" clip-path="url(#clip_0)"><clipPath id="clip_0"><rect width="290" height="177"></rect></clipPath><g><g><g><line x1="0" y1="0" x2="0" y2="177" fill="rgb(0, 0, 0)" stroke="rgb(66, 66, 66)" stroke-width="1px" opacity="0.25"></line><line x1="22.30769230769231" y1="0" x2="22.30769230769231" y2="177" fill="rgb(0, 0, 0)" stroke="rgb(66, 66, 66)" stroke-width="1px" opacity="0.25"></line><line x1="44.61538461538462" y1="0" x2="44.61538461538462" y2="177" fill="rgb(0, 0, 0)" stroke="rgb(66, 66, 66)" stroke-width="1px" opacity="0.25"></line><line x1="66.92307692307692" y1="0" x2="66.92307692307692" y2="177" fill="rgb(0, 0, 0)" stroke="rgb(66, 66, 66)" stroke-width="1px" opacity="0.25"></line><line x1="89.23076923076924" y1="0" x2="89.23076923076924" y2="177" fill="rgb(0, 0, 0)" stroke="rgb(66, 66, 66)" stroke-width="1px" opacity="0.25"></line><line x1="111.53846153846155" y1="0" x2="111.53846153846155" y2="177" fill="rgb(0, 0, 0)" stroke="rgb(66, 66, 66)" stroke-width="1px" opacity="0.25"></line><line x1="133.84615384615384" y1="0" x2="133.84615384615384" y2="177" fill="rgb(0, 0, 0)" stroke="rgb(66, 66, 66)" stroke-width="1px" opacity="0.25"></line><line x1="156.15384615384616" y1="0" x2="156.15384615384616" y2="177" fill="rgb(0, 0, 0)" stroke="rgb(66, 66, 66)" stroke-width="1px" opacity="0.25"></line><line x1="178.46153846153848" y1="0" x2="178.46153846153848" y2="177" fill="rgb(0, 0, 0)" stroke="rgb(66, 66, 66)" stroke-width="1px" opacity="0.25"></line><line x1="200.76923076923077" y1="0" x2="200.76923076923077" y2="177" fill="rgb(0, 0, 0)" stroke="rgb(66, 66, 66)" stroke-width="1px" opacity="0.25"></line><line x1="223.0769230769231" y1="0" x2="223.0769230769231" y2="177" fill="rgb(0, 0, 0)" stroke="rgb(66, 66, 66)" stroke-width="1px" opacity="0.25"></line><line x1="245.3846153846154" y1="0" x2="245.3846153846154" y2="177" fill="rgb(0, 0, 0)" stroke="rgb(66, 66, 66)" stroke-width="1px" opacity="0.25"></line><line x1="267.6923076923077" y1="0" x2="267.6923076923077" y2="177" fill="rgb(0, 0, 0)" stroke="rgb(66, 66, 66)" stroke-width="1px" opacity="0.25"></line><line x1="290" y1="0" x2="290" y2="177" fill="rgb(0, 0, 0)" stroke="rgb(66, 66, 66)" stroke-width="1px" opacity="0.25"></line></g><g><line x1="0" y1="177" x2="290" y2="177" fill="rgb(0, 0, 0)" stroke="rgb(66, 66, 66)" stroke-width="1px" opacity="0.25"></line><line x1="0" y1="165.2" x2="290" y2="165.2" fill="rgb(0, 0, 0)" stroke="rgb(66, 66, 66)" stroke-width="1px" opacity="0.25"></line><line x1="0" y1="153.4" x2="290" y2="153.4" fill="rgb(0, 0, 0)" stroke="rgb(66, 66, 66)" stroke-width="1px" opacity="0.25"></line><line x1="0" y1="141.6" x2="290" y2="141.6" fill="rgb(0, 0, 0)" stroke="rgb(66, 66, 66)" stroke-width="1px" opacity="0.25"></line><line x1="0" y1="129.8" x2="290" y2="129.8" fill="rgb(0, 0, 0)" stroke="rgb(66, 66, 66)" stroke-width="1px" opacity="0.25"></line><line x1="0" y1="118.00000000000001" x2="290" y2="118.00000000000001" fill="rgb(0, 0, 0)" stroke="rgb(66, 66, 66)" stroke-width="1px" opacity="0.25"></line><line x1="0" y1="106.2" x2="290" y2="106.2" fill="rgb(0, 0, 0)" stroke="rgb(66, 66, 66)" stroke-width="1px" opacity="0.25"></line><line x1="0" y1="94.4" x2="290" y2="94.4" fill="rgb(0, 0, 0)" stroke="rgb(66, 66, 66)" stroke-width="1px" opacity="0.25"></line><line x1="0" y1="82.6" x2="290" y2="82.6" fill="rgb(0, 0, 0)" stroke="rgb(66, 66, 66)" stroke-width="1px" opacity="0.25"></line><line x1="0" y1="70.8" x2="290" y2="70.8" fill="rgb(0, 0, 0)" stroke="rgb(66, 66, 66)" stroke-width="1px" opacity="0.25"></line><line x1="0" y1="59.00000000000001" x2="290" y2="59.00000000000001" fill="rgb(0, 0, 0)" stroke="rgb(66, 66, 66)" stroke-width="1px" opacity="0.25"></line><line x1="0" y1="47.20000000000001" x2="290" y2="47.20000000000001" fill="rgb(0, 0, 0)" stroke="rgb(66, 66, 66)" stroke-width="1px" opacity="0.25"></line><line x1="0" y1="35.39999999999999" x2="290" y2="35.39999999999999" fill="rgb(0, 0, 0)" stroke="rgb(66, 66, 66)" stroke-width="1px" opacity="0.25"></line><line x1="0" y1="23.599999999999994" x2="290" y2="23.599999999999994" fill="rgb(0, 0, 0)" stroke="rgb(66, 66, 66)" stroke-width="1px" opacity="0.25"></line><line x1="0" y1="11.799999999999997" x2="290" y2="11.799999999999997" fill="rgb(0, 0, 0)" stroke="rgb(66, 66, 66)" stroke-width="1px" opacity="0.25"></line><line x1="0" y1="0" x2="290" y2="0" fill="rgb(0, 0, 0)" stroke="rgb(66, 66, 66)" stroke-width="1px" opacity="0.25"></line></g></g></g><g><g><line x1="0" y1="177" x2="290" y2="177" fill="rgb(0, 0, 0)" stroke="rgb(153, 153, 153)" stroke-width="1.5px"></line></g></g><g><g><line x1="22.30769230769231" y1="0" x2="22.30769230769231" y2="177" fill="rgb(0, 0, 0)" stroke="rgb(153, 153, 153)" stroke-width="1.5px"></line></g></g><g><g><g><g><g><path stroke="rgb(255, 112, 67)" stroke-width="2px" d="M23.144230769230766,177L23.981884615384615,176.63125L24.81953846153846,176.2173469387755L25.657192307692306,175.7636029411765L26.494846153846154,175.27626648161L27.3325,174.76175483351236L28.170153846153845,174.2260567831652L29.007807692307694,173.67436781369773L29.84546153846154,173.11094266080906L30.683115384615384,172.53910793054112L31.520769230769233,171.9613687375411L32.358423076923074,171.37955476013582L33.19607692307692,170.79496934696073L34.033730769230765,170.2085220436493L34.87138461538461,169.62083690546194L35.70903846153846,169.03233612073774L36.54669230769231,168.4433019686377L37.38434615384615,167.85392132370987L38.222,167.26431686610402L39.05965384615384,166.67456855752985L39.89730769230769,166.08472819521901L40.73496153846153,165.4948291527797L41.57261538461539,164.90489283276239L42.41026923076923,164.31493290420232L43.24792307692308,163.72495806520595L44.08557692307692,163.13497383271826L44.92323076923077,162.54498369578175L45.76088461538461,161.95498985515724L46.59853846153847,161.3649936957064L47.43619230769231,160.77499608699074L48.27384615384616,160.18499757393448L49.1115,159.59499849740467L49.94915384615385,159.00499907026915L50.78680769230769,158.4149994252573L51.62446153846153,157.82499964501187L52.46211538461539,157.2349997809216L53.299769230769236,156.64499986490165L54.13742307692308,156.0549999167502L54.97507692307692,155.46499994873565L55.81273076923077,154.87499996845273L56.65038461538461,154.2849999805984L57.488038461538466,153.6949999880751L58.32569230769231,153.10499999267472L59.163346153846156,152.51499999550262L60.001,151.92499999724026L60.838653846153846,151.33499999830735L61.67630769230769,150.74499999896233L62.51396153846154,150.15499999936415L63.351615384615386,149.56499999961056L64.18926923076923,148.97499999976156L65.02692307692308,148.38499999985407L65.86457692307692,147.79499999991074L66.70223076923077,147.20499999994541L67.53988461538461,146.61499999996664L68.37753846153846,146.0249999999796L69.2151923076923,145.43499999998755L70.05284615384616,144.84499999999238L70.8905,144.25499999999536L71.72815384615384,143.66499999999718L72.56580769230769,143.07499999999828L73.40346153846154,142.48499999999893L74.24111538461538,141.89499999999936L75.07876923076924,141.3049999999996L75.91642307692307,140.71499999999975L76.75407692307692,140.12499999999986L77.59173076923078,139.5349999999999L78.4293846153846,138.94499999999994L79.26703846153846,138.35499999999996L80.1046923076923,137.765L80.94234615384616,137.17499999999998L81.77999999999999,136.58499999999998L82.61765384615384,135.995L83.4553076923077,135.40499999999997L84.29296153846154,134.815L85.13061538461538,134.225L85.96826923076922,133.635L86.80592307692308,133.04500000000002L87.64357692307694,132.45499999999998L88.48123076923076,131.865L89.31888461538462,131.275L90.15653846153846,130.685L90.99419230769232,130.095L91.83184615384614,129.505L92.6695,128.915L93.50715384615386,128.325L94.3448076923077,127.735L95.18246153846154,127.14499999999998L96.02011538461538,126.55500000000002L96.85776923076924,125.965L97.69542307692306,125.37499999999999L98.53307692307692,124.78500000000001L99.37073076923078,124.195L100.20838461538462,123.60499999999999L101.04603846153847,123.01500000000001L101.8836923076923,122.425L102.72134615384616,121.83500000000001L103.559,121.245L104.39665384615384,120.655L105.2343076923077,120.065L106.07196153846154,119.47500000000001L106.90961538461539,118.88499999999999L107.74726923076922,118.295L108.58492307692308,117.70500000000001L109.42257692307693,117.115L110.26023076923077,116.525L111.09788461538461,115.935L111.93553846153846,115.34499999999998L112.77319230769231,114.755L113.61084615384615,114.165L114.4485,113.57499999999999L115.28615384615385,112.985L116.1238076923077,112.395L116.96146153846155,111.80499999999999L117.79911538461538,111.21500000000002L118.63676923076923,110.625L119.47442307692307,110.03499999999998L120.31207692307692,109.44500000000001L121.14973076923077,108.855L121.98738461538461,108.265L122.82503846153847,107.67500000000001L123.6626923076923,107.085L124.50034615384615,106.495L125.338,105.90500000000002L126.17565384615385,105.315L127.01330769230769,104.725L127.85096153846153,104.135L128.6886153846154,103.54499999999999L129.52626923076923,102.955L130.36392307692307,102.36500000000001L131.20157692307694,101.77499999999999L132.03923076923076,101.185L132.87688461538463,100.595L133.71453846153847,100.005L134.5521923076923,99.41499999999999L135.38984615384615,98.825L136.2275,98.23499999999999L137.06515384615386,97.64500000000001L137.9028076923077,97.055L138.74046153846155,96.46499999999999L139.5781153846154,95.87500000000001L140.41576923076923,95.285L141.25342307692307,94.69499999999998L142.0910769230769,94.10500000000002L142.92873076923078,93.515L143.76638461538462,92.925L144.60403846153847,92.33500000000001L145.4416923076923,91.74499999999999L146.27934615384615,91.155L147.117,90.56500000000001L147.95465384615383,89.975L148.7923076923077,89.385L149.62996153846154,88.795L150.46761538461539,88.205L151.30526923076923,87.615L152.14292307692307,87.025L152.98057692307694,86.43499999999999L153.81823076923078,85.845L154.6558846153846,85.25500000000001L155.49353846153846,84.665L156.3311923076923,84.075L157.16884615384618,83.485L158.0065,82.89500000000001L158.84415384615383,82.30499999999999L159.6818076923077,81.715L160.51946153846154,81.125L161.35711538461538,80.535L162.19476923076923,79.945L163.03242307692307,79.355L163.87007692307694,78.76499999999999L164.70773076923078,78.175L165.54538461538462,77.58500000000001L166.38303846153846,76.995L167.2206923076923,76.405L168.05834615384614,75.815L168.89600000000002,75.22500000000001L169.73365384615386,74.63499999999999L170.57130769230767,74.045L171.40896153846154,73.45500000000001L172.24661538461538,72.865L173.08426923076925,72.275L173.92192307692306,71.685L174.7595769230769,71.09499999999998L175.59723076923078,70.505L176.43488461538462,69.915L177.27253846153846,69.325L178.1101923076923,68.735L178.94784615384614,68.145L179.7855,67.555L180.62315384615385,66.96499999999999L181.4608076923077,66.375L182.29846153846154,65.78500000000001L183.13611538461538,65.195L183.97376923076922,64.605L184.8114230769231,64.015L185.64907692307693,63.42499999999999L186.48673076923075,62.834999999999994L187.32438461538462,62.245000000000005L188.16203846153846,61.65500000000001L188.99969230769233,61.065L189.83734615384614,60.475L190.67499999999998,59.885000000000005L191.51265384615385,59.294999999999995L192.3503076923077,58.705L193.18796153846156,58.11500000000001L194.02561538461538,57.52499999999999L194.86326923076922,56.934999999999995L195.7009230769231,56.345000000000006L196.53857692307693,55.75499999999999L197.37623076923077,55.165L198.21388461538461,54.575L199.05153846153846,53.98500000000001L199.8891923076923,53.394999999999996L200.72684615384617,52.805L201.56449999999998,52.21500000000001L202.40215384615385,51.62499999999999L203.2398076923077,51.035L204.07746153846153,50.44500000000001L204.9151153846154,49.85499999999999L205.75276923076922,49.265L206.59042307692306,48.675000000000004L207.42807692307693,48.084999999999994L208.26573076923077,47.495L209.10338461538464,46.905L209.94103846153845,46.31500000000001L210.7786923076923,45.724999999999994L211.61634615384617,45.135L212.454,44.54500000000001L213.29165384615385,43.95499999999999L214.1293076923077,43.365L214.96696153846153,42.775000000000006L215.80461538461537,42.18499999999999L216.64226923076924,41.595L217.47992307692306,41.005L218.31757692307693,40.415000000000006L219.15523076923077,39.824999999999996L219.9928846153846,39.235L220.83053846153848,38.64500000000001L221.6681923076923,38.05499999999999L222.50584615384614,37.465L223.3435,36.87500000000001L224.18115384615385,36.28499999999999L225.01880769230772,35.695L225.85646153846153,35.105000000000004L226.69411538461537,34.51499999999999L227.53176923076924,33.925L228.36942307692308,33.335L229.20707692307693,32.74500000000001L230.04473076923077,32.154999999999994L230.8823846153846,31.565L231.72003846153848,30.97500000000001L232.55769230769232,30.384999999999994L233.39534615384613,29.795L234.233,29.205000000000005L235.07065384615385,28.61499999999999L235.9083076923077,28.025L236.74596153846156,27.435000000000006L237.58361538461537,26.84499999999999L238.4212692307692,26.254999999999995L239.25892307692308,25.665000000000003L240.09657692307692,25.07500000000001L240.9342307692308,24.484999999999996L241.7718846153846,23.895000000000003L242.60953846153845,23.305000000000007L243.44719230769232,22.714999999999993L244.28484615384616,22.125L245.12249999999997,21.535000000000007L245.96015384615384,20.944999999999993L246.79780769230769,20.354999999999997L247.63546153846156,19.765000000000004L248.4731153846154,19.17499999999999L249.3107692307692,18.584999999999997L250.14842307692308,17.995000000000005L250.98607692307692,17.40500000000001L251.82373076923076,16.814999999999994L252.66138461538463,16.225L253.49903846153845,15.635000000000007L254.3366923076923,15.044999999999995L255.17434615384616,14.455L256.012,13.865000000000006L256.84965384615384,13.274999999999991L257.6873076923077,12.684999999999999L258.5249615384615,12.095000000000004L259.36261538461537,11.50499999999999L260.20026923076927,10.914999999999997L261.03792307692305,10.325000000000003L261.8755769230769,9.735000000000008L262.7132307692308,9.144999999999994L263.55088461538463,8.555000000000001L264.3885384615385,7.965000000000007L265.2261923076923,7.374999999999994L266.06384615384616,6.784999999999999L266.9015,6.195000000000006L267.73915384615384,5.6049999999999915L268.5768076923077,5.014999999999998L269.4144615384615,4.425000000000004L270.25211538461537,3.83499999999999L271.0897692307692,3.2449999999999966L271.9274230769231,2.6550000000000025L272.76507692307695,2.0650000000000084L273.60273076923073,1.4749999999999948" style="fill: none;" fill="none"></path></g></g></g></g><g opacity="0.2"><g><g><g><path stroke="rgb(255, 112, 67)" stroke-width="2px" d="M23.144230769230766,177L23.981884615384615,176.41L24.81953846153846,175.82L25.657192307692306,175.23L26.494846153846154,174.64000000000001L27.3325,174.04999999999998L28.170153846153845,173.46L29.007807692307694,172.87L29.84546153846154,172.28L30.683115384615384,171.69L31.520769230769233,171.1L32.358423076923074,170.51000000000002L33.19607692307692,169.92L34.033730769230765,169.33L34.87138461538461,168.74L35.70903846153846,168.15L36.54669230769231,167.56L37.38434615384615,166.97L38.222,166.38L39.05965384615384,165.79L39.89730769230769,165.2L40.73496153846153,164.60999999999999L41.57261538461539,164.01999999999998L42.41026923076923,163.43L43.24792307692308,162.84L44.08557692307692,162.25L44.92323076923077,161.66L45.76088461538461,161.07L46.59853846153847,160.48L47.43619230769231,159.89L48.27384615384616,159.3L49.1115,158.71L49.94915384615385,158.12L50.78680769230769,157.53L51.62446153846153,156.94L52.46211538461539,156.35L53.299769230769236,155.76L54.13742307692308,155.17000000000002L54.97507692307692,154.57999999999998L55.81273076923077,153.99L56.65038461538461,153.4L57.488038461538466,152.81L58.32569230769231,152.22L59.163346153846156,151.63L60.001,151.04L60.838653846153846,150.45L61.67630769230769,149.86L62.51396153846154,149.26999999999998L63.351615384615386,148.68L64.18926923076923,148.09L65.02692307692308,147.5L65.86457692307692,146.91L66.70223076923077,146.32L67.53988461538461,145.73000000000002L68.37753846153846,145.14000000000001L69.2151923076923,144.55L70.05284615384616,143.96L70.8905,143.37L71.72815384615384,142.78L72.56580769230769,142.19L73.40346153846154,141.6L74.24111538461538,141.01L75.07876923076924,140.42L75.91642307692307,139.83L76.75407692307692,139.23999999999998L77.59173076923078,138.65L78.4293846153846,138.06L79.26703846153846,137.47L80.1046923076923,136.88L80.94234615384616,136.29L81.77999999999999,135.7L82.61765384615384,135.10999999999999L83.4553076923077,134.52L84.29296153846154,133.92999999999998L85.13061538461538,133.34L85.96826923076922,132.75L86.80592307692308,132.16L87.64357692307694,131.57000000000002L88.48123076923076,130.98L89.31888461538462,130.39000000000001L90.15653846153846,129.8L90.99419230769232,129.21L91.83184615384614,128.62L92.6695,128.03L93.50715384615386,127.44L94.3448076923077,126.85L95.18246153846154,126.26L96.02011538461538,125.66999999999999L96.85776923076924,125.08L97.69542307692306,124.49000000000001L98.53307692307692,123.89999999999999L99.37073076923078,123.31L100.20838461538462,122.72L101.04603846153847,122.13L101.8836923076923,121.53999999999999L102.72134615384616,120.95L103.559,120.35999999999999L104.39665384615384,119.77000000000001L105.2343076923077,119.18L106.07196153846154,118.58999999999999L106.90961538461539,118.00000000000001L107.74726923076922,117.41L108.58492307692308,116.81999999999998L109.42257692307693,116.23000000000002L110.26023076923077,115.64L111.09788461538461,115.05L111.93553846153846,114.46000000000001L112.77319230769231,113.86999999999999L113.61084615384615,113.28L114.4485,112.69000000000001L115.28615384615385,112.1L116.1238076923077,111.51L116.96146153846155,110.92L117.79911538461538,110.33L118.63676923076923,109.74L119.47442307692307,109.15L120.31207692307692,108.55999999999999L121.14973076923077,107.97L121.98738461538461,107.38000000000001L122.82503846153847,106.78999999999999L123.6626923076923,106.2L124.50034615384615,105.61L125.338,105.01999999999998L126.17565384615385,104.43000000000002L127.01330769230769,103.84L127.85096153846153,103.24999999999999L128.6886153846154,102.66000000000001L129.52626923076923,102.07L130.36392307692307,101.47999999999999L131.20157692307694,100.89000000000001L132.03923076923076,100.3L132.87688461538463,99.71000000000001L133.71453846153847,99.12L134.5521923076923,98.53L135.38984615384615,97.94L136.2275,97.35000000000001L137.06515384615386,96.75999999999999L137.9028076923077,96.17L138.74046153846155,95.58000000000001L139.5781153846154,94.99L140.41576923076923,94.4L141.25342307692307,93.81L142.0910769230769,93.21999999999998L142.92873076923078,92.63L143.76638461538462,92.04L144.60403846153847,91.44999999999999L145.4416923076923,90.86L146.27934615384615,90.27L147.117,89.67999999999999L147.95465384615383,89.09000000000002L148.7923076923077,88.5L149.62996153846154,87.91000000000001L150.46761538461539,87.32L151.30526923076923,86.73L152.14292307692307,86.14L152.98057692307694,85.55L153.81823076923078,84.96L154.6558846153846,84.37L155.49353846153846,83.78000000000002L156.3311923076923,83.19L157.16884615384618,82.6L158.0065,82.01L158.84415384615383,81.41999999999999L159.6818076923077,80.83L160.51946153846154,80.24000000000001L161.35711538461538,79.64999999999999L162.19476923076923,79.06L163.03242307692307,78.47L163.87007692307694,77.88L164.70773076923078,77.28999999999999L165.54538461538462,76.7L166.38303846153846,76.11000000000001L167.2206923076923,75.52L168.05834615384614,74.93L168.89600000000002,74.34L169.73365384615386,73.75L170.57130769230767,73.16L171.40896153846154,72.57000000000001L172.24661538461538,71.97999999999999L173.08426923076925,71.39L173.92192307692306,70.8L174.7595769230769,70.21L175.59723076923078,69.61999999999999L176.43488461538462,69.03L177.27253846153846,68.44000000000001L178.1101923076923,67.85L178.94784615384614,67.26L179.7855,66.67L180.62315384615385,66.08L181.4608076923077,65.49L182.29846153846154,64.9L183.13611538461538,64.30999999999999L183.97376923076922,63.72L184.8114230769231,63.13L185.64907692307693,62.540000000000006L186.48673076923075,61.949999999999996L187.32438461538462,61.36L188.16203846153846,60.77000000000001L188.99969230769233,60.17999999999999L189.83734615384614,59.59L190.67499999999998,59.00000000000001L191.51265384615385,58.40999999999999L192.3503076923077,57.82L193.18796153846156,57.230000000000004L194.02561538461538,56.63999999999999L194.86326923076922,56.05L195.7009230769231,55.46L196.53857692307693,54.87000000000001L197.37623076923077,54.279999999999994L198.21388461538461,53.690000000000005L199.05153846153846,53.10000000000001L199.8891923076923,52.50999999999999L200.72684615384617,51.92L201.56449999999998,51.330000000000005L202.40215384615385,50.739999999999995L203.2398076923077,50.15L204.07746153846153,49.56L204.9151153846154,48.96999999999999L205.75276923076922,48.379999999999995L206.59042307692306,47.790000000000006L207.42807692307693,47.20000000000001L208.26573076923077,46.60999999999999L209.10338461538464,46.02L209.94103846153845,45.43000000000001L210.7786923076923,44.839999999999996L211.61634615384617,44.25L212.454,43.660000000000004L213.29165384615385,43.06999999999999L214.1293076923077,42.48L214.96696153846153,41.89000000000001L215.80461538461537,41.29999999999999L216.64226923076924,40.709999999999994L217.47992307692306,40.120000000000005L218.31757692307693,39.53000000000001L219.15523076923077,38.94L219.9928846153846,38.35L220.83053846153848,37.760000000000005L221.6681923076923,37.169999999999995L222.50584615384614,36.58L223.3435,35.99000000000001L224.18115384615385,35.39999999999999L225.01880769230772,34.809999999999995L225.85646153846153,34.220000000000006L226.69411538461537,33.62999999999999L227.53176923076924,33.04L228.36942307692308,32.45L229.20707692307693,31.86000000000001L230.04473076923077,31.269999999999996L230.8823846153846,30.68L231.72003846153848,30.090000000000007L232.55769230769232,29.499999999999993L233.39534615384613,28.91L234.233,28.320000000000004L235.07065384615385,27.729999999999993L235.9083076923077,27.139999999999997L236.74596153846156,26.550000000000004L237.58361538461537,25.95999999999999L238.4212692307692,25.369999999999997L239.25892307692308,24.78L240.09657692307692,24.19000000000001L240.9342307692308,23.599999999999994L241.7718846153846,23.01L242.60953846153845,22.420000000000005L243.44719230769232,21.829999999999995L244.28484615384616,21.24L245.12249999999997,20.650000000000006L245.96015384615384,20.05999999999999L246.79780769230769,19.47L247.63546153846156,18.880000000000003L248.4731153846154,18.29000000000001L249.3107692307692,17.699999999999996L250.14842307692308,17.110000000000003L250.98607692307692,16.520000000000007L251.82373076923076,15.929999999999994L252.66138461538463,15.34L253.49903846153845,14.750000000000007L254.3366923076923,14.159999999999993L255.17434615384616,13.569999999999999L256.012,12.980000000000006L256.84965384615384,12.389999999999992L257.6873076923077,11.799999999999997L258.5249615384615,11.210000000000003L259.36261538461537,10.62000000000001L260.20026923076927,10.029999999999996L261.03792307692305,9.440000000000001L261.8755769230769,8.850000000000009L262.7132307692308,8.259999999999994L263.55088461538463,7.67L264.3885384615385,7.080000000000006L265.2261923076923,6.489999999999993L266.06384615384616,5.899999999999999L266.9015,5.310000000000005L267.73915384615384,4.719999999999991L268.5768076923077,4.129999999999997L269.4144615384615,3.540000000000003L270.25211538461537,2.950000000000009L271.0897692307692,2.3599999999999954L271.9274230769231,1.7700000000000016L272.76507692307695,1.1800000000000077L273.60273076923073,0.589999999999994" style="fill: none;" fill="none"></path></g></g></g></g></g><g><g><span fill="rgb(0, 0, 0)" stroke="none" stroke-width="1px">Alt + Scroll to Zoom</span></g></g></g><g transform="translate(40, 177)" clip-path="url(#clip_1)"><clipPath id="clip_1"><rect width="290" height="23"></rect></clipPath><g><g><line x1="0" y1="0" x2="0" y2="5" style="visibility: inherit;" fill="rgb(0, 0, 0)" stroke="rgb(204, 204, 204)" stroke-width="1px"></line><line x1="22.30769230769231" y1="0" x2="22.30769230769231" y2="5" style="visibility: inherit;" fill="rgb(0, 0, 0)" stroke="rgb(204, 204, 204)" stroke-width="1px"></line><line x1="44.61538461538462" y1="0" x2="44.61538461538462" y2="5" style="visibility: inherit;" fill="rgb(0, 0, 0)" stroke="rgb(204, 204, 204)" stroke-width="1px"></line><line x1="66.92307692307692" y1="0" x2="66.92307692307692" y2="5" style="visibility: inherit;" fill="rgb(0, 0, 0)" stroke="rgb(204, 204, 204)" stroke-width="1px"></line><line x1="89.23076923076924" y1="0" x2="89.23076923076924" y2="5" style="visibility: inherit;" fill="rgb(0, 0, 0)" stroke="rgb(204, 204, 204)" stroke-width="1px"></line><line x1="111.53846153846155" y1="0" x2="111.53846153846155" y2="5" style="visibility: inherit;" fill="rgb(0, 0, 0)" stroke="rgb(204, 204, 204)" stroke-width="1px"></line><line x1="133.84615384615384" y1="0" x2="133.84615384615384" y2="5" style="visibility: inherit;" fill="rgb(0, 0, 0)" stroke="rgb(204, 204, 204)" stroke-width="1px"></line><line x1="156.15384615384616" y1="0" x2="156.15384615384616" y2="5" style="visibility: inherit;" fill="rgb(0, 0, 0)" stroke="rgb(204, 204, 204)" stroke-width="1px"></line><line x1="178.46153846153848" y1="0" x2="178.46153846153848" y2="5" style="visibility: inherit;" fill="rgb(0, 0, 0)" stroke="rgb(204, 204, 204)" stroke-width="1px"></line><line x1="200.76923076923077" y1="0" x2="200.76923076923077" y2="5" style="visibility: inherit;" fill="rgb(0, 0, 0)" stroke="rgb(204, 204, 204)" stroke-width="1px"></line><line x1="223.0769230769231" y1="0" x2="223.0769230769231" y2="5" style="visibility: inherit;" fill="rgb(0, 0, 0)" stroke="rgb(204, 204, 204)" stroke-width="1px"></line><line x1="245.3846153846154" y1="0" x2="245.3846153846154" y2="5" style="visibility: inherit;" fill="rgb(0, 0, 0)" stroke="rgb(204, 204, 204)" stroke-width="1px"></line><line x1="267.6923076923077" y1="0" x2="267.6923076923077" y2="5" style="visibility: inherit;" fill="rgb(0, 0, 0)" stroke="rgb(204, 204, 204)" stroke-width="1px"></line><line x1="290" y1="0" x2="290" y2="5" style="visibility: inherit;" fill="rgb(0, 0, 0)" stroke="rgb(204, 204, 204)" stroke-width="1px"></line></g><g transform="translate(0, 8)"><text x="0" y="0" dx="0em" dy="0.95em" style="text-anchor: middle; visibility: hidden; font-family: Roboto, sans-serif; font-size: 12px; font-weight: 200;" fill="rgb(33, 33, 33)" stroke="none" stroke-width="1px">-20k</text><text x="22.30769230769231" y="0" dx="0em" dy="0.95em" style="text-anchor: middle; visibility: inherit; font-family: Roboto, sans-serif; font-size: 12px; font-weight: 200;" fill="rgb(33, 33, 33)" stroke="none" stroke-width="1px">0</text><text x="44.61538461538462" y="0" dx="0em" dy="0.95em" style="text-anchor: middle; visibility: hidden; font-family: Roboto, sans-serif; font-size: 12px; font-weight: 200;" fill="rgb(33, 33, 33)" stroke="none" stroke-width="1px">20k</text><text x="66.92307692307692" y="0" dx="0em" dy="0.95em" style="text-anchor: middle; visibility: inherit; font-family: Roboto, sans-serif; font-size: 12px; font-weight: 200;" fill="rgb(33, 33, 33)" stroke="none" stroke-width="1px">40k</text><text x="89.23076923076924" y="0" dx="0em" dy="0.95em" style="text-anchor: middle; visibility: hidden; font-family: Roboto, sans-serif; font-size: 12px; font-weight: 200;" fill="rgb(33, 33, 33)" stroke="none" stroke-width="1px">60k</text><text x="111.53846153846155" y="0" dx="0em" dy="0.95em" style="text-anchor: middle; visibility: inherit; font-family: Roboto, sans-serif; font-size: 12px; font-weight: 200;" fill="rgb(33, 33, 33)" stroke="none" stroke-width="1px">80k</text><text x="133.84615384615384" y="0" dx="0em" dy="0.95em" style="text-anchor: middle; visibility: hidden; font-family: Roboto, sans-serif; font-size: 12px; font-weight: 200;" fill="rgb(33, 33, 33)" stroke="none" stroke-width="1px">100k</text><text x="156.15384615384616" y="0" dx="0em" dy="0.95em" style="text-anchor: middle; visibility: inherit; font-family: Roboto, sans-serif; font-size: 12px; font-weight: 200;" fill="rgb(33, 33, 33)" stroke="none" stroke-width="1px">120k</text><text x="178.46153846153848" y="0" dx="0em" dy="0.95em" style="text-anchor: middle; visibility: hidden; font-family: Roboto, sans-serif; font-size: 12px; font-weight: 200;" fill="rgb(33, 33, 33)" stroke="none" stroke-width="1px">140k</text><text x="200.76923076923077" y="0" dx="0em" dy="0.95em" style="text-anchor: middle; visibility: inherit; font-family: Roboto, sans-serif; font-size: 12px; font-weight: 200;" fill="rgb(33, 33, 33)" stroke="none" stroke-width="1px">160k</text><text x="223.0769230769231" y="0" dx="0em" dy="0.95em" style="text-anchor: middle; visibility: hidden; font-family: Roboto, sans-serif; font-size: 12px; font-weight: 200;" fill="rgb(33, 33, 33)" stroke="none" stroke-width="1px">180k</text><text x="245.3846153846154" y="0" dx="0em" dy="0.95em" style="text-anchor: middle; visibility: inherit; font-family: Roboto, sans-serif; font-size: 12px; font-weight: 200;" fill="rgb(33, 33, 33)" stroke="none" stroke-width="1px">200k</text><text x="267.6923076923077" y="0" dx="0em" dy="0.95em" style="text-anchor: middle; visibility: hidden; font-family: Roboto, sans-serif; font-size: 12px; font-weight: 200;" fill="rgb(33, 33, 33)" stroke="none" stroke-width="1px">220k</text><text x="290" y="0" dx="0em" dy="0.95em" style="text-anchor: middle; visibility: hidden; font-family: Roboto, sans-serif; font-size: 12px; font-weight: 200;" fill="rgb(33, 33, 33)" stroke="none" stroke-width="1px">240k</text></g><line x1="0" y1="0" x2="290" y2="0" fill="rgb(0, 0, 0)" stroke="rgb(204, 204, 204)" stroke-width="1px"></line></g></g></g></g></svg>