<svg viewBox="0 0 330 200" xmlns="http://www.w3.org/2000/svg"><g><g><g><g><g><line x1="61.953125" y1="177" x2="56.953125" y2="177" style="visibility: inherit;" fill="rgb(0, 0, 0)" stroke="rgb(204, 204, 204)" stroke-width="1px"></line><line x1="61.953125" y1="159.3" x2="56.953125" y2="159.3" style="visibility: inherit;" fill="rgb(0, 0, 0)" stroke="rgb(204, 204, 204)" stroke-width="1px"></line><line x1="61.953125" y1="141.6" x2="56.953125" y2="141.6" style="visibility: inherit;" fill="rgb(0, 0, 0)" stroke="rgb(204, 204, 204)" stroke-width="1px"></line><line x1="61.953125" y1="123.89999999999999" x2="56.953125" y2="123.89999999999999" style="visibility: inherit;" fill="rgb(0, 0, 0)" stroke="rgb(204, 204, 204)" stroke-width="1px"></line><line x1="61.953125" y1="106.2" x2="56.953125" y2="106.2" style="visibility: inherit;" fill="rgb(0, 0, 0)" stroke="rgb(204, 204, 204)" stroke-width="1px"></line><line x1="61.953125" y1="88.5" x2="56.953125" y2="88.5" style="visibility: inherit;" fill="rgb(0, 0, 0)" stroke="rgb(204, 204, 204)" stroke-width="1px"></line><line x1="61.953125" y1="70.8" x2="56.953125" y2="70.8" style="visibility: inherit;" fill="rgb(0, 0, 0)" stroke="rgb(204, 204, 204)" stroke-width="1px"></line><line x1="61.953125" y1="53.10000000000001" x2="56.953125" y2="53.10000000000001" style="visibility: inherit;" fill="rgb(0, 0, 0)" stroke="rgb(204, 204, 204)" stroke-width="1px"></line><line x1="61.953125" y1="35.40000000000001" x2="56.953125" y2="35.40000000000001" style="visibility: inherit;" fill="rgb(0, 0, 0)" stroke="rgb(204, 204, 204)" stroke-width="1px"></line><line x1="61.953125" y1="17.699999999999996" x2="56.953125" y2="17.699999999999996" style="visibility: inherit;" fill="rgb(0, 0, 0)" stroke="rgb(204, 204, 204)" stroke-width="1px"></line><line x1="61.953125" y1="0" x2="56.953125" y2="0" style="visibility: inherit;" fill="rgb(0, 0, 0)" stroke="rgb(204, 204, 204)" stroke-width="1px"></line></g><g transform="translate(51.953125, 0)"><text x="0" y="177" dx="0em" dy="0.3em" style="text-anchor: end; visibility: hidden; font-family: Roboto, sans-serif; font-size: 12px; font-weight: 200;" fill="rgb(33, 33, 33)" stroke="none" stroke-width="1px">-0.05</text><text x="0" y="159.3" dx="0em" dy="0.3em" style="text-anchor: end; visibility: inherit; font-family: Roboto, sans-serif; font-size: 12px; font-weight: 200;" fill="rgb(33, 33, 33)" stroke="none" stroke-width="1px">0</text><text x="0" y="141.6" dx="0em" dy="0.3em" style="text-anchor: end; visibility: hidden; font-family: Roboto, sans-serif; font-size: 12px; font-weight: 200;" fill="rgb(33, 33, 33)" stroke="none" stroke-width="1px">0.05</text><text x="0" y="123.89999999999999" dx="0em" dy="0.3em" style="text-anchor: end; visibility: inherit; font-family: Roboto, sans-serif; font-size: 12px; font-weight: 200;" fill="rgb(33, 33, 33)" stroke="none" stroke-width="1px">0.1</text><text x="0" y="106.2" dx="0em" dy="0.3em" style="text-anchor: end; visibility: hidden; font-family: Roboto, sans-serif; font-size: 12px; font-weight: 200;" fill="rgb(33, 33, 33)" stroke="none" stroke-width="1px">0.15</text><text x="0" y="88.5" dx="0em" dy="0.3em" style="text-anchor: end; visibility: inherit; font-family: Roboto, sans-serif; font-size: 12px; font-weight: 200;" fill="rgb(33, 33, 33)" stroke="none" stroke-width="1px">0.2</text><text x="0" y="70.8" dx="0em" dy="0.3em" style="text-anchor: end; visibility: hidden; font-family: Roboto, sans-serif; font-size: 12px; font-weight: 200;" fill="rgb(33, 33, 33)" stroke="none" stroke-width="1px">0.25</text><text x="0" y="53.10000000000001" dx="0em" dy="0.3em" style="text-anchor: end; visibility: inherit; font-family: Roboto, sans-serif; font-size: 12px; font-weight: 200;" fill="rgb(33, 33, 33)" stroke="none" stroke-width="1px">0.3</text><text x="0" y="35.40000000000001" dx="0em" dy="0.3em" style="text-anchor: end; visibility: hidden; font-family: Roboto, sans-serif; font-size: 12px; font-weight: 200;" fill="rgb(33, 33, 33)" stroke="none" stroke-width="1px">0.35</text><text x="0" y="17.699999999999996" dx="0em" dy="0.3em" style="text-anchor: end; visibility: inherit; font-family: Roboto, sans-serif; font-size: 12px; font-weight: 200;" fill="rgb(33, 33, 33)" stroke="none" stroke-width="1px">0.4</text><text x="0" y="0" dx="0em" dy="0.3em" style="text-anchor: end; visibility: hidden; font-family: Roboto, sans-serif; font-size: 12px; font-weight: 200;" fill="rgb(33, 33, 33)" stroke="none" stroke-width="1px">0.45</text></g><line x1="61.953125" y1="0" x2="61.953125" y2="177" fill="rgb(0, 0, 0)" stroke="rgb(204, 204, 204)" stroke-width="1px"></line></g></g><g transform="translate(61, 0)" clip-path="url(#clip_0)"><clipPath id="clip_0"><rect width="268" height="177"></rect></clipPath><g><g><g><line x1="0" y1="0" x2="0" y2="177" fill="rgb(0, 0, 0)" stroke="rgb(66, 66, 66)" stroke-width="1px" opacity="0.25"></line><line x1="20.618990384615387" y1="0" x2="20.618990384615387" y2="177" fill="rgb(0, 0, 0)" stroke="rgb(66, 66, 66)" stroke-width="1px" opacity="0.25"></line><line x1="41.237980769230774" y1="0" x2="41.237980769230774" y2="177" fill="rgb(0, 0, 0)" stroke="rgb(66, 66, 66)" stroke-width="1px" opacity="0.25"></line><line x1="61.85697115384616" y1="0" x2="61.85697115384616" y2="177" fill="rgb(0, 0, 0)" stroke="rgb(66, 66, 66)" stroke-width="1px" opacity="0.25"></line><line x1="82.47596153846155" y1="0" x2="82.47596153846155" y2="177" fill="rgb(0, 0, 0)" stroke="rgb(66, 66, 66)" stroke-width="1px" opacity="0.25"></line><line x1="103.09495192307693" y1="0" x2="103.09495192307693" y2="177" fill="rgb(0, 0, 0)" stroke="rgb(66, 66, 66)" stroke-width="1px" opacity="0.25"></line><line x1="123.71394230769232" y1="0" x2="123.71394230769232" y2="177" fill="rgb(0, 0, 0)" stroke="rgb(66, 66, 66)" stroke-width="1px" opacity="0.25"></line><line x1="144.33293269230768" y1="0" x2="144.33293269230768" y2="177" fill="rgb(0, 0, 0)" stroke="rgb(66, 66, 66)" stroke-width="1px" opacity="0.25"></line><line x1="164.9519230769231" y1="0" x2="164.9519230769231" y2="177" fill="rgb(0, 0, 0)" stroke="rgb(66, 66, 66)" stroke-width="1px" opacity="0.25"></line><line x1="185.57091346153845" y1="0" x2="185.57091346153845" y2="177" fill="rgb(0, 0, 0)" stroke="rgb(66, 66, 66)" stroke-width="1px" opacity="0.25"></line><line x1="206.18990384615387" y1="0" x2="206.18990384615387" y2="177" fill="rgb(0, 0, 0)" stroke="rgb(66, 66, 66)" stroke-width="1px" opacity="0.25"></line><line x1="226.80889423076923" y1="0" x2="226.80889423076923" y2="177" fill="rgb(0, 0, 0)" stroke="rgb(66, 66, 66)" stroke-width="1px" opacity="0.25"></line><line x1="247.42788461538464" y1="0" x2="247.42788461538464" y2="177" fill="rgb(0, 0, 0)" stroke="rgb(66, 66, 66)" stroke-width="1px" opacity="0.25"></line><line x1="268.046875" y1="0" x2="268.046875" y2="177" fill="rgb(0, 0, 0)" stroke="rgb(66, 66, 66)" stroke-width="1px" opacity="0.25"></line></g><g><line x1="0" y1="177" x2="268.046875" y2="177" fill="rgb(0, 0, 0)" stroke="rgb(66, 66, 66)" stroke-width="1px" opacity="0.25"></line><line x1="0" y1="159.3" x2="268.046875" y2="159.3" fill="rgb(0, 0, 0)" stroke="rgb(66, 66, 66)" stroke-width="1px" opacity="0.25"></line><line x1="0" y1="141.6" x2="268.046875" y2="141.6" fill="rgb(0, 0, 0)" stroke="rgb(66, 66, 66)" stroke-width="1px" opacity="0.25"></line><line x1="0" y1="123.89999999999999" x2="268.046875" y2="123.89999999999999" fill="rgb(0, 0, 0)" stroke="rgb(66, 66, 66)" stroke-width="1px" opacity="0.25"></line><line x1="0" y1="106.2" x2="268.046875" y2="106.2" fill="rgb(0, 0, 0)" stroke="rgb(66, 66, 66)" stroke-width="1px" opacity="0.25"></line><line x1="0" y1="88.5" x2="268.046875" y2="88.5" fill="rgb(0, 0, 0)" stroke="rgb(66, 66, 66)" stroke-width="1px" opacity="0.25"></line><line x1="0" y1="70.8" x2="268.046875" y2="70.8" fill="rgb(0, 0, 0)" stroke="rgb(66, 66, 66)" stroke-width="1px" opacity="0.25"></line><line x1="0" y1="53.10000000000001" x2="268.046875" y2="53.10000000000001" fill="rgb(0, 0, 0)" stroke="rgb(66, 66, 66)" stroke-width="1px" opacity="0.25"></line><line x1="0" y1="35.40000000000001" x2="268.046875" y2="35.40000000000001" fill="rgb(0, 0, 0)" stroke="rgb(66, 66, 66)" stroke-width="1px" opacity="0.25"></line><line x1="0" y1="17.699999999999996" x2="268.046875" y2="17.699999999999996" fill="rgb(0, 0, 0)" stroke="rgb(66, 66, 66)" stroke-width="1px" opacity="0.25"></line><line x1="0" y1="0" x2="268.046875" y2="0" fill="rgb(0, 0, 0)" stroke="rgb(66, 66, 66)" stroke-width="1px" opacity="0.25"></line></g></g></g><g><g><line x1="0" y1="159.3" x2="268.046875" y2="159.3" fill="rgb(0, 0, 0)" stroke="rgb(153, 153, 153)" stroke-width="1.5px"></line></g></g><g><g><line x1="20.618990384615387" y1="0" x2="20.618990384615387" y2="177" fill="rgb(0, 0, 0)" stroke="rgb(153, 153, 153)" stroke-width="1.5px"></line></g></g><g><g><g><g><g><path stroke="rgb(255, 112, 67)" stroke-width="2px" d="M30.683119591346152,-14.025948652818993L31.45736268028846,1.2176225909306742L32.23160576923077,11.222921538315209L33.005848858173074,21.335204733038857L33.78009194711539,29.08976805373716L34.554335036057694,35.42279698504348L35.328578125,39.753411785885L36.102821213942306,45.20142042031583L36.87706430288461,49.957384243521545L37.65130739182692,51.289895935086214L38.42555048076923,50.49175127758415L39.19979356971154,53.336985239297924L39.974036658653844,58.426615618160284L40.74827974759615,61.22395952950222L41.52252283653846,62.6648098410565L42.29676592548077,66.27122509822502L43.07100901442308,69.69680319609257L43.84525210336539,70.96963705296207L44.619495192307696,72.33590389060873L45.39373828125,72.19863964399748L46.16798137019231,73.20944279777439L46.942224459134614,73.03365948618928L47.71646754807692,73.88690589953866L48.490710637019234,75.03273916406775L49.26495372596154,76.215115336126L50.039196814903846,77.45782144504047L50.81343990384615,77.7419681486098L51.58768299278846,79.2245181137238L52.361926081730765,79.85943174734459L53.13616917067308,79.41175164901377L53.910412259615384,79.90376853553649L54.68465534855769,81.68300385987705L55.4588984375,82.03356344057356L56.23314152644231,80.73626726710596L57.007384615384616,81.56518754392266L57.78162770432692,81.63441981214083L58.555870793269236,80.9833565505524L59.33011388221154,81.16669043732908L60.10435697115385,83.50357044956165L60.878600060096154,83.2627371813116L61.65284314903846,83.97528725774754L62.42708623798077,77.72759886449917L63.20132932692308,82.36157342831392L63.975572415865386,84.67821084404139L64.7498155048077,100.10757615652521L65.52405859375,113.03475362472018L66.29830168269231,121.80177332527877L67.07254477163461,127.91307442049676L67.84678786057692,132.0319984308512L68.62103094951922,135.14088223407458L69.39527403846154,136.80114382344362L70.16951712740384,138.22561426781343L70.94376021634615,139.30124248279768L71.71800330528846,140.22067417152905L72.49224639423076,140.8122386434566L73.26648948317307,141.40586366468017L74.04073257211537,141.66950548835604L74.81497566105769,141.8065958133221L75.58921874999999,142.24016099756244L76.3634618389423,142.46575880816746L77.13770492788463,142.63092605454426L77.91194801682693,142.22866561342894L78.68619110576924,141.9189779104568L79.46043419471154,141.89662996898755L80.23467728365385,141.93459822935262L81.00892037259617,142.11282637657163L81.78316346153846,142.37014011526966L82.55740655048078,142.4144351851038L83.33164963942308,141.87390792018724L84.10589272836539,141.73221138922304L84.88013581730769,141.7063738197561L85.65437890625,141.50684460463975L86.42862199519232,140.13770800031932L87.20286508413461,139.793860881911L87.97710817307693,140.21855787419454L88.75135126201923,139.7465486477803L89.52559435096154,140.32669573253338L90.29983743990384,140.87858509079186L91.07408052884615,143.44433155212144L91.84832361778847,145.72484041305387L92.62256670673077,147.37623605580333L93.39680979567308,148.49962022692682L94.17105288461538,149.2830948128743L94.94529597355769,149.9195046195056L95.71953906249999,150.32953198633587L96.4937821514423,150.62012356866595L97.26802524038462,150.88548353641747L98.04226832932692,150.90754026192138L98.81651141826923,151.0572567684514L99.59075450721153,151.3068358986415L100.36499759615384,151.39388855152353L101.13924068509615,151.4919681656541L101.91348377403845,151.5163904206861L102.68772686298077,151.5980100391453L103.46196995192307,151.78601633180054L104.2362130408654,151.9628075740866L105.0104561298077,151.96227909339262L105.78469921875,151.95669490643022L106.55894230769232,152.00145777015493L107.33318539663462,151.93236910342338L108.10742848557693,152.0761964469502L108.88167157451923,152.1398725506276L109.65591466346154,152.14114047536907L110.43015775240384,152.16067842334306L111.20440084134616,152.23360266172764L111.97864393028847,152.19922347714825L112.75288701923077,152.15865378707844L113.52713010817308,152.20935137915728L114.30137319711538,152.21819540290903L115.0756162860577,152.23611647861523L115.849859375,152.20729229853941L116.62410246394231,152.11000725898975L117.39834555288462,152.3952362133493L118.17258864182692,152.64696520497978L118.94683173076923,152.98251088190423L119.72107481971153,153.1790388192436L120.49531790865385,153.3052882528723L121.26956099759616,153.39000279435044L122.04380408653846,153.44758590715242L122.81804717548077,153.56391163383196L123.59229026442307,153.56142385699908L124.36653335336538,153.65487769751883L125.14077644230768,153.704182953889L125.91501953125,153.74392419651437L126.68926262019231,153.80557652887876L127.46350570913461,153.77634412066445L128.23774879807692,153.69113103131238L129.01199188701924,153.78938951286543L129.78623497596155,153.8124708340637L130.56047806490383,153.82616427770688L131.33472115384615,153.888336849549L132.10896424278846,153.84992868637357L132.88320733173077,153.87321302375386L133.6574504206731,153.86049655396454L134.4316935096154,153.880062782876L135.20593659855768,153.92484149701136L135.9801796875,153.9989063594743L136.7544227764423,154.0074690035882L137.52866586538462,154.05073291938916L138.30290895432694,154.09145483795652L139.07715204326922,154.1061438567868L139.85139513221154,154.05272901758138L140.62563822115385,154.06616772132867L141.39988131009616,154.10552613358348L142.17412439903848,154.11812023219852L142.94836748798076,154.1523640273356L143.72261057692307,154.14683157285114L144.4968536658654,154.20085160228646L145.2710967548077,154.1618284970107L146.04533984374999,154.2489523587872L146.8195829326923,154.0890193108171L147.5938260216346,154.092303935793L148.36806911057693,154.09144071108517L149.14231219951924,154.10862690026414L149.91655528846152,154.11175391682892L150.69079837740384,154.09007126798576L151.46504146634615,154.15466131141986L152.23928455528846,154.20473036808497L153.01352764423078,154.27137167509034L153.78777073317306,154.2985223573782L154.56201382211538,154.29395616426098L155.3362569110577,154.28596425175087L156.1105,154.23493125852596L156.88474308894232,154.1942389608422L157.6589861778846,154.10374378240104L158.4332292668269,154.10539067328568L159.20747235576923,154.14633292848228L159.98171544471154,154.2026886632702L160.75595853365382,154.2072188033558L161.53020162259614,154.21234216057638L162.30444471153845,154.18478814192642L163.07868780048076,154.23786780985014L163.85293088942308,154.23126381308924L164.62717397836536,154.33019604457076L165.40141706730768,154.2579486049572L166.17566015625,154.289179961971L166.9499032451923,154.27769296279047L167.72414633413462,154.32437443501053L168.4983894230769,154.29457526335892L169.27263251201921,154.31473716202245L170.04687560096153,154.28263920353572L170.82111868990384,154.24491643909644L171.59536177884615,154.19562538015265L172.36960486778844,154.26289229913007L173.14384795673075,154.15981830596L173.9180910456731,154.19721744068903L174.6923341346154,154.22626941164398L175.4665772235577,154.22454716092386L176.2408203125,154.2449293004038L177.01506340144232,154.26690851891414L177.78930649038463,154.31637335610017L178.56354957932695,154.3067288971938L179.33779266826923,154.17589637023195L180.11203575721154,154.18243372489204L180.88627884615386,154.17463229372615L181.66052193509617,154.23060680910655L182.43476502403848,154.23430620691008L183.20900811298077,154.20779839909568L183.98325120192308,154.19889431346354L184.7574942908654,154.26362708716925L185.5317373798077,154.1699654628893L186.30598046875,154.28498453364136L187.0802235576923,154.32680672282197L187.85446664663462,154.33318165957462L188.62870973557693,154.2256272686692L189.40295282451925,154.213377378772L190.17719591346153,154.23232917749306L190.95143900240384,154.24076682307373L191.72568209134616,154.20843749450475L192.49992518028847,154.208239355128L193.27416826923078,154.21402149450242L194.04841135817307,154.20126365722095L194.82265444711538,154.19154945865793L195.5968975360577,154.20488848346784L196.371140625,154.24572594096253L197.14538371394232,154.28260596516722L197.9196268028846,154.26349051444527L198.69386989182692,154.27844047754286L199.46811298076923,154.24025343900487L200.24235606971155,154.22223510739545L201.01659915865383,154.27700528784L201.79084224759615,154.27450253506544L202.56508533653846,154.26269970992234L203.33932842548077,154.12257221331612L204.11357151442309,154.12591148430357L204.88781460336537,154.1155675647512L205.66205769230768,154.13328286068767L206.43630078125,154.19674615342694L207.2105438701923,154.14128565477893L207.98478695913462,154.1849807345126L208.7590300480769,154.27067827959382L209.53327313701922,154.29656179684116L210.30751622596154,154.27850841738413L211.08175931490385,154.30871492077486L211.85600240384616,154.1775060290073L212.63024549278845,154.20990460449306L213.40448858173076,154.25737463107018L214.17873167067307,154.2724631301779L214.9529747596154,154.2741259391438L215.72721784855767,154.2174637973506L216.50146093749998,154.23970511959186L217.2757040264423,154.21511612150783L218.0499471153846,154.24799778693148L218.82419020432692,154.2589479809L219.5984332932692,154.23466772258246L220.37267638221152,154.22932503443934L221.14691947115384,154.21305493352997L221.92116256009615,154.23797343321553L222.69540564903846,154.23206845803804L223.46964873798075,154.1973847088739L224.24389182692306,154.17609496086985L225.01813491586537,154.1971490986356L225.7923780048077,154.25058220936114L226.56662109374997,154.28847083114536L227.3408641826923,154.2862082324204L228.1151072716346,154.244234406756L228.88935036057694,154.24353618520894L229.66359344951925,154.21909115939377L230.43783653846154,154.17908800202034L231.21207962740385,154.20932851885212L231.98632271634617,154.30556303772005L232.76056580528848,154.29891010649604L233.5348088942308,154.24749652580977L234.30905198317308,154.28287706441617L235.0832950721154,154.23816550741756L235.8575381610577,154.21558363837102L236.63178125000002,154.2593051801747L237.40602433894233,154.30281178835784L238.18026742788462,154.25807367344947L238.95451051682693,154.2285181300655L239.72875360576924,154.26817468251676L240.50299669471156,154.2436539964133L241.27723978365384,154.31333938799818L242.05148287259615,154.28403925381613L242.82572596153847,154.2290341566951L243.59996905048078,154.2583262096912L244.3742121394231,154.2882597374064L245.14845522836538,154.3013230612661L245.9226983173077,154.28915346612246L246.69694140625,154.30517517044967L247.47118449519232,154.33447347932952L248.24542758413463,154.32159732016262L249.01967067307692,154.31004882414544L249.79391376201923,154.3060684577191L250.56815685096154,154.21086945134783L251.34239993990386,154.17719747169843L252.11664302884617,154.23937347229736L252.89088611778845,154.31400017155062" style="fill: none;" fill="none"></path></g></g></g></g><g opacity="0.2"><g><g><g><path stroke="rgb(255, 112, 67)" stroke-width="2px" d="M29.13463341346154,-16.10599715709688L29.908876502403846,2.1587708473205605L30.683119591346152,12.328844475746159L31.45736268028846,24.05311571359635L32.23160576923077,26.219109106063847L33.005848858173074,36.49649755954743L33.78009194711539,40.71833156347275L34.554335036057694,44.920732426643376L35.328578125,46.24867426156998L36.102821213942306,53.372935402393345L36.87706430288461,57.09106914997101L37.65130739182692,53.288619625568394L38.42555048076923,49.294550049304966L39.19979356971154,57.604802477359776L39.974036658653844,66.06102501153946L40.74827974759615,65.41996346712112L41.52252283653846,64.82608162164688L42.29676592548077,71.68084244728088L43.07100901442308,74.83516718745231L43.84525210336539,72.87888713479042L44.619495192307696,74.38530369400978L45.39373828125,71.9927433013916L46.16798137019231,74.72564740777015L46.942224459134614,72.76998453140259L47.71646754807692,75.16677548289299L48.490710637019234,76.75148903131485L49.26495372596154,77.9886795759201L50.039196814903846,79.32188059687614L50.81343990384615,78.16818820238113L51.58768299278846,81.44834305644035L52.361926081730765,80.81180219650268L53.13616917067308,78.74023150205612L53.910412259615384,80.64179386496544L54.68465534855769,84.35185684561729L55.4588984375,82.55940281152725L56.23314152644231,78.79032300710678L57.007384615384616,82.8085679590702L57.78162770432692,81.73826821446418L58.555870793269236,80.00676165819168L59.33011388221154,81.44169126749038L60.10435697115385,87.00889046788215L60.878600060096154,82.90148727893829L61.65284314903846,85.04411237239837L62.42708623798077,68.35606627464294L63.20132932692308,89.31253527402878L63.975572415865386,88.15316696763038L64.7498155048077,123.25162412524223L65.52405859375,132.42551982700826L66.29830168269231,134.95230287611486L67.07254477163461,137.08002606332303L67.84678786057692,138.21038444638253L68.62103094951922,139.80420793890954L69.39527403846154,139.29153620749713L70.16951712740384,140.36231993436814L70.94376021634615,140.91468480527402L71.71800330528846,141.5998217046261L72.49224639423076,141.69958535134793L73.26648948317307,142.29630119651557L74.04073257211537,142.0649682238698L74.81497566105769,142.01223130077125L75.58921874999999,142.89050877392293L76.3634618389423,142.80415552407504L77.13770492788463,142.87867692410947L77.91194801682693,141.625274951756L78.68619110576924,141.45444635599853L79.46043419471154,141.8631080567837L80.23467728365385,141.99155061990024L81.00892037259617,142.3801685974002L81.78316346153846,142.75611072331668L82.55740655048078,142.48087778985501L83.33164963942308,141.06311702281238L84.10589272836539,141.5196665927768L84.88013581730769,141.66761746555568L85.65437890625,141.20755078196527L86.42862199519232,138.0840030938387L87.20286508413461,139.2780902042985L87.97710817307693,140.8556033626199L88.75135126201923,139.0385348081589L89.52559435096154,141.19691635966302L90.29983743990384,141.70641912817956L91.07408052884615,147.29295124411584L91.84832361778847,149.14560370445253L92.62256670673077,149.8533295199275L93.39680979567308,150.18469648361207L94.17105288461538,150.4583066917956L94.94529597355769,150.87411932945253L95.71953906249999,150.9445730365813L96.4937821514423,151.0560109421611L97.26802524038462,151.28352348804475L98.04226832932692,150.9406253501773L98.81651141826923,151.2818315282464L99.59075450721153,151.68120459392668L100.36499759615384,151.5244675308466L101.13924068509615,151.63908758684994L101.91348377403845,151.5530238032341L102.68772686298077,151.72043946683408L103.46196995192307,152.06802577078344L104.2362130408654,152.22799443751575L105.0104561298077,151.96148637235166L105.78469921875,151.9483186259866L106.55894230769232,152.06860206574203L107.33318539663462,151.8287361033261L108.10742848557693,152.29193746224047L108.88167157451923,152.23538670614363L109.65591466346154,152.14304236248137L110.43015775240384,152.18998534530402L111.20440084134616,152.34298901930453L111.97864393028847,152.14765470027925L112.75288701923077,152.09779925197364L113.52713010817308,152.28539776727558L114.30137319711538,152.23146143853666L115.0756162860577,152.26299809217454L115.849859375,152.1640560284257L116.62410246394231,151.96407969966532L117.39834555288462,152.82307964488865L118.17258864182692,153.0245586924255L118.94683173076923,153.48582939729096L119.72107481971153,153.47383072525264L120.49531790865385,153.49466240331532L121.26956099759616,153.51707460656763L122.04380408653846,153.53396057635547L122.81804717548077,153.73840022385122L123.59229026442307,153.55769219174982L124.36653335336538,153.79505845829846L125.14077644230768,153.77814083844424L125.91501953125,153.80353606045247L126.68926262019231,153.8980550274253L127.46350570913461,153.732495508343L128.23774879807692,153.56331139728428L129.01199188701924,153.93677723519505L129.78623497596155,153.84709281586112L130.56047806490383,153.84670444317163L131.33472115384615,153.98159570731224L132.10896424278846,153.79231644161047L132.88320733173077,153.90813952982427L133.6574504206731,153.8414218492806L134.4316935096154,153.90941212624313L135.20593659855768,153.99200956821443L135.9801796875,154.1100036531687L136.7544227764423,154.02031296975912L137.52866586538462,154.1156287930906L138.30290895432694,154.15253771580757L139.07715204326922,154.1281773850322L139.85139513221154,153.97260675877334L140.62563822115385,154.08632577694954L141.39988131009616,154.16456375196577L142.17412439903848,154.13701138012112L142.94836748798076,154.20372972004117L143.72261057692307,154.1385328911245L144.4968536658654,154.28188164643944L145.2710967548077,154.10329383909703L146.04533984374999,154.37963815145196L146.8195829326923,153.84911973886193L147.5938260216346,154.09723087325693L148.36806911057693,154.09014587402345L149.14231219951924,154.13440618403257L149.91655528846152,154.11644444167615L150.69079837740384,154.05754729472102L151.46504146634615,154.25154637657107L152.23928455528846,154.27983395308257L153.01352764423078,154.37133363559843L153.78777073317306,154.33924838081003L154.56201382211538,154.28710687458516L155.3362569110577,154.27397638298572L156.1105,154.15838176868857L156.88474308894232,154.13320051431657L157.6589861778846,153.9680010147393L158.4332292668269,154.1078610096127L159.20747235576923,154.20774631127716L159.98171544471154,154.28722226545216L160.75595853365382,154.21401401348413L161.53020162259614,154.22002719640733L162.30444471153845,154.14345711395146L163.07868780048076,154.31748731173576L163.85293088942308,154.22135781794788L164.62717397836536,154.47859439179302L165.40141706730768,154.14957744553686L166.17566015625,154.33602699749173L166.9499032451923,154.26046246401967L167.72414633413462,154.3943966433406L168.4983894230769,154.24987650588156L169.27263251201921,154.34498001001776L170.04687560096153,154.2344922658056L170.82111868990384,154.18833229243756L171.59536177884615,154.12168879173697L172.36960486778844,154.36379267759622L173.14384795673075,154.00520731620492L173.9180910456731,154.25331614278258L174.6923341346154,154.26984736807646L175.4665772235577,154.2219637848437L176.2408203125,154.27550250962378L177.01506340144232,154.29987734667958L177.78930649038463,154.39057061187924L178.56354957932695,154.2922622088343L179.33779266826923,153.97964757978917L180.11203575721154,154.1922397568822L180.88627884615386,154.16293014697732L181.66052193509617,154.31456858217717L182.43476502403848,154.23985530361534L183.20900811298077,154.16803668737413L183.98325120192308,154.18553818501533L184.7574942908654,154.36072624772788L185.5317373798077,154.02947302646936L186.30598046875,154.45751313976945L187.0802235576923,154.38954000659288L187.85446664663462,154.3427440647036L188.62870973557693,154.06429568231107L189.40295282451925,154.19500254392625L190.17719591346153,154.2607568755746L190.95143900240384,154.2534232914448L191.72568209134616,154.1599435016513L192.49992518028847,154.20794214606286L193.27416826923078,154.22269470356406L194.04841135817307,154.18212690129877L194.82265444711538,154.17697816081346L195.5968975360577,154.2248970206827L196.371140625,154.30698212720455L197.14538371394232,154.33792600147427L197.9196268028846,154.23481733836235L198.69386989182692,154.30086542218925L199.46811298076923,154.18297288119794L200.24235606971155,154.1952076099813L201.01659915865383,154.35916055850686L201.79084224759615,154.2707484059036L202.56508533653846,154.24499547220768L203.33932842548077,153.9123809684068L204.11357151442309,154.13092039078475L204.88781460336537,154.10005168542267L205.66205769230768,154.15985580459238L206.43630078125,154.29194109253586L207.2105438701923,154.05809490680696L207.98478695913462,154.2505233541131L208.7590300480769,154.39922459721566L209.53327313701922,154.3353870727122L210.30751622596154,154.25142834819854L211.08175931490385,154.354024675861L211.85600240384616,153.98069269135596L212.63024549278845,154.2585024677217L213.40448858173076,154.32857967093588L214.17873167067307,154.2950958788395L214.9529747596154,154.27662015259267L215.72721784855767,154.13247058466078L216.50146093749998,154.2730671029538L217.2757040264423,154.1782326243818L218.0499471153846,154.29732028506697L218.82419020432692,154.27537327185274L219.5984332932692,154.19824733510615L220.37267638221152,154.2213110022247L221.14691947115384,154.1886497821659L221.92116256009615,154.27535118274392L222.69540564903846,154.2232109952718L223.46964873798075,154.14535908512772L224.24389182692306,154.14416033886374L225.01813491586537,154.22873030528427L225.7923780048077,154.33073187544943L226.56662109374997,154.34530376382173L227.3408641826923,154.28281433433295L228.1151072716346,154.1812736682594L228.88935036057694,154.24248885288836L229.66359344951925,154.18242362067105L230.43783653846154,154.11908326596023L231.21207962740385,154.25468929409982L231.98632271634617,154.44991481602193L232.76056580528848,154.28893070966006L233.5348088942308,154.1703761547804L234.30905198317308,154.3359478723258L235.0832950721154,154.1710981719196L235.8575381610577,154.1817108348012L236.63178125000002,154.32488749288024L237.40602433894233,154.36807170063258L238.18026742788462,154.19096650108696L238.95451051682693,154.18418481498958L239.72875360576924,154.32765951119364L240.50299669471156,154.2068729672581L241.27723978365384,154.41786747537554L242.05148287259615,154.24008905254306L242.82572596153847,154.14652651101352L243.59996905048078,154.30226428918542L244.3742121394231,154.3331600289792L245.14845522836538,154.3209180470556L245.9226983173077,154.27089907340707L246.69694140625,154.32920772694052L247.47118449519232,154.37842094264926L248.24542758413463,154.30228308141233L249.01967067307692,154.29272608011962L249.79391376201923,154.30009790807964L250.56815685096154,154.06807094179095L251.34239993990386,154.12668950222434L252.11664302884617,154.3326374731958L252.89088611778845,154.4259402204305" style="fill: none;" fill="none"></path></g></g></g></g></g></g><g transform="translate(61, 177)" clip-path="url(#clip_1)"><clipPath id="clip_1"><rect width="268" height="23"></rect></clipPath><g><g><line x1="0" y1="0" x2="0" y2="5" style="visibility: inherit;" fill="rgb(0, 0, 0)" stroke="rgb(204, 204, 204)" stroke-width="1px"></line><line x1="20.618990384615387" y1="0" x2="20.618990384615387" y2="5" style="visibility: inherit;" fill="rgb(0, 0, 0)" stroke="rgb(204, 204, 204)" stroke-width="1px"></line><line x1="41.237980769230774" y1="0" x2="41.237980769230774" y2="5" style="visibility: inherit;" fill="rgb(0, 0, 0)" stroke="rgb(204, 204, 204)" stroke-width="1px"></line><line x1="61.85697115384616" y1="0" x2="61.85697115384616" y2="5" style="visibility: inherit;" fill="rgb(0, 0, 0)" stroke="rgb(204, 204, 204)" stroke-width="1px"></line><line x1="82.47596153846155" y1="0" x2="82.47596153846155" y2="5" style="visibility: inherit;" fill="rgb(0, 0, 0)" stroke="rgb(204, 204, 204)" stroke-width="1px"></line><line x1="103.09495192307693" y1="0" x2="103.09495192307693" y2="5" style="visibility: inherit;" fill="rgb(0, 0, 0)" stroke="rgb(204, 204, 204)" stroke-width="1px"></line><line x1="123.71394230769232" y1="0" x2="123.71394230769232" y2="5" style="visibility: inherit;" fill="rgb(0, 0, 0)" stroke="rgb(204, 204, 204)" stroke-width="1px"></line><line x1="144.33293269230768" y1="0" x2="144.33293269230768" y2="5" style="visibility: inherit;" fill="rgb(0, 0, 0)" stroke="rgb(204, 204, 204)" stroke-width="1px"></line><line x1="164.9519230769231" y1="0" x2="164.9519230769231" y2="5" style="visibility: inherit;" fill="rgb(0, 0, 0)" stroke="rgb(204, 204, 204)" stroke-width="1px"></line><line x1="185.57091346153845" y1="0" x2="185.57091346153845" y2="5" style="visibility: inherit;" fill="rgb(0, 0, 0)" stroke="rgb(204, 204, 204)" stroke-width="1px"></line><line x1="206.18990384615387" y1="0" x2="206.18990384615387" y2="5" style="visibility: inherit;" fill="rgb(0, 0, 0)" stroke="rgb(204, 204, 204)" stroke-width="1px"></line><line x1="226.80889423076923" y1="0" x2="226.80889423076923" y2="5" style="visibility: inherit;" fill="rgb(0, 0, 0)" stroke="rgb(204, 204, 204)" stroke-width="1px"></line><line x1="247.42788461538464" y1="0" x2="247.42788461538464" y2="5" style="visibility: inherit;" fill="rgb(0, 0, 0)" stroke="rgb(204, 204, 204)" stroke-width="1px"></line><line x1="268.046875" y1="0" x2="268.046875" y2="5" style="visibility: inherit;" fill="rgb(0, 0, 0)" stroke="rgb(204, 204, 204)" stroke-width="1px"></line></g><g transform="translate(0, 8)"><text x="0" y="0" dx="0em" dy="0.95em" style="text-anchor: middle; visibility: hidden; font-family: Roboto, sans-serif; font-size: 12px; font-weight: 200;" fill="rgb(33, 33, 33)" stroke="none" stroke-width="1px">-20k</text><text x="20.618990384615387" y="0" dx="0em" dy="0.95em" style="text-anchor: middle; visibility: inherit; font-family: Roboto, sans-serif; font-size: 12px; font-weight: 200;" fill="rgb(33, 33, 33)" stroke="none" stroke-width="1px">0</text><text x="41.237980769230774" y="0" dx="0em" dy="0.95em" style="text-anchor: middle; visibility: hidden; font-family: Roboto, sans-serif; font-size: 12px; font-weight: 200;" fill="rgb(33, 33, 33)" stroke="none" stroke-width="1px">20k</text><text x="61.85697115384616" y="0" dx="0em" dy="0.95em" style="text-anchor: middle; visibility: inherit; font-family: Roboto, sans-serif; font-size: 12px; font-weight: 200;" fill="rgb(33, 33, 33)" stroke="none" stroke-width="1px">40k</text><text x="82.47596153846155" y="0" dx="0em" dy="0.95em" style="text-anchor: middle; visibility: hidden; font-family: Roboto, sans-serif; font-size: 12px; font-weight: 200;" fill="rgb(33, 33, 33)" stroke="none" stroke-width="1px">60k</text><text x="103.09495192307693" y="0" dx="0em" dy="0.95em" style="text-anchor: middle; visibility: inherit; font-family: Roboto, sans-serif; font-size: 12px; font-weight: 200;" fill="rgb(33, 33, 33)" stroke="none" stroke-width="1px">80k</text><text x="123.71394230769232" y="0" dx="0em" dy="0.95em" style="text-anchor: middle; visibility: hidden; font-family: Roboto, sans-serif; font-size: 12px; font-weight: 200;" fill="rgb(33, 33, 33)" stroke="none" stroke-width="1px">100k</text><text x="144.33293269230768" y="0" dx="0em" dy="0.95em" style="text-anchor: middle; visibility: inherit; font-family: Roboto, sans-serif; font-size: 12px; font-weight: 200;" fill="rgb(33, 33, 33)" stroke="none" stroke-width="1px">120k</text><text x="164.9519230769231" y="0" dx="0em" dy="0.95em" style="text-anchor: middle; visibility: hidden; font-family: Roboto, sans-serif; font-size: 12px; font-weight: 200;" fill="rgb(33, 33, 33)" stroke="none" stroke-width="1px">140k</text><text x="185.57091346153845" y="0" dx="0em" dy="0.95em" style="text-anchor: middle; visibility: inherit; font-family: Roboto, sans-serif; font-size: 12px; font-weight: 200;" fill="rgb(33, 33, 33)" stroke="none" stroke-width="1px">160k</text><text x="206.18990384615387" y="0" dx="0em" dy="0.95em" style="text-anchor: middle; visibility: hidden; font-family: Roboto, sans-serif; font-size: 12px; font-weight: 200;" fill="rgb(33, 33, 33)" stroke="none" stroke-width="1px">180k</text><text x="226.80889423076923" y="0" dx="0em" dy="0.95em" style="text-anchor: middle; visibility: inherit; font-family: Roboto, sans-serif; font-size: 12px; font-weight: 200;" fill="rgb(33, 33, 33)" stroke="none" stroke-width="1px">200k</text><text x="247.42788461538464" y="0" dx="0em" dy="0.95em" style="text-anchor: middle; visibility: hidden; font-family: Roboto, sans-serif; font-size: 12px; font-weight: 200;" fill="rgb(33, 33, 33)" stroke="none" stroke-width="1px">220k</text><text x="268.046875" y="0" dx="0em" dy="0.95em" style="text-anchor: middle; visibility: hidden; font-family: Roboto, sans-serif; font-size: 12px; font-weight: 200;" fill="rgb(33, 33, 33)" stroke="none" stroke-width="1px">240k</text></g><line x1="0" y1="0" x2="268.046875" y2="0" fill="rgb(0, 0, 0)" stroke="rgb(204, 204, 204)" stroke-width="1px"></line></g></g></g></g></svg>