<svg class="main-svg" xmlns="http://www.w3.org/2000/svg" xmlns:xlink="http://www.w3.org/1999/xlink" width="700" height="450" style="" viewBox="0 0 700 450"><rect x="0" y="0" width="700" height="450" style="fill: rgb(255, 255, 255); fill-opacity: 1;"/><defs id="defs-57d30c"><g class="clips"><clipPath id="clip57d30cxyplot" class="plotclip"><rect width="356" height="270"/></clipPath><clipPath class="axesclip" id="clip57d30cx"><rect x="80" y="0" width="356" height="450"/></clipPath><clipPath class="axesclip" id="clip57d30cy"><rect x="0" y="100" width="700" height="270"/></clipPath><clipPath class="axesclip" id="clip57d30cxy"><rect x="80" y="100" width="356" height="270"/></clipPath></g><g class="gradients"/></defs><g class="bglayer"/><g class="layer-below"><g class="imagelayer"/><g class="shapelayer"/></g><g class="cartesianlayer"><g class="subplot xy"><g class="layer-subplot"><g class="shapelayer"/><g class="imagelayer"/></g><g class="gridlayer"><g class="x"><path class="xgrid crisp" transform="translate(151.92000000000002,0)" d="M0,100v270" style="stroke: rgb(238, 238, 238); stroke-opacity: 1; stroke-width: 1px;"/><path class="xgrid crisp" transform="translate(223.84,0)" d="M0,100v270" style="stroke: rgb(238, 238, 238); stroke-opacity: 1; stroke-width: 1px;"/><path class="xgrid crisp" transform="translate(295.76,0)" d="M0,100v270" style="stroke: rgb(238, 238, 238); stroke-opacity: 1; stroke-width: 1px;"/><path class="xgrid crisp" transform="translate(367.68,0)" d="M0,100v270" style="stroke: rgb(238, 238, 238); stroke-opacity: 1; stroke-width: 1px;"/></g><g class="y"><path class="ygrid crisp" transform="translate(0,307.65)" d="M80,0h356" style="stroke: rgb(238, 238, 238); stroke-opacity: 1; stroke-width: 1px;"/><path class="ygrid crisp" transform="translate(0,258.78999999999996)" d="M80,0h356" style="stroke: rgb(238, 238, 238); stroke-opacity: 1; stroke-width: 1px;"/><path class="ygrid crisp" transform="translate(0,209.94)" d="M80,0h356" style="stroke: rgb(238, 238, 238); stroke-opacity: 1; stroke-width: 1px;"/><path class="ygrid crisp" transform="translate(0,161.09)" d="M80,0h356" style="stroke: rgb(238, 238, 238); stroke-opacity: 1; stroke-width: 1px;"/><path class="ygrid crisp" transform="translate(0,112.23)" d="M80,0h356" style="stroke: rgb(238, 238, 238); stroke-opacity: 1; stroke-width: 1px;"/></g></g><g class="zerolinelayer"><path class="yzl zl crisp" transform="translate(0,356.5)" d="M80,0h356" style="stroke: rgb(68, 68, 68); stroke-opacity: 1; stroke-width: 1px;"/></g><path class="xlines-below"/><path class="ylines-below"/><g class="overlines-below"/><g class="xaxislayer-below"/><g class="yaxislayer-below"/><g class="overaxes-below"/><g class="plot" transform="translate(80,100)" clip-path="url('#clip57d30cxyplot')"><g class="scatterlayer mlayer"><g class="trace scatter traced76c7b" style="stroke-miterlimit: 2; opacity: 1;"><g class="fills"/><g class="errorbars"/><g class="lines"><path class="js-line" d="M0,256.43L3.6,252.62L7.19,244.69L10.79,229.93L14.38,223.51L17.98,215.03L21.58,212.78L25.17,211.18L28.77,202.63L32.36,205.8L35.96,195.35L39.56,208.81L43.15,191.26L46.75,195.46L50.34,195.36L57.54,202.89L61.13,199.32L64.73,189.44L68.32,193.03L71.92,190.48L75.52,192.29L79.11,193.89L82.71,200.09L86.3,182.29L89.9,188.54L93.49,190.34L97.09,195.68L100.69,182.85L104.28,191.57L107.88,184.3L111.47,191.38L115.07,186.09L118.67,186.74L122.26,190.91L125.86,190.77L129.45,186.8L133.05,184.54L136.65,189.27L140.24,186.83L143.84,187.03L147.43,178.94L151.03,182.89L154.63,178.15L158.22,186.2L161.82,190.24L165.41,184.38L169.01,183.78L172.61,192.6L176.2,181.98L179.8,189.59L183.39,180.26L186.99,201.32L190.59,183.87L194.18,181.51L197.78,184.04L201.37,181.98L204.97,183.7L208.57,178.52L212.16,190.18L215.76,181.83L219.35,181.54L222.95,185.83L226.55,186.05L230.14,176.9L233.74,182.11L237.33,182.72L240.93,185.96L244.53,187.01L248.12,175.65L251.72,184.13L255.31,181.58L258.91,183.22L262.51,178.72L266.1,180.59L269.7,189.11L273.29,180.02L276.89,181L280.48,183.99L284.08,180.14L291.27,182.04L294.87,185.13L302.06,176.95L305.66,177.09L309.25,184.33L312.85,186.39L316.44,176.77L320.04,188.45L323.64,181.29L327.23,176.18L330.83,180.82L334.42,191.57L338.02,177.19L341.62,176.81L345.21,179.16L348.81,175.58L352.4,179.94L356,176.19" style="vector-effect: non-scaling-stroke; fill: none; stroke: rgb(156, 39, 176); stroke-opacity: 1; stroke-width: 2px; opacity: 1;"/></g><g class="points"/><g class="text"/></g><g class="trace scatter trace791c33" style="stroke-miterlimit: 2; opacity: 1;"><g class="fills"/><g class="errorbars"/><g class="lines"><path class="js-line" d="M0,256.5L3.6,252.53L7.19,244.58L10.79,230.8L14.38,226.03L17.98,217.03L21.58,216.76L25.17,211.73L28.77,205.1L32.36,202.98L35.96,192.65L39.56,205.37L43.15,191.59L46.75,196.1L50.34,192.92L57.54,202.72L61.13,202.72L64.73,186.29L68.32,192.12L71.92,187.62L75.52,192.39L79.11,193.18L82.71,194.77L86.3,179.94L89.9,186.56L93.49,188.68L97.09,194.77L100.69,184.44L104.28,188.15L107.88,187.09L111.47,189.47L115.07,183.11L118.67,185.76L122.26,190.53L125.86,190.8L129.45,187.88L133.05,182.85L136.65,188.68L140.24,187.35L143.84,183.91L147.43,177.55L151.03,186.03L154.63,177.55L158.22,181.26L161.82,188.94L169.01,178.61L172.61,192.39L176.2,180.73L179.8,185.76L183.39,176.23L186.99,199.28L190.59,180.47L194.18,177.55L201.37,182.58L204.97,181.52L208.57,178.88L212.16,191.33L215.76,185.23L219.35,180.99L222.95,187.35L226.55,185.5L230.14,174.9L233.74,182.85L237.33,182.05L240.93,186.82L244.53,183.11L248.12,171.19L251.72,180.47L255.31,180.99L258.91,183.11L262.51,175.96L266.1,178.61L269.7,186.56L273.29,178.35L276.89,185.5L280.48,182.58L284.08,181.26L287.68,179.67L291.27,180.47L294.87,182.05L298.46,175.7L302.06,172.25L305.66,174.37L309.25,180.47L312.85,183.11L316.44,172.25L320.04,186.56L327.23,174.11L330.83,178.88L334.42,188.68L338.02,175.96L341.62,177.29L345.21,176.76L348.81,173.84L352.4,173.58L356,173.84" style="vector-effect: non-scaling-stroke; fill: none; stroke: rgb(33, 150, 243); stroke-opacity: 1; stroke-width: 2px; opacity: 1;"/></g><g class="points"/><g class="text"/></g><g class="trace scatter trace510340" style="stroke-miterlimit: 2; opacity: 1;"><g class="fills"/><g class="errorbars"/><g class="lines"><path class="js-line" d="M0,250.88L3.6,236.19L7.19,209.91L10.79,170.51L14.38,142.02L17.98,130.78L21.58,132.22L25.17,104.38L28.77,91.28L32.36,81.48L35.96,59.85L39.56,82.66L43.15,43.58L46.75,51.91L50.34,50.88L53.94,50.79L57.54,75.45L61.13,65.38L64.73,32.89L68.32,39.22L71.92,35.28L75.52,36.54L79.11,42.55L82.71,60.56L86.3,26.39L89.9,29.13L93.49,37.69L97.09,47.23L100.69,22.56L104.28,32.66L107.88,26.66L111.47,35.01L115.07,22.53L118.67,30.39L122.26,32.01L125.86,26.63L129.45,26.57L133.05,22.21L136.65,27.16L140.24,26.45L143.84,24.92L147.43,16.59L151.03,16.56L154.63,15.68L158.22,22.83L161.82,24.68L165.41,22.53L169.01,20.09L172.61,28.54L176.2,17.12L179.8,23.48L183.39,17.24L186.99,48.08L190.59,19.44L194.18,17.71L197.78,26.57L201.37,23.54L204.97,21.71L208.57,18.36L212.16,29.54L215.76,19.62L219.35,16.5L222.95,19.3L226.55,25.3L230.14,16.68L233.74,17.8L237.33,16.94L240.93,26.07L244.53,20.36L248.12,14.5L251.72,21.8L262.51,16.44L266.1,16.91L269.7,23.8L273.29,17.65L280.48,20.12L284.08,17.09L287.68,16.06L291.27,19.8L294.87,20.09L298.46,15.56L302.06,13.5L305.66,15.15L309.25,16.5L312.85,20.09L316.44,15.5L320.04,22.83L323.64,15.71L327.23,15.8L330.83,17.86L334.42,32.89L338.02,15.47L341.62,15.82L345.21,16.83L348.81,14.15L352.4,17.27L356,13.65" style="vector-effect: non-scaling-stroke; fill: none; stroke: rgb(0, 150, 136); stroke-opacity: 1; stroke-width: 2px; opacity: 1;"/></g><g class="points"/><g class="text"/></g><g class="trace scatter traceb9f477" style="stroke-miterlimit: 2; opacity: 1;"><g class="fills"/><g class="errorbars"/><g class="lines"><path class="js-line" d="M0,256.28L3.6,252.3L7.19,245.46L10.79,230.22L14.38,223.59L17.98,214.1L21.58,209.68L25.17,209.46L28.77,201.51L32.36,209.9L35.96,199.3L39.56,210.78L43.15,192.01L46.75,196.87L50.34,199.74L57.54,203.05L61.13,199.52L64.73,190.24L68.32,193.78L71.92,191.79L75.52,192.23L79.11,195.54L82.71,202.83L86.3,186.93L89.9,189.8L93.49,193.34L97.09,198.86L100.69,188.26L104.28,192.23L107.88,186.05L111.47,193.56L115.07,189.14L118.67,189.58L122.26,191.57L125.86,191.79L129.45,191.35L133.05,188.92L136.65,187.81L140.24,188.03L143.84,190.46L147.43,182.73L151.03,180.08L154.63,178.98L158.22,191.79L161.82,190.91L165.41,185.61L169.01,186.93L172.61,192.01L176.2,184.5L179.8,189.14L183.39,183.62L186.99,199.96L190.59,186.05L194.18,185.83L197.78,189.14L201.37,184.28L204.97,184.72L208.57,178.76L212.16,191.35L215.76,181.41L219.35,183.62L222.95,187.59L226.55,188.26L230.14,177.88L233.74,186.49L237.33,184.94L240.93,188.03L244.53,189.36L248.12,179.2L251.72,189.36L255.31,185.83L258.91,185.61L262.51,182.51L266.1,183.84L269.7,192.45L273.29,184.72L276.89,181.19L280.48,184.06L284.08,180.08L287.68,180.75L291.27,184.5L294.87,188.7L298.46,184.06L302.06,182.29L305.66,178.98L309.25,186.27L312.85,189.58L316.44,183.84L320.04,190.69L327.23,177.21L330.83,184.28L334.42,193.78L338.02,182.07L341.62,180.53L345.21,181.19L348.81,175.45L352.4,187.15L356,180.97" style="vector-effect: non-scaling-stroke; fill: none; stroke: rgb(205, 220, 57); stroke-opacity: 1; stroke-width: 2px; opacity: 1;"/></g><g class="points"/><g class="text"/></g><g class="trace scatter trace65b1f0" style="stroke-miterlimit: 2; opacity: 1;"><g class="fills"/><g class="errorbars"/><g class="lines"><path class="js-line" d="M0,256.5L3.6,253.03L7.19,244.02L10.79,228.77L14.38,220.91L17.98,213.98L21.58,211.9L25.17,212.36L28.77,201.27L32.36,204.5L35.96,194.1L39.56,210.28L43.15,190.18L46.75,193.41L50.34,193.41L53.94,197.11L57.54,202.89L61.13,195.72L64.73,191.79L68.32,193.18L71.92,192.03L79.11,192.95L82.71,202.66L86.3,180.01L89.9,189.25L93.49,189.02L97.09,193.41L100.69,175.85L104.28,194.34L107.88,179.78L111.47,191.1L115.07,186.02L118.67,184.86L122.26,190.64L125.86,189.71L129.45,181.16L133.05,181.86L136.65,191.33L140.24,185.09L143.84,186.71L147.43,176.54L151.03,182.55L154.63,177.93L158.22,185.55L161.82,190.87L165.41,184.17L169.01,185.79L172.61,193.41L176.2,180.7L179.8,193.87L183.39,180.93L186.99,204.74L190.59,185.09L194.18,181.16L197.78,182.78L201.37,179.08L204.97,184.86L208.57,177.93L212.16,187.87L215.76,178.85L219.35,180.01L226.55,184.4L230.14,177.93L233.74,177L237.33,181.16L240.93,183.01L244.53,188.56L248.12,176.54L251.72,182.55L255.31,177.93L258.91,180.93L262.51,177.7L266.1,179.31L269.7,188.33L273.29,177L276.89,176.31L280.48,185.32L284.08,179.08L287.68,182.55L291.27,181.16L294.87,184.63L298.46,181.63L302.06,176.31L305.66,177.93L309.25,186.25L312.85,186.48L316.44,174.23L320.04,188.1L323.64,180.24L327.23,177.24L330.83,179.31L334.42,192.26L338.02,173.54L341.62,172.61L345.21,179.55L348.81,177.47L352.4,179.08L356,173.77" style="vector-effect: non-scaling-stroke; fill: none; stroke: rgb(76, 175, 80); stroke-opacity: 1; stroke-width: 2px; opacity: 1;"/></g><g class="points"/><g class="text"/></g></g></g><g class="overplot"/><path class="xlines-above crisp" d="M79,370.5H436" style="fill: none; stroke-width: 1px; stroke: rgb(68, 68, 68); stroke-opacity: 1;"/><path class="ylines-above crisp" d="M79.5,100V370" style="fill: none; stroke-width: 1px; stroke: rgb(68, 68, 68); stroke-opacity: 1;"/><g class="overlines-above"/><g class="xaxislayer-above"><path class="xtick ticks crisp" d="M0,371v5" transform="translate(80,0)" style="stroke: rgb(68, 68, 68); stroke-opacity: 1; stroke-width: 1px;"/><path class="xtick ticks crisp" d="M0,371v5" transform="translate(151.92000000000002,0)" style="stroke: rgb(68, 68, 68); stroke-opacity: 1; stroke-width: 1px;"/><path class="xtick ticks crisp" d="M0,371v5" transform="translate(223.84,0)" style="stroke: rgb(68, 68, 68); stroke-opacity: 1; stroke-width: 1px;"/><path class="xtick ticks crisp" d="M0,371v5" transform="translate(295.76,0)" style="stroke: rgb(68, 68, 68); stroke-opacity: 1; stroke-width: 1px;"/><path class="xtick ticks crisp" d="M0,371v5" transform="translate(367.68,0)" style="stroke: rgb(68, 68, 68); stroke-opacity: 1; stroke-width: 1px;"/><g class="xtick"><text text-anchor="middle" x="0" y="390.4" transform="translate(80,0)" style="font-family: 'Open Sans', verdana, arial, sans-serif; font-size: 12px; fill: rgb(68, 68, 68); fill-opacity: 1; white-space: pre;">0</text></g><g class="xtick"><text text-anchor="middle" x="0" y="390.4" transform="translate(151.92000000000002,0)" style="font-family: 'Open Sans', verdana, arial, sans-serif; font-size: 12px; fill: rgb(68, 68, 68); fill-opacity: 1; white-space: pre;">20</text></g><g class="xtick"><text text-anchor="middle" x="0" y="390.4" transform="translate(223.84,0)" style="font-family: 'Open Sans', verdana, arial, sans-serif; font-size: 12px; fill: rgb(68, 68, 68); fill-opacity: 1; white-space: pre;">40</text></g><g class="xtick"><text text-anchor="middle" x="0" y="390.4" transform="translate(295.76,0)" style="font-family: 'Open Sans', verdana, arial, sans-serif; font-size: 12px; fill: rgb(68, 68, 68); fill-opacity: 1; white-space: pre;">60</text></g><g class="xtick"><text text-anchor="middle" x="0" y="390.4" transform="translate(367.68,0)" style="font-family: 'Open Sans', verdana, arial, sans-serif; font-size: 12px; fill: rgb(68, 68, 68); fill-opacity: 1; white-space: pre;">80</text></g></g><g class="yaxislayer-above"><path class="ytick ticks crisp" d="M79,0h-5" transform="translate(0,356.5)" style="stroke: rgb(68, 68, 68); stroke-opacity: 1; stroke-width: 1px;"/><path class="ytick ticks crisp" d="M79,0h-5" transform="translate(0,307.65)" style="stroke: rgb(68, 68, 68); stroke-opacity: 1; stroke-width: 1px;"/><path class="ytick ticks crisp" d="M79,0h-5" transform="translate(0,258.78999999999996)" style="stroke: rgb(68, 68, 68); stroke-opacity: 1; stroke-width: 1px;"/><path class="ytick ticks crisp" d="M79,0h-5" transform="translate(0,209.94)" style="stroke: rgb(68, 68, 68); stroke-opacity: 1; stroke-width: 1px;"/><path class="ytick ticks crisp" d="M79,0h-5" transform="translate(0,161.09)" style="stroke: rgb(68, 68, 68); stroke-opacity: 1; stroke-width: 1px;"/><path class="ytick ticks crisp" d="M79,0h-5" transform="translate(0,112.23)" style="stroke: rgb(68, 68, 68); stroke-opacity: 1; stroke-width: 1px;"/><g class="ytick"><text text-anchor="end" x="71.6" y="4.199999999999999" transform="translate(0,356.5)" style="font-family: 'Open Sans', verdana, arial, sans-serif; font-size: 12px; fill: rgb(68, 68, 68); fill-opacity: 1; white-space: pre;">0</text></g><g class="ytick"><text text-anchor="end" x="71.6" y="4.199999999999999" transform="translate(0,307.65)" style="font-family: 'Open Sans', verdana, arial, sans-serif; font-size: 12px; fill: rgb(68, 68, 68); fill-opacity: 1; white-space: pre;">0.2</text></g><g class="ytick"><text text-anchor="end" x="71.6" y="4.199999999999999" transform="translate(0,258.78999999999996)" style="font-family: 'Open Sans', verdana, arial, sans-serif; font-size: 12px; fill: rgb(68, 68, 68); fill-opacity: 1; white-space: pre;">0.4</text></g><g class="ytick"><text text-anchor="end" x="71.6" y="4.199999999999999" transform="translate(0,209.94)" style="font-family: 'Open Sans', verdana, arial, sans-serif; font-size: 12px; fill: rgb(68, 68, 68); fill-opacity: 1; white-space: pre;">0.6</text></g><g class="ytick"><text text-anchor="end" x="71.6" y="4.199999999999999" transform="translate(0,161.09)" style="font-family: 'Open Sans', verdana, arial, sans-serif; font-size: 12px; fill: rgb(68, 68, 68); fill-opacity: 1; white-space: pre;">0.8</text></g><g class="ytick"><text text-anchor="end" x="71.6" y="4.199999999999999" transform="translate(0,112.23)" style="font-family: 'Open Sans', verdana, arial, sans-serif; font-size: 12px; fill: rgb(68, 68, 68); fill-opacity: 1; white-space: pre;">1</text></g></g><g class="overaxes-above"/></g></g><g class="polarlayer"/><g class="ternarylayer"/><g class="geolayer"/><g class="funnelarealayer"/><g class="pielayer"/><g class="treemaplayer"/><g class="sunburstlayer"/><g class="glimages"/><defs id="topdefs-57d30c"><g class="clips"/><clipPath id="legend57d30c"><rect width="245" height="105" x="0" y="0"/></clipPath></defs><g class="layer-above"><g class="imagelayer"/><g class="shapelayer"/></g><g class="infolayer"><g class="legend" pointer-events="all" transform="translate(443.12,100)"><rect class="bg" shape-rendering="crispEdges" style="stroke: rgb(68, 68, 68); stroke-opacity: 1; fill: rgb(255, 255, 255); fill-opacity: 1; stroke-width: 0px;" width="245" height="105" x="0" y="0"/><g class="scrollbox" transform="" clip-path="url('#legend57d30c')"><g class="groups"><g class="traces" transform="translate(0,14.5)" style="opacity: 1;"><text class="legendtext" text-anchor="start" x="40" y="4.680000000000001" style="font-family: 'Open Sans', verdana, arial, sans-serif; font-size: 12px; fill: rgb(68, 68, 68); fill-opacity: 1; white-space: pre;">exp4/board/Accuracy_Validation</text><g class="layers" style="opacity: 1;"><g class="legendfill"/><g class="legendlines"><path class="js-line" d="M5,0h30" style="fill: none; stroke: rgb(156, 39, 176); stroke-opacity: 1; stroke-width: 2px;"/></g><g class="legendsymbols"><g class="legendpoints"/></g></g><rect class="legendtoggle" x="0" y="-9.5" width="239.71875" height="19" style="fill: rgb(0, 0, 0); fill-opacity: 0;"/></g><g class="traces" transform="translate(0,33.5)" style="opacity: 1;"><text class="legendtext" text-anchor="start" x="40" y="4.680000000000001" style="font-family: 'Open Sans', verdana, arial, sans-serif; font-size: 12px; fill: rgb(68, 68, 68); fill-opacity: 1; white-space: pre;">exp4/board/Accuracy_2014</text><g class="layers" style="opacity: 1;"><g class="legendfill"/><g class="legendlines"><path class="js-line" d="M5,0h30" style="fill: none; stroke: rgb(33, 150, 243); stroke-opacity: 1; stroke-width: 2px;"/></g><g class="legendsymbols"><g class="legendpoints"/></g></g><rect class="legendtoggle" x="0" y="-9.5" width="239.71875" height="19" style="fill: rgb(0, 0, 0); fill-opacity: 0;"/></g><g class="traces" transform="translate(0,52.5)" style="opacity: 1;"><text class="legendtext" text-anchor="start" x="40" y="4.680000000000001" style="font-family: 'Open Sans', verdana, arial, sans-serif; font-size: 12px; fill: rgb(68, 68, 68); fill-opacity: 1; white-space: pre;">exp4/board/Accuracy_Training</text><g class="layers" style="opacity: 1;"><g class="legendfill"/><g class="legendlines"><path class="js-line" d="M5,0h30" style="fill: none; stroke: rgb(0, 150, 136); stroke-opacity: 1; stroke-width: 2px;"/></g><g class="legendsymbols"><g class="legendpoints"/></g></g><rect class="legendtoggle" x="0" y="-9.5" width="239.71875" height="19" style="fill: rgb(0, 0, 0); fill-opacity: 0;"/></g><g class="traces" transform="translate(0,71.5)" style="opacity: 1;"><text class="legendtext" text-anchor="start" x="40" y="4.680000000000001" style="font-family: 'Open Sans', verdana, arial, sans-serif; font-size: 12px; fill: rgb(68, 68, 68); fill-opacity: 1; white-space: pre;">exp4/board/Accuracy_2016</text><g class="layers" style="opacity: 1;"><g class="legendfill"/><g class="legendlines"><path class="js-line" d="M5,0h30" style="fill: none; stroke: rgb(205, 220, 57); stroke-opacity: 1; stroke-width: 2px;"/></g><g class="legendsymbols"><g class="legendpoints"/></g></g><rect class="legendtoggle" x="0" y="-9.5" width="239.71875" height="19" style="fill: rgb(0, 0, 0); fill-opacity: 0;"/></g><g class="traces" transform="translate(0,90.5)" style="opacity: 1;"><text class="legendtext" text-anchor="start" x="40" y="4.680000000000001" style="font-family: 'Open Sans', verdana, arial, sans-serif; font-size: 12px; fill: rgb(68, 68, 68); fill-opacity: 1; white-space: pre;">exp4/board/Accuracy_2019</text><g class="layers" style="opacity: 1;"><g class="legendfill"/><g class="legendlines"><path class="js-line" d="M5,0h30" style="fill: none; stroke: rgb(76, 175, 80); stroke-opacity: 1; stroke-width: 2px;"/></g><g class="legendsymbols"><g class="legendpoints"/></g></g><rect class="legendtoggle" x="0" y="-9.5" width="239.71875" height="19" style="fill: rgb(0, 0, 0); fill-opacity: 0;"/></g></g></g><rect class="scrollbar" rx="20" ry="3" width="0" height="0" style="fill: rgb(128, 139, 164); fill-opacity: 1;" x="0" y="0"/></g><g class="g-gtitle"><text class="gtitle" x="350" y="50" text-anchor="middle" dy="0em" style="font-family: 'Open Sans', verdana, arial, sans-serif; font-size: 17px; fill: rgb(68, 68, 68); opacity: 1; font-weight: normal; white-space: pre;">Accuracy</text></g><g class="g-xtitle"/><g class="g-ytitle"/></g></svg>