<svg viewBox="0 0 330 200" xmlns="http://www.w3.org/2000/svg"><g><g><g><g><g><line x1="41.171875" y1="177" x2="36.171875" y2="177" style="visibility: inherit;" fill="rgb(0, 0, 0)" stroke="rgb(204, 204, 204)" stroke-width="1px"></line><line x1="41.171875" y1="154.875" x2="36.171875" y2="154.875" style="visibility: inherit;" fill="rgb(0, 0, 0)" stroke="rgb(204, 204, 204)" stroke-width="1px"></line><line x1="41.171875" y1="132.75" x2="36.171875" y2="132.75" style="visibility: inherit;" fill="rgb(0, 0, 0)" stroke="rgb(204, 204, 204)" stroke-width="1px"></line><line x1="41.171875" y1="110.625" x2="36.171875" y2="110.625" style="visibility: inherit;" fill="rgb(0, 0, 0)" stroke="rgb(204, 204, 204)" stroke-width="1px"></line><line x1="41.171875" y1="88.5" x2="36.171875" y2="88.5" style="visibility: inherit;" fill="rgb(0, 0, 0)" stroke="rgb(204, 204, 204)" stroke-width="1px"></line><line x1="41.171875" y1="66.375" x2="36.171875" y2="66.375" style="visibility: inherit;" fill="rgb(0, 0, 0)" stroke="rgb(204, 204, 204)" stroke-width="1px"></line><line x1="41.171875" y1="44.25000000000002" x2="36.171875" y2="44.25000000000002" style="visibility: inherit;" fill="rgb(0, 0, 0)" stroke="rgb(204, 204, 204)" stroke-width="1px"></line><line x1="41.171875" y1="22.12500000000002" x2="36.171875" y2="22.12500000000002" style="visibility: inherit;" fill="rgb(0, 0, 0)" stroke="rgb(204, 204, 204)" stroke-width="1px"></line><line x1="41.171875" y1="0" x2="36.171875" y2="0" style="visibility: inherit;" fill="rgb(0, 0, 0)" stroke="rgb(204, 204, 204)" stroke-width="1px"></line></g><g transform="translate(31.171875, 0)"><text x="0" y="177" dx="0em" dy="0.3em" style="text-anchor: end; visibility: hidden; font-family: Roboto, sans-serif; font-size: 12px; font-weight: 200;" fill="rgb(33, 33, 33)" stroke="none" stroke-width="1px">0</text><text x="0" y="154.875" dx="0em" dy="0.3em" style="text-anchor: end; visibility: inherit; font-family: Roboto, sans-serif; font-size: 12px; font-weight: 200;" fill="rgb(33, 33, 33)" stroke="none" stroke-width="1px">0.2</text><text x="0" y="132.75" dx="0em" dy="0.3em" style="text-anchor: end; visibility: hidden; font-family: Roboto, sans-serif; font-size: 12px; font-weight: 200;" fill="rgb(33, 33, 33)" stroke="none" stroke-width="1px">0.4</text><text x="0" y="110.625" dx="0em" dy="0.3em" style="text-anchor: end; visibility: inherit; font-family: Roboto, sans-serif; font-size: 12px; font-weight: 200;" fill="rgb(33, 33, 33)" stroke="none" stroke-width="1px">0.6</text><text x="0" y="88.5" dx="0em" dy="0.3em" style="text-anchor: end; visibility: hidden; font-family: Roboto, sans-serif; font-size: 12px; font-weight: 200;" fill="rgb(33, 33, 33)" stroke="none" stroke-width="1px">0.8</text><text x="0" y="66.375" dx="0em" dy="0.3em" style="text-anchor: end; visibility: inherit; font-family: Roboto, sans-serif; font-size: 12px; font-weight: 200;" fill="rgb(33, 33, 33)" stroke="none" stroke-width="1px">1</text><text x="0" y="44.25000000000002" dx="0em" dy="0.3em" style="text-anchor: end; visibility: hidden; font-family: Roboto, sans-serif; font-size: 12px; font-weight: 200;" fill="rgb(33, 33, 33)" stroke="none" stroke-width="1px">1.2</text><text x="0" y="22.12500000000002" dx="0em" dy="0.3em" style="text-anchor: end; visibility: inherit; font-family: Roboto, sans-serif; font-size: 12px; font-weight: 200;" fill="rgb(33, 33, 33)" stroke="none" stroke-width="1px">1.4</text><text x="0" y="0" dx="0em" dy="0.3em" style="text-anchor: end; visibility: hidden; font-family: Roboto, sans-serif; font-size: 12px; font-weight: 200;" fill="rgb(33, 33, 33)" stroke="none" stroke-width="1px">1.6</text></g><line x1="41.171875" y1="0" x2="41.171875" y2="177" fill="rgb(0, 0, 0)" stroke="rgb(204, 204, 204)" stroke-width="1px"></line></g></g><g transform="translate(41, 0)" clip-path="url(#clip_0)"><clipPath id="clip_0"><rect width="288" height="177"></rect></clipPath><g><g><g><line x1="0" y1="0" x2="0" y2="177" fill="rgb(0, 0, 0)" stroke="rgb(66, 66, 66)" stroke-width="1px" opacity="0.25"></line><line x1="32.092013888888886" y1="0" x2="32.092013888888886" y2="177" fill="rgb(0, 0, 0)" stroke="rgb(66, 66, 66)" stroke-width="1px" opacity="0.25"></line><line x1="64.18402777777777" y1="0" x2="64.18402777777777" y2="177" fill="rgb(0, 0, 0)" stroke="rgb(66, 66, 66)" stroke-width="1px" opacity="0.25"></line><line x1="96.27604166666666" y1="0" x2="96.27604166666666" y2="177" fill="rgb(0, 0, 0)" stroke="rgb(66, 66, 66)" stroke-width="1px" opacity="0.25"></line><line x1="128.36805555555554" y1="0" x2="128.36805555555554" y2="177" fill="rgb(0, 0, 0)" stroke="rgb(66, 66, 66)" stroke-width="1px" opacity="0.25"></line><line x1="160.46006944444446" y1="0" x2="160.46006944444446" y2="177" fill="rgb(0, 0, 0)" stroke="rgb(66, 66, 66)" stroke-width="1px" opacity="0.25"></line><line x1="192.55208333333331" y1="0" x2="192.55208333333331" y2="177" fill="rgb(0, 0, 0)" stroke="rgb(66, 66, 66)" stroke-width="1px" opacity="0.25"></line><line x1="224.64409722222223" y1="0" x2="224.64409722222223" y2="177" fill="rgb(0, 0, 0)" stroke="rgb(66, 66, 66)" stroke-width="1px" opacity="0.25"></line><line x1="256.7361111111111" y1="0" x2="256.7361111111111" y2="177" fill="rgb(0, 0, 0)" stroke="rgb(66, 66, 66)" stroke-width="1px" opacity="0.25"></line><line x1="288.828125" y1="0" x2="288.828125" y2="177" fill="rgb(0, 0, 0)" stroke="rgb(66, 66, 66)" stroke-width="1px" opacity="0.25"></line></g><g><line x1="0" y1="177" x2="288.828125" y2="177" fill="rgb(0, 0, 0)" stroke="rgb(66, 66, 66)" stroke-width="1px" opacity="0.25"></line><line x1="0" y1="154.875" x2="288.828125" y2="154.875" fill="rgb(0, 0, 0)" stroke="rgb(66, 66, 66)" stroke-width="1px" opacity="0.25"></line><line x1="0" y1="132.75" x2="288.828125" y2="132.75" fill="rgb(0, 0, 0)" stroke="rgb(66, 66, 66)" stroke-width="1px" opacity="0.25"></line><line x1="0" y1="110.625" x2="288.828125" y2="110.625" fill="rgb(0, 0, 0)" stroke="rgb(66, 66, 66)" stroke-width="1px" opacity="0.25"></line><line x1="0" y1="88.5" x2="288.828125" y2="88.5" fill="rgb(0, 0, 0)" stroke="rgb(66, 66, 66)" stroke-width="1px" opacity="0.25"></line><line x1="0" y1="66.375" x2="288.828125" y2="66.375" fill="rgb(0, 0, 0)" stroke="rgb(66, 66, 66)" stroke-width="1px" opacity="0.25"></line><line x1="0" y1="44.25000000000002" x2="288.828125" y2="44.25000000000002" fill="rgb(0, 0, 0)" stroke="rgb(66, 66, 66)" stroke-width="1px" opacity="0.25"></line><line x1="0" y1="22.12500000000002" x2="288.828125" y2="22.12500000000002" fill="rgb(0, 0, 0)" stroke="rgb(66, 66, 66)" stroke-width="1px" opacity="0.25"></line><line x1="0" y1="0" x2="288.828125" y2="0" fill="rgb(0, 0, 0)" stroke="rgb(66, 66, 66)" stroke-width="1px" opacity="0.25"></line></g></g></g><g><g><line x1="0" y1="177" x2="288.828125" y2="177" fill="rgb(0, 0, 0)" stroke="rgb(153, 153, 153)" stroke-width="1.5px"></line></g></g><g><g><line x1="32.092013888888886" y1="0" x2="32.092013888888886" y2="177" fill="rgb(0, 0, 0)" stroke="rgb(153, 153, 153)" stroke-width="1.5px"></line></g></g><g><g><g><g><g><path stroke="rgb(0, 153, 136)" stroke-width="2px" d="M42.024492187499995,-4.785881593948528L42.85246614583333,0.6092905930512529L43.680440104166664,6.108815418033364L44.508414062499995,10.87692463353881L45.33638802083333,15.656969149306278L46.164361979166664,19.62126747944473L46.9923359375,23.908041246120945L47.82030989583333,27.583231231741298L48.648283854166664,31.518168092267693L49.4762578125,35.298052511051736L50.30423177083333,39.574295664664135L51.132205729166664,43.50293145608657L51.9601796875,47.60322346469537L52.78815364583333,51.45080776456418L53.61612760416667,54.98102488965691L54.4441015625,58.83618785639543L55.27207552083333,62.15279128195447L56.10004947916667,65.35189842760568L56.9280234375,69.26591793448438L57.75599739583333,73.49454900237792L58.58397135416667,78.47461675172339L59.411945312499995,82.7625860984215L60.23991927083333,86.9170216627164L61.067893229166664,90.59677934757057L61.895867187499995,94.0044114590168L62.72384114583333,96.72561373907435L63.551815104166664,99.53360492794158L64.3797890625,93.88651404200589L65.20776302083334,95.05390677857643L66.03573697916667,97.52623973692016L66.8637109375,100.79582155745346L67.69168489583333,103.9303664961634L68.51965885416666,106.34318382478897L69.3476328125,107.66481991982576L70.17560677083333,109.9562634193903L71.00358072916666,111.76810352296492L71.8315546875,112.81546828922511L72.65952864583333,114.03229880797645L73.48750260416666,115.49853810053928L74.3154765625,117.24518226911594L75.14345052083333,118.47944523591144L75.97142447916667,119.62580434202363L76.7993984375,120.21904676985332L77.62737239583333,120.70417988497998L78.45534635416666,121.30912291228188L79.28332031250001,122.49980917703783L80.11129427083333,123.04562630731873L80.93926822916667,124.07069855468886L81.7672421875,125.16471422634974L82.59521614583333,126.10878448887146L83.42319010416666,126.82718784632372L84.25116406250001,126.80216427309564L85.07913802083333,127.61147215165647L85.90711197916667,127.97600988118622L86.7350859375,128.21308296363813L87.56305989583332,128.8376606371478L88.39103385416666,129.4115191275761L89.2190078125,130.1751184761456L90.04698177083334,129.9335584178526L90.87495572916666,130.6253420001244L91.7029296875,131.18466260200591L92.53090364583333,131.79423376271635L93.35887760416666,132.6519609159202L94.1868515625,132.81313717907491L95.01482552083334,132.82122143236293L95.84279947916666,133.2858498610705L96.6707734375,133.33373177156744L97.49874739583333,133.8115700847262L98.32672135416666,134.68303310521566L99.1546953125,135.0507359170802L99.98266927083334,135.69514012419506L100.81064322916666,136.12953468610837L101.6386171875,136.1429342922568L102.46659114583333,136.0910486115217L103.29456510416668,136.46859604765174L104.1225390625,136.92381602018594L104.95051302083334,137.31570300900648L105.77848697916667,137.6371541645748L106.60646093749999,137.48053954998392L107.43443489583333,137.50694521492562L108.26240885416667,138.39166997358706L109.0903828125,138.86748382589522L109.91835677083333,139.45816977108302L110.74633072916667,139.18242983540762L111.57430468749999,139.4846630798034L112.40227864583333,139.8019954491408L113.23025260416667,140.33282034717507L114.0582265625,140.76184786780183L114.88620052083333,140.85466952874364L115.71417447916667,140.94240558000865L116.5421484375,140.76607612432517L117.37012239583333,141.22231109834598L118.19809635416667,141.50427450625233L119.02607031250001,142.20148247711737L119.85404427083333,142.07712862779428L120.68201822916667,142.26182926827508L121.5099921875,142.21327969958685L122.33796614583333,142.42954215425434L123.16594010416667,142.91115737121214L123.99391406250001,143.51397251582688L124.82188802083333,143.85521829722254L125.64986197916666,143.88393337188916L126.4778359375,143.8127189437077L127.30580989583332,143.97652015742813L128.13378385416667,144.41437312905285L128.9617578125,144.53291358467513L129.78973177083333,145.30999918232305L130.61770572916666,145.1334878054258L131.4456796875,145.73786121886948L132.27365364583335,145.5168079303621L133.10162760416665,145.87530718099586L133.9296015625,145.22674235762068L134.75757552083334,145.8473025623614L135.58554947916667,146.27158171913948L136.4135234375,146.85830874730306L137.24149739583333,146.58250391625856L138.06947135416667,146.97971040394006L138.8974453125,146.98426558754502L139.72541927083333,146.89651511419808L140.55339322916666,147.3431327584922L141.3813671875,147.43633167854188L142.20934114583335,147.44373147881768L143.03731510416668,147.49003780303445L143.86528906249998,148.10613171260385L144.69326302083334,147.55400756896037L145.52123697916667,148.36754961178002L146.3492109375,148.77654703402698L147.1771848958333,149.2258615900229L148.00515885416667,148.85030394251052L148.8331328125,149.49958860698285L149.66110677083333,148.93204293592538L150.48908072916666,149.35554088246087L151.31705468750002,149.34070442075287L152.14502864583335,149.08221407654736L152.97300260416665,149.40356348483476L153.80097656249998,149.93454947339723L154.62895052083334,150.6257025697364L155.45692447916667,150.57174464157424L156.2848984375,150.49335002879025L157.11287239583334,150.5712960763557L157.94084635416664,150.72183174438973L158.7688203125,150.90727280406773L159.59679427083333,150.52769831987393L160.42476822916666,150.75891387937767L161.25274218750002,150.16942068474472L162.08071614583335,150.5485504048287L162.90869010416668,150.44278205050344L163.73666406249998,151.2298203028042L164.5646380208333,151.41316188897483L165.39261197916667,151.7201449850249L166.2205859375,152.38500901633785L167.04855989583334,152.53671799793415L167.87653385416667,151.55430435132726L168.7045078125,151.66004855255332L169.53248177083333,151.60415454176095L170.36045572916666,151.71667461971657L171.1884296875,151.5008203253461L172.01640364583335,151.68508848490197L172.84437760416668,151.7671616833918L173.67235156249998,152.27805610814764L174.50032552083331,152.88049912419365L175.32829947916667,152.71813061962393L176.1562734375,152.51668036433975L176.98424739583334,152.1159115304227L177.81222135416667,152.05251125140043L178.64019531250003,152.51951778690847L179.46816927083333,152.80185347205895L180.29614322916666,152.71007326040566L181.1241171875,152.54703027259646L181.95209114583332,152.7797590918919L182.78006510416668,152.79371726677303L183.6080390625,153.28928625905803L184.43601302083331,153.2839270789879L185.26398697916665,153.25643992629395L186.0919609375,153.6788714145526L186.91993489583334,153.8902086847964L187.74790885416667,154.22425897845287L188.5758828125,154.31277979495323L189.40385677083336,153.57966968913195L190.23183072916666,152.94647249206494L191.0598046875,153.31717374175543L191.88777864583332,153.7529726453111L192.71575260416668,154.17260143473658L193.5437265625,153.39849983194418L194.37170052083334,154.1011535304126L195.19967447916665,154.53621153398376L196.0276484375,154.56378753402245L196.85562239583334,154.8145093376542L197.68359635416667,154.5550048257473L198.5115703125,154.45698502394933L199.33954427083336,154.78003844683394L200.16751822916666,155.04940931835787L200.9954921875,155.04259941928993L201.82346614583332,154.99284309344534L202.65144010416665,155.42443210004L203.4794140625,154.99546735506192L204.30738802083334,154.96456912991962L205.13536197916667,155.17392122276163L205.96333593749998,154.39667279438697L206.79130989583334,154.580566438535L207.61928385416667,155.04373163059302L208.4472578125,155.35725289553372L209.27523177083333,155.00929661151747L210.1032057291667,154.8308356921791L210.9311796875,154.76944007700197L211.75915364583332,154.19728337586233L212.58712760416665,154.89130643373912L213.4151015625,154.91541835511435L214.24307552083334,155.46691658106275L215.07104947916667,155.57626768950718L215.8990234375,155.9417469084507L216.7269973958333,155.61679572345292L217.55497135416667,155.36112611953305L218.3829453125,155.81967839055588L219.21091927083333,155.84243080513676L220.0388932291667,155.7781413279295L220.86686718750002,155.86458144753098L221.69484114583332,158.20546601664375L222.52281510416665,160.3674296622059L223.35078906249998,161.9159278391052L224.17876302083334,162.91775299307696L225.00673697916667,163.67168988255852L225.8347109375,164.14927151444968L226.6626848958333,164.5481145993973L227.49065885416667,164.7821193939361L228.3186328125,164.99575722737092L229.14660677083333,165.19344611069846L229.97458072916666,165.26724129826596L230.80255468750002,165.4003555314885L231.63052864583335,165.4915561139373L232.45850260416665,165.61831168478952L233.28647656249998,165.65224670147137L234.11445052083334,165.67738983869694L234.94242447916668,165.68011966699447L235.7703984375,165.75005346188894L236.59837239583334,165.8595872899142L237.42634635416664,165.95941251137836L238.2543203125,165.9852706353753L239.08229427083333,165.96184537810916L239.91026822916666,165.97211593726476L240.7382421875,165.88081881680608L241.56621614583335,165.904851847312L242.39419010416668,165.95647302175826L243.22216406249998,165.99129417668442L244.05013802083332,166.00392587262786L244.87811197916668,166.06051402891217L245.7060859375,166.034225307283L246.53405989583334,166.1632359623177L247.36203385416667,166.22471149224123L248.1900078125,166.2005949338262L249.01798177083333,166.22032784081904L249.84595572916666,166.2127710396493L250.6739296875,166.28284803416994L251.50190364583335,166.4947248604844L252.32987760416668,166.74750171978474L253.15785156249999,166.90525453875483L253.98582552083332,167.0460981832595L254.81379947916665,167.18240300046807L255.6417734375,167.29644060531203L256.46974739583334,167.37974859006073L257.2977213541667,167.43707224005084L258.1256953125,167.4345420119829L258.9536692708333,167.46868426867826L259.78164322916666,167.49536413412392L260.6096171875,167.4891530474192L261.4375911458333,167.51143022180594L262.2655651041667,167.47243775569495L263.0935390625,167.49853605638802L263.92151302083334,167.47995658843732L264.74948697916665,167.48238085175464L265.5774609375,167.5053630595798L266.4054348958333,167.55194745773937L267.23340885416667,167.55532313884714L268.0613828125,167.55112733133984L268.88935677083333,167.56885500960558L269.71733072916663,167.65242062263496L270.5453046875,167.6991836536843L271.37327864583335,167.68030936920155L272.20125260416665,167.73641361648447L273.0292265625,167.7241832389212L273.8572005208334,167.71102041110555L274.6851744791667,167.73372173483764L275.5131484375,167.66776766844447L276.34112239583334,167.74399391989624L277.16909635416664,167.77499458674023L277.9970703125,167.75111796026485L278.82504427083336,167.77988519819115L279.65301822916666,167.7565678480359L280.48099218749996,167.73622731368792" style="fill: none;" fill="none"></path></g></g></g></g><g opacity="0.2"><g><g><g><path stroke="rgb(0, 153, 136)" stroke-width="2px" d="M41.196518229166664,-0.07700461149215698L42.024492187499995,4.078385353088379L42.85246614583333,8.684432700276375L43.680440104166664,14.347328513860703L44.508414062499995,18.023483723402023L45.33638802083333,22.823664665222168L46.164361979166664,25.56603741645813L46.9923359375,30.337113484740257L47.82030989583333,33.09545633196831L48.648283854166664,37.42021371424198L49.4762578125,40.96767184138298L50.30423177083333,45.98851968348026L51.132205729166664,49.39580757915974L51.9601796875,53.75361290574074L52.78815364583333,57.22215686738491L53.61612760416667,60.27633552253246L54.4441015625,64.6189224421978L55.27207552083333,67.12769132852554L56.10004947916667,70.1505561992526L56.9280234375,75.13694503158331L57.75599739583333,79.83749420195818L58.58397135416667,85.94471738487482L59.411945312499995,89.1945396065712L60.23991927083333,93.14867471158504L61.067893229166664,96.1164157167077L61.895867187499995,99.11585953831673L62.72384114583333,100.80741711705923L63.551815104166664,103.7455916851759L64.3797890625,85.41587774455547L65.20776302083334,96.8049958795309L66.03573697916667,101.23473916947842L66.8637109375,105.70019428431988L67.69168489583333,108.63218390196562L68.51965885416666,109.96240981668234L69.3476328125,109.64727406203747L70.17560677083333,113.39342866837978L71.00358072916666,114.48586367815733L71.8315546875,114.38651543855667L72.65952864583333,115.85754458606243L73.48750260416666,117.69789703935385L74.3154765625,119.86514852195978L75.14345052083333,120.33083968609571L75.97142447916667,121.34534300118685L76.7993984375,121.1089104115963L77.62737239583333,121.43187955766916L78.45534635416666,122.2165374532342L79.28332031250001,124.28583857417107L80.11129427083333,123.8643520027399L80.93926822916667,125.60830692574382L81.7672421875,126.80573773384094L82.59521614583333,127.52488988265395L83.42319010416666,127.90479288250208L84.25116406250001,126.76462891325355L85.07913802083333,128.82543396949768L85.90711197916667,128.5228164754808L86.7350859375,128.56869258731604L87.56305989583332,129.7745271474123L88.39103385416666,130.27230686321855L89.2190078125,131.32051749899983L90.04698177083334,129.5712183304131L90.87495572916666,131.66301737353206L91.7029296875,132.02364350482821L92.53090364583333,132.70859050378203L93.35887760416666,133.93855164572597L94.1868515625,133.054901573807L95.01482552083334,132.83334781229496L95.84279947916666,133.9827925041318L96.6707734375,133.4055546373129L97.49874739583333,134.52832755446434L98.32672135416666,135.99022763594985L99.1546953125,135.60229013487697L99.98266927083334,136.66174643486738L100.81064322916666,136.78112652897835L101.6386171875,136.16303370147943L102.46659114583333,136.01322009041905L103.29456510416668,137.03491720184684L104.1225390625,137.60664597898722L104.95051302083334,137.90353349223733L105.77848697916667,138.11933089792728L106.60646093749999,137.24561762809753L107.43443489583333,137.5465537123382L108.26240885416667,139.71875711157918L109.0903828125,139.58120460435748L109.91835677083333,140.3441986888647L110.74633072916667,138.76881993189454L111.57430468749999,139.93801294639707L112.40227864583333,140.2779940031469L113.23025260416667,141.1290576942265L114.0582265625,141.40538914874196L114.88620052083333,140.99390202015638L115.71417447916667,141.07400965690613L116.5421484375,140.50158194079995L117.37012239583333,141.9066635593772L118.19809635416667,141.92721961811185L119.02607031250001,143.24729443341494L119.85404427083333,141.8905978538096L120.68201822916667,142.53888022899628L121.5099921875,142.14045534655452L122.33796614583333,142.75393583625555L123.16594010416667,143.63358019664884L123.99391406250001,144.41819523274899L124.82188802083333,144.367086969316L125.64986197916666,143.9270059838891L126.4778359375,143.70589730143547L127.30580989583332,144.22222197800875L128.13378385416667,145.07115258648992L128.9617578125,144.7107242681086L129.78973177083333,146.47562757879496L130.61770572916666,144.86872074007988L131.4456796875,146.64442133903503L132.27365364583335,145.18522799760103L133.10162760416665,146.41305605694652L133.9296015625,144.25389512255788L134.75757552083334,146.7781428694725L135.58554947916667,146.9080004543066L136.4135234375,147.7383992895484L137.24149739583333,146.1687966696918L138.06947135416667,147.57552013546228L138.8974453125,146.99109836295247L139.72541927083333,146.76488940417767L140.55339322916666,148.0130592249334L141.3813671875,147.5761300586164L142.20934114583335,147.4548311792314L143.03731510416668,147.55949728935957L143.86528906249998,149.03027257695794L144.69326302083334,146.72582135349512L145.52123697916667,149.58786267600954L146.3492109375,149.39004316739738L147.1771848958333,149.89983342401683L148.00515885416667,148.28696747124195L148.8331328125,150.47351560369134L149.66110677083333,148.08072442933917L150.48908072916666,149.9907878022641L151.31705468750002,149.3184497281909L152.14502864583335,148.69447856023908L152.97300260416665,149.88558759726584L153.80097656249998,150.7310284562409L154.62895052083334,151.6624322142452L155.45692447916667,150.490807749331L156.2848984375,150.37575810961425L157.11287239583334,150.6882151477039L157.94084635416664,150.94763524644077L158.7688203125,151.18543439358473L159.59679427083333,149.95833659358323L160.42476822916666,151.1057372186333L161.25274218750002,149.28518089279532L162.08071614583335,151.1172449849546L162.90869010416668,150.28412951901555L163.73666406249998,152.41037768125534L164.5646380208333,151.6881742682308L165.39261197916667,152.18061962909997L166.2205859375,153.38230506330729L167.04855989583334,152.76428147032857L167.87653385416667,150.08068388141692L168.7045078125,151.8186648543924L169.53248177083333,151.52031352557242L170.36045572916666,151.88545473665L171.1884296875,151.17703888379037L172.01640364583335,151.96149072423577L172.84437760416668,151.89027148112655L173.67235156249998,153.04439774528146L174.50032552083331,153.78416364826262L175.32829947916667,152.47457786276937L176.1562734375,152.21450498141348L176.98424739583334,151.5147582795471L177.81222135416667,151.95741083286703L178.64019531250003,153.2200275901705L179.46816927083333,153.2253569997847L180.29614322916666,152.5724029429257L181.1241171875,152.3024657908827L181.95209114583332,153.128852320835L182.78006510416668,152.8146545290947L183.6080390625,154.03263974748552L184.43601302083331,153.2758883088827L185.26398697916665,153.215209197253L186.0919609375,154.3125186469406L186.91993489583334,154.20721459016204L187.74790885416667,154.72533441893756L188.5758828125,154.44556101970375L189.40385677083336,152.48000453040004L190.23183072916666,151.99667669646442L191.0598046875,153.87322561629117L191.88777864583332,154.40667100064456L192.71575260416668,154.8020446188748L193.5437265625,152.2373474277556L194.37170052083334,155.15513407811522L195.19967447916665,155.1887985393405L196.0276484375,154.6051515340805L196.85562239583334,155.1905920431018L197.68359635416667,154.16574805788696L198.5115703125,154.30995532125235L199.33954427083336,155.2646185811609L200.16751822916666,155.45346562564373L200.9954921875,155.032384570688L201.82346614583332,154.9182086046785L202.65144010416665,156.07181560993195L203.4794140625,154.35202023759484L204.30738802083334,154.91822179220617L205.13536197916667,155.48794936202466L205.96333593749998,153.23080015182495L206.79130989583334,154.85640690475702L207.61928385416667,155.73847941868007L208.4472578125,155.8275347929448L209.27523177083333,154.4873621854931L210.1032057291667,154.5631443131715L210.9311796875,154.67734665423632L211.75915364583332,153.33904832415283L212.58712760416665,155.9323410205543L213.4151015625,154.95158623717725L214.24307552083334,156.2941639199853L215.07104947916667,155.7402943521738L215.8990234375,156.489965736866L216.7269973958333,155.12936894595623L217.55497135416667,154.9776217136532L218.3829453125,156.50750679709017L219.21091927083333,155.87655942700803L220.0388932291667,155.6817071121186L220.86686718750002,155.99424162693322L221.69484114583332,161.71679287031293L222.52281510416665,163.61037513054907L223.35078906249998,164.23867510445416L224.17876302083334,164.4204907240346L225.00673697916667,164.8025952167809L225.8347109375,164.8656439622864L226.6626848958333,165.14637922681868L227.49065885416667,165.13312658574432L228.3186328125,165.31621397752315L229.14660677083333,165.48997943568975L229.97458072916666,165.37793407961726L230.80255468750002,165.60002688132226L231.63052864583335,165.62835698761046L232.45850260416665,165.8084450410679L233.28647656249998,165.70314922649413L234.11445052083334,165.71510454453528L234.94242447916668,165.68421440944076L235.7703984375,165.85495415423065L236.59837239583334,166.02388803195208L237.42634635416664,166.10915034357458L238.2543203125,166.02405782137066L239.08229427083333,165.92670749220997L239.91026822916666,165.98752177599818L240.7382421875,165.74387313611805L241.56621614583335,165.94090139307082L242.39419010416668,166.03390478342772L243.22216406249998,166.04352590907365L244.05013802083332,166.022873416543L244.87811197916668,166.14539626333863L245.7060859375,165.99479222483933L246.53405989583334,166.35675194486976L247.36203385416667,166.31692478712648L248.1900078125,166.16442009620368L249.01798177083333,166.2499272013083L249.84595572916666,166.20143583789468L250.6739296875,166.3879635259509L251.50190364583335,166.8125400999561L252.32987760416668,167.12666700873524L253.15785156249999,167.14188376720995L253.98582552083332,167.2573636500165L254.81379947916665,167.386860226281L255.6417734375,167.46749701257795L256.46974739583334,167.5047105671838L257.2977213541667,167.52305771503597L258.1256953125,167.43074666988105L258.9536692708333,167.51989765372127L259.78164322916666,167.53538393229246L260.6096171875,167.4798364173621L261.4375911458333,167.54484598338604L262.2655651041667,167.4139490565285L263.0935390625,167.53768350742757L263.92151302083334,167.45208738651127L264.74948697916665,167.48601724673063L265.5774609375,167.5398363713175L266.4054348958333,167.6218240549788L267.23340885416667,167.5603866605088L268.0613828125,167.54483362007886L268.88935677083333,167.59544652700424L269.71733072916663,167.777769042179L270.5453046875,167.76932820025831L271.37327864583335,167.65199794247746L272.20125260416665,167.82056998740882L273.0292265625,167.7058376725763L273.8572005208334,167.69127616938204L274.6851744791667,167.7677737204358L275.5131484375,167.56883656885475L276.34112239583334,167.85833329707384L277.16909635416664,167.8214955870062L277.9970703125,167.7153030205518L278.82504427083336,167.8230360550806L279.65301822916666,167.72159182280302L280.48099218749996,167.70571651216596" style="fill: none;" fill="none"></path></g></g></g></g></g></g><g transform="translate(41, 177)" clip-path="url(#clip_1)"><clipPath id="clip_1"><rect width="288" height="23"></rect></clipPath><g><g><line x1="0" y1="0" x2="0" y2="5" style="visibility: inherit;" fill="rgb(0, 0, 0)" stroke="rgb(204, 204, 204)" stroke-width="1px"></line><line x1="32.092013888888886" y1="0" x2="32.092013888888886" y2="5" style="visibility: inherit;" fill="rgb(0, 0, 0)" stroke="rgb(204, 204, 204)" stroke-width="1px"></line><line x1="64.18402777777777" y1="0" x2="64.18402777777777" y2="5" style="visibility: inherit;" fill="rgb(0, 0, 0)" stroke="rgb(204, 204, 204)" stroke-width="1px"></line><line x1="96.27604166666666" y1="0" x2="96.27604166666666" y2="5" style="visibility: inherit;" fill="rgb(0, 0, 0)" stroke="rgb(204, 204, 204)" stroke-width="1px"></line><line x1="128.36805555555554" y1="0" x2="128.36805555555554" y2="5" style="visibility: inherit;" fill="rgb(0, 0, 0)" stroke="rgb(204, 204, 204)" stroke-width="1px"></line><line x1="160.46006944444446" y1="0" x2="160.46006944444446" y2="5" style="visibility: inherit;" fill="rgb(0, 0, 0)" stroke="rgb(204, 204, 204)" stroke-width="1px"></line><line x1="192.55208333333331" y1="0" x2="192.55208333333331" y2="5" style="visibility: inherit;" fill="rgb(0, 0, 0)" stroke="rgb(204, 204, 204)" stroke-width="1px"></line><line x1="224.64409722222223" y1="0" x2="224.64409722222223" y2="5" style="visibility: inherit;" fill="rgb(0, 0, 0)" stroke="rgb(204, 204, 204)" stroke-width="1px"></line><line x1="256.7361111111111" y1="0" x2="256.7361111111111" y2="5" style="visibility: inherit;" fill="rgb(0, 0, 0)" stroke="rgb(204, 204, 204)" stroke-width="1px"></line><line x1="288.828125" y1="0" x2="288.828125" y2="5" style="visibility: inherit;" fill="rgb(0, 0, 0)" stroke="rgb(204, 204, 204)" stroke-width="1px"></line></g><g transform="translate(0, 8)"><text x="0" y="0" dx="0em" dy="0.95em" style="text-anchor: middle; visibility: hidden; font-family: Roboto, sans-serif; font-size: 12px; font-weight: 200;" fill="rgb(33, 33, 33)" stroke="none" stroke-width="1px">-10k</text><text x="32.092013888888886" y="0" dx="0em" dy="0.95em" style="text-anchor: middle; visibility: inherit; font-family: Roboto, sans-serif; font-size: 12px; font-weight: 200;" fill="rgb(33, 33, 33)" stroke="none" stroke-width="1px">0</text><text x="64.18402777777777" y="0" dx="0em" dy="0.95em" style="text-anchor: middle; visibility: inherit; font-family: Roboto, sans-serif; font-size: 12px; font-weight: 200;" fill="rgb(33, 33, 33)" stroke="none" stroke-width="1px">10k</text><text x="96.27604166666666" y="0" dx="0em" dy="0.95em" style="text-anchor: middle; visibility: inherit; font-family: Roboto, sans-serif; font-size: 12px; font-weight: 200;" fill="rgb(33, 33, 33)" stroke="none" stroke-width="1px">20k</text><text x="128.36805555555554" y="0" dx="0em" dy="0.95em" style="text-anchor: middle; visibility: inherit; font-family: Roboto, sans-serif; font-size: 12px; font-weight: 200;" fill="rgb(33, 33, 33)" stroke="none" stroke-width="1px">30k</text><text x="160.46006944444446" y="0" dx="0em" dy="0.95em" style="text-anchor: middle; visibility: inherit; font-family: Roboto, sans-serif; font-size: 12px; font-weight: 200;" fill="rgb(33, 33, 33)" stroke="none" stroke-width="1px">40k</text><text x="192.55208333333331" y="0" dx="0em" dy="0.95em" style="text-anchor: middle; visibility: inherit; font-family: Roboto, sans-serif; font-size: 12px; font-weight: 200;" fill="rgb(33, 33, 33)" stroke="none" stroke-width="1px">50k</text><text x="224.64409722222223" y="0" dx="0em" dy="0.95em" style="text-anchor: middle; visibility: inherit; font-family: Roboto, sans-serif; font-size: 12px; font-weight: 200;" fill="rgb(33, 33, 33)" stroke="none" stroke-width="1px">60k</text><text x="256.7361111111111" y="0" dx="0em" dy="0.95em" style="text-anchor: middle; visibility: inherit; font-family: Roboto, sans-serif; font-size: 12px; font-weight: 200;" fill="rgb(33, 33, 33)" stroke="none" stroke-width="1px">70k</text><text x="288.828125" y="0" dx="0em" dy="0.95em" style="text-anchor: middle; visibility: hidden; font-family: Roboto, sans-serif; font-size: 12px; font-weight: 200;" fill="rgb(33, 33, 33)" stroke="none" stroke-width="1px">80k</text></g><line x1="0" y1="0" x2="288.828125" y2="0" fill="rgb(0, 0, 0)" stroke="rgb(204, 204, 204)" stroke-width="1px"></line></g></g></g></g></svg>