<svg viewBox="0 0 330 200" xmlns="http://www.w3.org/2000/svg"><g><g><g><g><g><line x1="40" y1="177" x2="35" y2="177" style="visibility: inherit;" fill="rgb(0, 0, 0)" stroke="rgb(204, 204, 204)" stroke-width="1px"></line><line x1="40" y1="165.2" x2="35" y2="165.2" style="visibility: inherit;" fill="rgb(0, 0, 0)" stroke="rgb(204, 204, 204)" stroke-width="1px"></line><line x1="40" y1="153.4" x2="35" y2="153.4" style="visibility: inherit;" fill="rgb(0, 0, 0)" stroke="rgb(204, 204, 204)" stroke-width="1px"></line><line x1="40" y1="141.6" x2="35" y2="141.6" style="visibility: inherit;" fill="rgb(0, 0, 0)" stroke="rgb(204, 204, 204)" stroke-width="1px"></line><line x1="40" y1="129.8" x2="35" y2="129.8" style="visibility: inherit;" fill="rgb(0, 0, 0)" stroke="rgb(204, 204, 204)" stroke-width="1px"></line><line x1="40" y1="118.00000000000001" x2="35" y2="118.00000000000001" style="visibility: inherit;" fill="rgb(0, 0, 0)" stroke="rgb(204, 204, 204)" stroke-width="1px"></line><line x1="40" y1="106.2" x2="35" y2="106.2" style="visibility: inherit;" fill="rgb(0, 0, 0)" stroke="rgb(204, 204, 204)" stroke-width="1px"></line><line x1="40" y1="94.4" x2="35" y2="94.4" style="visibility: inherit;" fill="rgb(0, 0, 0)" stroke="rgb(204, 204, 204)" stroke-width="1px"></line><line x1="40" y1="82.6" x2="35" y2="82.6" style="visibility: inherit;" fill="rgb(0, 0, 0)" stroke="rgb(204, 204, 204)" stroke-width="1px"></line><line x1="40" y1="70.8" x2="35" y2="70.8" style="visibility: inherit;" fill="rgb(0, 0, 0)" stroke="rgb(204, 204, 204)" stroke-width="1px"></line><line x1="40" y1="59.00000000000001" x2="35" y2="59.00000000000001" style="visibility: inherit;" fill="rgb(0, 0, 0)" stroke="rgb(204, 204, 204)" stroke-width="1px"></line><line x1="40" y1="47.20000000000001" x2="35" y2="47.20000000000001" style="visibility: inherit;" fill="rgb(0, 0, 0)" stroke="rgb(204, 204, 204)" stroke-width="1px"></line><line x1="40" y1="35.39999999999999" x2="35" y2="35.39999999999999" style="visibility: inherit;" fill="rgb(0, 0, 0)" stroke="rgb(204, 204, 204)" stroke-width="1px"></line><line x1="40" y1="23.599999999999994" x2="35" y2="23.599999999999994" style="visibility: inherit;" fill="rgb(0, 0, 0)" stroke="rgb(204, 204, 204)" stroke-width="1px"></line><line x1="40" y1="11.799999999999997" x2="35" y2="11.799999999999997" style="visibility: inherit;" fill="rgb(0, 0, 0)" stroke="rgb(204, 204, 204)" stroke-width="1px"></line><line x1="40" y1="0" x2="35" y2="0" style="visibility: inherit;" fill="rgb(0, 0, 0)" stroke="rgb(204, 204, 204)" stroke-width="1px"></line></g><g transform="translate(30, 0)"><text x="0" y="177" dx="0em" dy="0.3em" style="text-anchor: end; visibility: hidden; font-family: Roboto, sans-serif; font-size: 12px; font-weight: 200;" fill="rgb(33, 33, 33)" stroke="none" stroke-width="1px">0</text><text x="0" y="165.2" dx="0em" dy="0.3em" style="text-anchor: end; visibility: inherit; font-family: Roboto, sans-serif; font-size: 12px; font-weight: 200;" fill="rgb(33, 33, 33)" stroke="none" stroke-width="1px">20</text><text x="0" y="153.4" dx="0em" dy="0.3em" style="text-anchor: end; visibility: hidden; font-family: Roboto, sans-serif; font-size: 12px; font-weight: 200;" fill="rgb(33, 33, 33)" stroke="none" stroke-width="1px">40</text><text x="0" y="141.6" dx="0em" dy="0.3em" style="text-anchor: end; visibility: inherit; font-family: Roboto, sans-serif; font-size: 12px; font-weight: 200;" fill="rgb(33, 33, 33)" stroke="none" stroke-width="1px">60</text><text x="0" y="129.8" dx="0em" dy="0.3em" style="text-anchor: end; visibility: hidden; font-family: Roboto, sans-serif; font-size: 12px; font-weight: 200;" fill="rgb(33, 33, 33)" stroke="none" stroke-width="1px">80</text><text x="0" y="118.00000000000001" dx="0em" dy="0.3em" style="text-anchor: end; visibility: inherit; font-family: Roboto, sans-serif; font-size: 12px; font-weight: 200;" fill="rgb(33, 33, 33)" stroke="none" stroke-width="1px">100</text><text x="0" y="106.2" dx="0em" dy="0.3em" style="text-anchor: end; visibility: hidden; font-family: Roboto, sans-serif; font-size: 12px; font-weight: 200;" fill="rgb(33, 33, 33)" stroke="none" stroke-width="1px">120</text><text x="0" y="94.4" dx="0em" dy="0.3em" style="text-anchor: end; visibility: inherit; font-family: Roboto, sans-serif; font-size: 12px; font-weight: 200;" fill="rgb(33, 33, 33)" stroke="none" stroke-width="1px">140</text><text x="0" y="82.6" dx="0em" dy="0.3em" style="text-anchor: end; visibility: hidden; font-family: Roboto, sans-serif; font-size: 12px; font-weight: 200;" fill="rgb(33, 33, 33)" stroke="none" stroke-width="1px">160</text><text x="0" y="70.8" dx="0em" dy="0.3em" style="text-anchor: end; visibility: inherit; font-family: Roboto, sans-serif; font-size: 12px; font-weight: 200;" fill="rgb(33, 33, 33)" stroke="none" stroke-width="1px">180</text><text x="0" y="59.00000000000001" dx="0em" dy="0.3em" style="text-anchor: end; visibility: hidden; font-family: Roboto, sans-serif; font-size: 12px; font-weight: 200;" fill="rgb(33, 33, 33)" stroke="none" stroke-width="1px">200</text><text x="0" y="47.20000000000001" dx="0em" dy="0.3em" style="text-anchor: end; visibility: inherit; font-family: Roboto, sans-serif; font-size: 12px; font-weight: 200;" fill="rgb(33, 33, 33)" stroke="none" stroke-width="1px">220</text><text x="0" y="35.39999999999999" dx="0em" dy="0.3em" style="text-anchor: end; visibility: hidden; font-family: Roboto, sans-serif; font-size: 12px; font-weight: 200;" fill="rgb(33, 33, 33)" stroke="none" stroke-width="1px">240</text><text x="0" y="23.599999999999994" dx="0em" dy="0.3em" style="text-anchor: end; visibility: inherit; font-family: Roboto, sans-serif; font-size: 12px; font-weight: 200;" fill="rgb(33, 33, 33)" stroke="none" stroke-width="1px">260</text><text x="0" y="11.799999999999997" dx="0em" dy="0.3em" style="text-anchor: end; visibility: hidden; font-family: Roboto, sans-serif; font-size: 12px; font-weight: 200;" fill="rgb(33, 33, 33)" stroke="none" stroke-width="1px">280</text><text x="0" y="0" dx="0em" dy="0.3em" style="text-anchor: end; visibility: hidden; font-family: Roboto, sans-serif; font-size: 12px; font-weight: 200;" fill="rgb(33, 33, 33)" stroke="none" stroke-width="1px">300</text></g><line x1="40" y1="0" x2="40" y2="177" fill="rgb(0, 0, 0)" stroke="rgb(204, 204, 204)" stroke-width="1px"></line></g></g><g transform="translate(40, 0)" clip-path="url(#clip_0)"><clipPath id="clip_0"><rect width="290" height="177"></rect></clipPath><g><g><g><line x1="0" y1="0" x2="0" y2="177" fill="rgb(0, 0, 0)" stroke="rgb(66, 66, 66)" stroke-width="1px" opacity="0.25"></line><line x1="36.25" y1="0" x2="36.25" y2="177" fill="rgb(0, 0, 0)" stroke="rgb(66, 66, 66)" stroke-width="1px" opacity="0.25"></line><line x1="72.5" y1="0" x2="72.5" y2="177" fill="rgb(0, 0, 0)" stroke="rgb(66, 66, 66)" stroke-width="1px" opacity="0.25"></line><line x1="108.75" y1="0" x2="108.75" y2="177" fill="rgb(0, 0, 0)" stroke="rgb(66, 66, 66)" stroke-width="1px" opacity="0.25"></line><line x1="145" y1="0" x2="145" y2="177" fill="rgb(0, 0, 0)" stroke="rgb(66, 66, 66)" stroke-width="1px" opacity="0.25"></line><line x1="181.25" y1="0" x2="181.25" y2="177" fill="rgb(0, 0, 0)" stroke="rgb(66, 66, 66)" stroke-width="1px" opacity="0.25"></line><line x1="217.5" y1="0" x2="217.5" y2="177" fill="rgb(0, 0, 0)" stroke="rgb(66, 66, 66)" stroke-width="1px" opacity="0.25"></line><line x1="253.75" y1="0" x2="253.75" y2="177" fill="rgb(0, 0, 0)" stroke="rgb(66, 66, 66)" stroke-width="1px" opacity="0.25"></line><line x1="290" y1="0" x2="290" y2="177" fill="rgb(0, 0, 0)" stroke="rgb(66, 66, 66)" stroke-width="1px" opacity="0.25"></line></g><g><line x1="0" y1="177" x2="290" y2="177" fill="rgb(0, 0, 0)" stroke="rgb(66, 66, 66)" stroke-width="1px" opacity="0.25"></line><line x1="0" y1="165.2" x2="290" y2="165.2" fill="rgb(0, 0, 0)" stroke="rgb(66, 66, 66)" stroke-width="1px" opacity="0.25"></line><line x1="0" y1="153.4" x2="290" y2="153.4" fill="rgb(0, 0, 0)" stroke="rgb(66, 66, 66)" stroke-width="1px" opacity="0.25"></line><line x1="0" y1="141.6" x2="290" y2="141.6" fill="rgb(0, 0, 0)" stroke="rgb(66, 66, 66)" stroke-width="1px" opacity="0.25"></line><line x1="0" y1="129.8" x2="290" y2="129.8" fill="rgb(0, 0, 0)" stroke="rgb(66, 66, 66)" stroke-width="1px" opacity="0.25"></line><line x1="0" y1="118.00000000000001" x2="290" y2="118.00000000000001" fill="rgb(0, 0, 0)" stroke="rgb(66, 66, 66)" stroke-width="1px" opacity="0.25"></line><line x1="0" y1="106.2" x2="290" y2="106.2" fill="rgb(0, 0, 0)" stroke="rgb(66, 66, 66)" stroke-width="1px" opacity="0.25"></line><line x1="0" y1="94.4" x2="290" y2="94.4" fill="rgb(0, 0, 0)" stroke="rgb(66, 66, 66)" stroke-width="1px" opacity="0.25"></line><line x1="0" y1="82.6" x2="290" y2="82.6" fill="rgb(0, 0, 0)" stroke="rgb(66, 66, 66)" stroke-width="1px" opacity="0.25"></line><line x1="0" y1="70.8" x2="290" y2="70.8" fill="rgb(0, 0, 0)" stroke="rgb(66, 66, 66)" stroke-width="1px" opacity="0.25"></line><line x1="0" y1="59.00000000000001" x2="290" y2="59.00000000000001" fill="rgb(0, 0, 0)" stroke="rgb(66, 66, 66)" stroke-width="1px" opacity="0.25"></line><line x1="0" y1="47.20000000000001" x2="290" y2="47.20000000000001" fill="rgb(0, 0, 0)" stroke="rgb(66, 66, 66)" stroke-width="1px" opacity="0.25"></line><line x1="0" y1="35.39999999999999" x2="290" y2="35.39999999999999" fill="rgb(0, 0, 0)" stroke="rgb(66, 66, 66)" stroke-width="1px" opacity="0.25"></line><line x1="0" y1="23.599999999999994" x2="290" y2="23.599999999999994" fill="rgb(0, 0, 0)" stroke="rgb(66, 66, 66)" stroke-width="1px" opacity="0.25"></line><line x1="0" y1="11.799999999999997" x2="290" y2="11.799999999999997" fill="rgb(0, 0, 0)" stroke="rgb(66, 66, 66)" stroke-width="1px" opacity="0.25"></line><line x1="0" y1="0" x2="290" y2="0" fill="rgb(0, 0, 0)" stroke="rgb(66, 66, 66)" stroke-width="1px" opacity="0.25"></line></g></g></g><g><g><line x1="0" y1="177" x2="290" y2="177" fill="rgb(0, 0, 0)" stroke="rgb(153, 153, 153)" stroke-width="1.5px"></line></g></g><g><g><line x1="36.25" y1="0" x2="36.25" y2="177" fill="rgb(0, 0, 0)" stroke="rgb(153, 153, 153)" stroke-width="1.5px"></line></g></g><g><g><g><g><g><path stroke="rgb(0, 119, 187)" stroke-width="2px" d="M189.1688125,110.92L189.6364375,110.55124999999998L190.1040625,110.13734693877551L190.5716875,109.68360294117646L191.03931250000002,109.19626648161001L191.5069375,108.68175483351236L191.9745625,108.1460567831652L192.4421875,107.59436781369772L192.9098125,107.03094266080907L193.3774375,106.45910793054111L193.8450625,105.88136873754111L194.3126875,105.29955476013579L194.78031249999998,104.71496934696073L195.24793749999998,104.12852204364933L195.7155625,103.54083690546196L196.1831875,102.95233612073775L196.6508125,102.3633019686377L197.1184375,101.77392132370987L197.58606250000003,101.18431686610401L198.0536875,100.59456855752984L198.5213125,100.00472819521899L198.9889375,99.4148291527797L199.4565625,98.82489283276239L199.92418750000002,98.23493290420234L200.39181250000001,97.64495806520594L200.85943749999998,97.05497383271829L201.32706249999998,96.46498369578173L201.7946875,95.8749898551572L202.2623125,95.28499369570638L202.7299375,94.69499608699076L203.1975625,94.10499757393447L203.6651875,93.51499849740463L204.1328125,92.92499907026917L204.6004375,92.33499942525731L205.0680625,91.74499964501184L205.5356875,91.15499978092163L206.0033125,90.56499986490167L206.47093750000002,89.9749999167502L206.9385625,89.38499994873565L207.4061875,88.79499996845273L207.87381249999999,88.20499998059842L208.3414375,87.61499998807514L208.8090625,87.02499999267472L209.2766875,86.4349999955026L209.7443125,85.84499999724024L210.21193749999998,85.25499999830735L210.6795625,84.66499999896232L211.1471875,84.07499999936415L211.6148125,83.48499999961052L212.0824375,82.89499999976154L212.55006250000002,82.30499999985406L213.01768750000002,81.71499999991073L213.4853125,81.1249999999454L213.9529375,80.53499999996663L214.4205625,79.9449999999796L214.88818750000002,79.35499999998757L215.3558125,78.76499999999241L215.8234375,78.17499999999536L216.29106249999998,77.58499999999718L216.75868749999998,76.99499999999829L217.2263125,76.40499999999894L217.6939375,75.81499999999936L218.1615625,75.2249999999996L218.6291875,74.63499999999974L219.09681250000003,74.04499999999985L219.5644375,73.45499999999991L220.0320625,72.86499999999995L220.4996875,72.27499999999996L220.9673125,71.68499999999999L221.43493750000002,71.09499999999998L221.90256250000002,70.505L222.37018750000001,69.91499999999998L222.83781249999998,69.32499999999999L223.30543749999998,68.735L223.7730625,68.145L224.2406875,67.555L224.7083125,66.96499999999999L225.1759375,66.375L225.64356249999997,65.78500000000001L226.1111875,65.195L226.5788125,64.605L227.0464375,64.015L227.5140625,63.42499999999999L227.98168750000002,62.834999999999994L228.44931250000002,62.245000000000005L228.9169375,61.65500000000001L229.3845625,61.065L229.85218749999999,60.475L230.3198125,59.885000000000005L230.7874375,59.294999999999995L231.2550625,58.705L231.7226875,58.11500000000001L232.19031249999998,57.52499999999999L232.6579375,56.934999999999995L233.1255625,56.345000000000006L233.5931875,55.75499999999999L234.0608125,55.165L234.52843750000002,54.575L234.9960625,53.98500000000001L235.4636875,53.394999999999996L235.9313125,52.805L236.3989375,52.21500000000001L236.86656250000001,51.62499999999999L237.3341875,51.035L237.8018125,50.44500000000001L238.26943749999998,49.85499999999999L238.73706249999998,49.265L239.2046875,48.675000000000004L239.6723125,48.084999999999994L240.1399375,47.495L240.6075625,46.905L241.07518750000003,46.31500000000001L241.5428125,45.724999999999994L242.0104375,45.135L242.4780625,44.54500000000001L242.9456875,43.95499999999999L243.41331250000002,43.365L243.88093750000002,42.775000000000006L244.34856249999999,42.18499999999999L244.81618749999998,41.595L245.28381249999998,41.005L245.7514375,40.415000000000006L246.2190625,39.824999999999996L246.6866875,39.235L247.1543125,38.64500000000001L247.62193749999997,38.05499999999999L248.0895625,37.465L248.5571875,36.87500000000001L249.0248125,36.28499999999999L249.4924375,35.695L249.96006250000002,35.105000000000004L250.42768750000002,34.51499999999999L250.8953125,33.925L251.3629375,33.335L251.83056249999998,32.74500000000001L252.2981875,32.154999999999994L252.7658125,31.565L253.2334375,30.97500000000001L253.70106249999998,30.384999999999994L254.16868749999998,29.795L254.6363125,29.205000000000005L255.1039375,28.61499999999999L255.5715625,28.025L256.0391875,27.435000000000006L256.5068125,26.84499999999999L256.97443749999996,26.254999999999995L257.4420625,25.665000000000003L257.9096875,25.07500000000001L258.3773125,24.484999999999996L258.8449375,23.895000000000003L259.3125625,23.305000000000007L259.7801875,22.714999999999993L260.2478125,22.125L260.7154375,21.535000000000007L261.1830625,20.944999999999993L261.6506875,20.354999999999997L262.1183125,19.765000000000004L262.5859375,19.17499999999999L263.0535625,18.584999999999997L263.5211875,17.995000000000005L263.9888125,17.40500000000001L264.4564375,16.814999999999994L264.9240625,16.225L265.3916875,15.635000000000007L265.8593125,15.044999999999995L266.3269375,14.455L266.7945625,13.865000000000006L267.2621875,13.274999999999991L267.7298125,12.684999999999999L268.1974375,12.095000000000004L268.66506250000003,11.50499999999999L269.1326875,10.914999999999997L269.6003125,10.325000000000003L270.06793749999997,9.735000000000008L270.5355625,9.144999999999994L271.0031875,8.555000000000001L271.4708125,7.965000000000007L271.9384375,7.374999999999994L272.40606249999996,6.784999999999999L272.8736875,6.195000000000006L273.3413125,5.6049999999999915L273.8089375,5.014999999999998L274.2765625,4.425000000000004L274.7441875,3.83499999999999L275.2118125,3.2449999999999966L275.6794375,2.6550000000000025L276.1470625,2.0650000000000084L276.6146875,1.4749999999999948" style="fill: none;" fill="none"></path></g><g><path stroke="rgb(255, 112, 67)" stroke-width="2px" d="M37.609375,177L38.9705625,176.63125L40.33175,176.2173469387755L41.6929375,175.7636029411765L43.054125,175.27626648161L44.4153125,174.76175483351236L45.7765,174.2260567831652L47.1376875,173.67436781369773L48.498875000000005,173.11094266080906L49.860062500000005,172.53910793054112L51.22125,171.9613687375411L52.5824375,171.37955476013582L53.943625,170.79496934696073L55.3048125,170.2085220436493L56.666,169.62083690546194L58.0271875,169.03233612073774L59.388375,168.4433019686377L60.7495625,167.85392132370987L62.11075,167.26431686610402L63.4719375,166.67456855752985L64.833125,166.08472819521901L66.1943125,165.4948291527797L67.5555,164.90489283276239L68.9166875,164.31493290420232L70.27787500000001,163.72495806520595L71.63906250000001,163.13497383271826L73.00025,162.54498369578175L74.3614375,161.95498985515724L75.72262500000001,161.3649936957064L77.08381250000001,160.77499608699074L78.44500000000001,160.18499757393448L79.80618750000001,159.59499849740467L81.167375,159.00499907026915L82.5285625,158.4149994252573L83.88975,157.82499964501187L85.2509375,157.2349997809216L86.612125,156.64499986490165L87.97331249999999,156.0549999167502L89.33449999999999,155.46499994873565L90.69568749999999,154.87499996845273L92.05687499999999,154.2849999805984L93.41806249999999,153.6949999880751L94.77924999999999,153.10499999267472L96.14043749999999,152.51499999550262L97.501625,151.92499999724026L98.8628125,151.33499999830735L100.224,150.74499999896233L101.5851875,150.15499999936415L102.946375,149.56499999961056L104.3075625,148.97499999976156L105.66875,148.38499999985407L107.0299375,147.79499999991074L108.391125,147.20499999994541L109.7523125,146.61499999996664L111.1135,146.0249999999796L112.4746875,145.43499999998755L113.835875,144.84499999999238L115.1970625,144.25499999999536L116.55824999999999,143.66499999999718L117.91943749999999,143.07499999999828L119.280625,142.48499999999893L120.6418125,141.89499999999936L122.003,141.3049999999996L123.3641875,140.71499999999975L124.725375,140.12499999999986L126.0865625,139.5349999999999L127.44775,138.94499999999994L128.8089375,138.35499999999996L130.170125,137.765L131.53131249999998,137.17499999999998L132.89249999999998,136.58499999999998L134.25368749999998,135.995L135.61487499999998,135.40499999999997L136.97606249999998,134.815L138.33724999999998,134.225L139.69843749999998,133.635L141.059625,133.04500000000002L142.4208125,132.45499999999998L143.782,131.865L145.14318749999998,131.275L146.504375,130.685L147.86556249999998,130.095L149.22675,129.505L150.58793749999998,128.915L151.949125,128.325L153.3103125,127.735L154.6715,127.14499999999998L156.0326875,126.55500000000002L157.393875,125.965L158.7550625,125.37499999999999L160.11624999999998,124.78500000000001L161.4774375,124.195L162.83862499999998,123.60499999999999L164.1998125,123.01500000000001L165.56099999999998,122.425L166.9221875,121.83500000000001L168.28337499999998,121.245L169.6445625,120.655L171.00574999999998,120.065L172.3669375,119.47500000000001L173.728125,118.88499999999999L175.0893125,118.295L176.4505,117.70500000000001L177.8116875,117.115L179.172875,116.525L180.5340625,115.935L181.89525,115.34499999999998L183.2564375,114.755L184.617625,114.165L185.9788125,113.57499999999999L187.34,112.985L188.70118749999997,112.395L190.062375,111.80499999999999L191.42356249999997,111.21500000000002L192.78475,110.625L194.14593749999997,110.03499999999998L195.507125,109.44500000000001L196.8683125,108.855L198.2295,108.265L199.5906875,107.67500000000001L200.951875,107.085L202.3130625,106.495L203.67425,105.90500000000002L205.0354375,105.315L206.396625,104.725L207.7578125,104.135L209.119,103.54499999999999" style="fill: none;" fill="none"></path></g></g></g></g><g opacity="0.2"><g><g><g><path stroke="rgb(0, 119, 187)" stroke-width="2px" d="M189.1688125,110.92L189.6364375,110.33L190.1040625,109.74L190.5716875,109.15L191.03931250000002,108.55999999999999L191.5069375,107.97L191.9745625,107.38000000000001L192.4421875,106.78999999999999L192.9098125,106.2L193.3774375,105.61L193.8450625,105.01999999999998L194.3126875,104.43000000000002L194.78031249999998,103.84L195.24793749999998,103.24999999999999L195.7155625,102.66000000000001L196.1831875,102.07L196.6508125,101.47999999999999L197.1184375,100.89000000000001L197.58606250000003,100.3L198.0536875,99.71000000000001L198.5213125,99.12L198.9889375,98.53L199.4565625,97.94L199.92418750000002,97.35000000000001L200.39181250000001,96.75999999999999L200.85943749999998,96.17L201.32706249999998,95.58000000000001L201.7946875,94.99L202.2623125,94.4L202.7299375,93.81L203.1975625,93.21999999999998L203.6651875,92.63L204.1328125,92.04L204.6004375,91.44999999999999L205.0680625,90.86L205.5356875,90.27L206.0033125,89.67999999999999L206.47093750000002,89.09000000000002L206.9385625,88.5L207.4061875,87.91000000000001L207.87381249999999,87.32L208.3414375,86.73L208.8090625,86.14L209.2766875,85.55L209.7443125,84.96L210.21193749999998,84.37L210.6795625,83.78000000000002L211.1471875,83.19L211.6148125,82.6L212.0824375,82.01L212.55006250000002,81.41999999999999L213.01768750000002,80.83L213.4853125,80.24000000000001L213.9529375,79.64999999999999L214.4205625,79.06L214.88818750000002,78.47L215.3558125,77.88L215.8234375,77.28999999999999L216.29106249999998,76.7L216.75868749999998,76.11000000000001L217.2263125,75.52L217.6939375,74.93L218.1615625,74.34L218.6291875,73.75L219.09681250000003,73.16L219.5644375,72.57000000000001L220.0320625,71.97999999999999L220.4996875,71.39L220.9673125,70.8L221.43493750000002,70.21L221.90256250000002,69.61999999999999L222.37018750000001,69.03L222.83781249999998,68.44000000000001L223.30543749999998,67.85L223.7730625,67.26L224.2406875,66.67L224.7083125,66.08L225.1759375,65.49L225.64356249999997,64.9L226.1111875,64.30999999999999L226.5788125,63.72L227.0464375,63.13L227.5140625,62.540000000000006L227.98168750000002,61.949999999999996L228.44931250000002,61.36L228.9169375,60.77000000000001L229.3845625,60.17999999999999L229.85218749999999,59.59L230.3198125,59.00000000000001L230.7874375,58.40999999999999L231.2550625,57.82L231.7226875,57.230000000000004L232.19031249999998,56.63999999999999L232.6579375,56.05L233.1255625,55.46L233.5931875,54.87000000000001L234.0608125,54.279999999999994L234.52843750000002,53.690000000000005L234.9960625,53.10000000000001L235.4636875,52.50999999999999L235.9313125,51.92L236.3989375,51.330000000000005L236.86656250000001,50.739999999999995L237.3341875,50.15L237.8018125,49.56L238.26943749999998,48.96999999999999L238.73706249999998,48.379999999999995L239.2046875,47.790000000000006L239.6723125,47.20000000000001L240.1399375,46.60999999999999L240.6075625,46.02L241.07518750000003,45.43000000000001L241.5428125,44.839999999999996L242.0104375,44.25L242.4780625,43.660000000000004L242.9456875,43.06999999999999L243.41331250000002,42.48L243.88093750000002,41.89000000000001L244.34856249999999,41.29999999999999L244.81618749999998,40.709999999999994L245.28381249999998,40.120000000000005L245.7514375,39.53000000000001L246.2190625,38.94L246.6866875,38.35L247.1543125,37.760000000000005L247.62193749999997,37.169999999999995L248.0895625,36.58L248.5571875,35.99000000000001L249.0248125,35.39999999999999L249.4924375,34.809999999999995L249.96006250000002,34.220000000000006L250.42768750000002,33.62999999999999L250.8953125,33.04L251.3629375,32.45L251.83056249999998,31.86000000000001L252.2981875,31.269999999999996L252.7658125,30.68L253.2334375,30.090000000000007L253.70106249999998,29.499999999999993L254.16868749999998,28.91L254.6363125,28.320000000000004L255.1039375,27.729999999999993L255.5715625,27.139999999999997L256.0391875,26.550000000000004L256.5068125,25.95999999999999L256.97443749999996,25.369999999999997L257.4420625,24.78L257.9096875,24.19000000000001L258.3773125,23.599999999999994L258.8449375,23.01L259.3125625,22.420000000000005L259.7801875,21.829999999999995L260.2478125,21.24L260.7154375,20.650000000000006L261.1830625,20.05999999999999L261.6506875,19.47L262.1183125,18.880000000000003L262.5859375,18.29000000000001L263.0535625,17.699999999999996L263.5211875,17.110000000000003L263.9888125,16.520000000000007L264.4564375,15.929999999999994L264.9240625,15.34L265.3916875,14.750000000000007L265.8593125,14.159999999999993L266.3269375,13.569999999999999L266.7945625,12.980000000000006L267.2621875,12.389999999999992L267.7298125,11.799999999999997L268.1974375,11.210000000000003L268.66506250000003,10.62000000000001L269.1326875,10.029999999999996L269.6003125,9.440000000000001L270.06793749999997,8.850000000000009L270.5355625,8.259999999999994L271.0031875,7.67L271.4708125,7.080000000000006L271.9384375,6.489999999999993L272.40606249999996,5.899999999999999L272.8736875,5.310000000000005L273.3413125,4.719999999999991L273.8089375,4.129999999999997L274.2765625,3.540000000000003L274.7441875,2.950000000000009L275.2118125,2.3599999999999954L275.6794375,1.7700000000000016L276.1470625,1.1800000000000077L276.6146875,0.589999999999994" style="fill: none;" fill="none"></path></g><g><path stroke="rgb(255, 112, 67)" stroke-width="2px" d="M37.609375,177L38.9705625,176.41L40.33175,175.82L41.6929375,175.23L43.054125,174.64000000000001L44.4153125,174.04999999999998L45.7765,173.46L47.1376875,172.87L48.498875000000005,172.28L49.860062500000005,171.69L51.22125,171.1L52.5824375,170.51000000000002L53.943625,169.92L55.3048125,169.33L56.666,168.74L58.0271875,168.15L59.388375,167.56L60.7495625,166.97L62.11075,166.38L63.4719375,165.79L64.833125,165.2L66.1943125,164.60999999999999L67.5555,164.01999999999998L68.9166875,163.43L70.27787500000001,162.84L71.63906250000001,162.25L73.00025,161.66L74.3614375,161.07L75.72262500000001,160.48L77.08381250000001,159.89L78.44500000000001,159.3L79.80618750000001,158.71L81.167375,158.12L82.5285625,157.53L83.88975,156.94L85.2509375,156.35L86.612125,155.76L87.97331249999999,155.17000000000002L89.33449999999999,154.57999999999998L90.69568749999999,153.99L92.05687499999999,153.4L93.41806249999999,152.81L94.77924999999999,152.22L96.14043749999999,151.63L97.501625,151.04L98.8628125,150.45L100.224,149.86L101.5851875,149.26999999999998L102.946375,148.68L104.3075625,148.09L105.66875,147.5L107.0299375,146.91L108.391125,146.32L109.7523125,145.73000000000002L111.1135,145.14000000000001L112.4746875,144.55L113.835875,143.96L115.1970625,143.37L116.55824999999999,142.78L117.91943749999999,142.19L119.280625,141.6L120.6418125,141.01L122.003,140.42L123.3641875,139.83L124.725375,139.23999999999998L126.0865625,138.65L127.44775,138.06L128.8089375,137.47L130.170125,136.88L131.53131249999998,136.29L132.89249999999998,135.7L134.25368749999998,135.10999999999999L135.61487499999998,134.52L136.97606249999998,133.92999999999998L138.33724999999998,133.34L139.69843749999998,132.75L141.059625,132.16L142.4208125,131.57000000000002L143.782,130.98L145.14318749999998,130.39000000000001L146.504375,129.8L147.86556249999998,129.21L149.22675,128.62L150.58793749999998,128.03L151.949125,127.44L153.3103125,126.85L154.6715,126.26L156.0326875,125.66999999999999L157.393875,125.08L158.7550625,124.49000000000001L160.11624999999998,123.89999999999999L161.4774375,123.31L162.83862499999998,122.72L164.1998125,122.13L165.56099999999998,121.53999999999999L166.9221875,120.95L168.28337499999998,120.35999999999999L169.6445625,119.77000000000001L171.00574999999998,119.18L172.3669375,118.58999999999999L173.728125,118.00000000000001L175.0893125,117.41L176.4505,116.81999999999998L177.8116875,116.23000000000002L179.172875,115.64L180.5340625,115.05L181.89525,114.46000000000001L183.2564375,113.86999999999999L184.617625,113.28L185.9788125,112.69000000000001L187.34,112.1L188.70118749999997,111.51L190.062375,110.92L191.42356249999997,110.33L192.78475,109.74L194.14593749999997,109.15L195.507125,108.55999999999999L196.8683125,107.97L198.2295,107.38000000000001L199.5906875,106.78999999999999L200.951875,106.2L202.3130625,105.61L203.67425,105.01999999999998L205.0354375,104.43000000000002L206.396625,103.84L207.7578125,103.24999999999999L209.119,102.66000000000001" style="fill: none;" fill="none"></path></g></g></g></g></g></g><g transform="translate(40, 177)" clip-path="url(#clip_1)"><clipPath id="clip_1"><rect width="290" height="23"></rect></clipPath><g><g><line x1="0" y1="0" x2="0" y2="5" style="visibility: inherit;" fill="rgb(0, 0, 0)" stroke="rgb(204, 204, 204)" stroke-width="1px"></line><line x1="36.25" y1="0" x2="36.25" y2="5" style="visibility: inherit;" fill="rgb(0, 0, 0)" stroke="rgb(204, 204, 204)" stroke-width="1px"></line><line x1="72.5" y1="0" x2="72.5" y2="5" style="visibility: inherit;" fill="rgb(0, 0, 0)" stroke="rgb(204, 204, 204)" stroke-width="1px"></line><line x1="108.75" y1="0" x2="108.75" y2="5" style="visibility: inherit;" fill="rgb(0, 0, 0)" stroke="rgb(204, 204, 204)" stroke-width="1px"></line><line x1="145" y1="0" x2="145" y2="5" style="visibility: inherit;" fill="rgb(0, 0, 0)" stroke="rgb(204, 204, 204)" stroke-width="1px"></line><line x1="181.25" y1="0" x2="181.25" y2="5" style="visibility: inherit;" fill="rgb(0, 0, 0)" stroke="rgb(204, 204, 204)" stroke-width="1px"></line><line x1="217.5" y1="0" x2="217.5" y2="5" style="visibility: inherit;" fill="rgb(0, 0, 0)" stroke="rgb(204, 204, 204)" stroke-width="1px"></line><line x1="253.75" y1="0" x2="253.75" y2="5" style="visibility: inherit;" fill="rgb(0, 0, 0)" stroke="rgb(204, 204, 204)" stroke-width="1px"></line><line x1="290" y1="0" x2="290" y2="5" style="visibility: inherit;" fill="rgb(0, 0, 0)" stroke="rgb(204, 204, 204)" stroke-width="1px"></line></g><g transform="translate(0, 8)"><text x="0" y="0" dx="0em" dy="0.95em" style="text-anchor: middle; visibility: hidden; font-family: Roboto, sans-serif; font-size: 12px; font-weight: 200;" fill="rgb(33, 33, 33)" stroke="none" stroke-width="1px">-20k</text><text x="36.25" y="0" dx="0em" dy="0.95em" style="text-anchor: middle; visibility: inherit; font-family: Roboto, sans-serif; font-size: 12px; font-weight: 200;" fill="rgb(33, 33, 33)" stroke="none" stroke-width="1px">0</text><text x="72.5" y="0" dx="0em" dy="0.95em" style="text-anchor: middle; visibility: inherit; font-family: Roboto, sans-serif; font-size: 12px; font-weight: 200;" fill="rgb(33, 33, 33)" stroke="none" stroke-width="1px">20k</text><text x="108.75" y="0" dx="0em" dy="0.95em" style="text-anchor: middle; visibility: inherit; font-family: Roboto, sans-serif; font-size: 12px; font-weight: 200;" fill="rgb(33, 33, 33)" stroke="none" stroke-width="1px">40k</text><text x="145" y="0" dx="0em" dy="0.95em" style="text-anchor: middle; visibility: inherit; font-family: Roboto, sans-serif; font-size: 12px; font-weight: 200;" fill="rgb(33, 33, 33)" stroke="none" stroke-width="1px">60k</text><text x="181.25" y="0" dx="0em" dy="0.95em" style="text-anchor: middle; visibility: inherit; font-family: Roboto, sans-serif; font-size: 12px; font-weight: 200;" fill="rgb(33, 33, 33)" stroke="none" stroke-width="1px">80k</text><text x="217.5" y="0" dx="0em" dy="0.95em" style="text-anchor: middle; visibility: inherit; font-family: Roboto, sans-serif; font-size: 12px; font-weight: 200;" fill="rgb(33, 33, 33)" stroke="none" stroke-width="1px">100k</text><text x="253.75" y="0" dx="0em" dy="0.95em" style="text-anchor: middle; visibility: inherit; font-family: Roboto, sans-serif; font-size: 12px; font-weight: 200;" fill="rgb(33, 33, 33)" stroke="none" stroke-width="1px">120k</text><text x="290" y="0" dx="0em" dy="0.95em" style="text-anchor: middle; visibility: hidden; font-family: Roboto, sans-serif; font-size: 12px; font-weight: 200;" fill="rgb(33, 33, 33)" stroke="none" stroke-width="1px">140k</text></g><line x1="0" y1="0" x2="290" y2="0" fill="rgb(0, 0, 0)" stroke="rgb(204, 204, 204)" stroke-width="1px"></line></g></g></g></g></svg>