<svg viewBox="0 0 330 200" xmlns="http://www.w3.org/2000/svg"><g><g><g><g><g><line x1="61.953125" y1="177" x2="56.953125" y2="177" style="visibility: inherit;" fill="rgb(0, 0, 0)" stroke="rgb(204, 204, 204)" stroke-width="1px"></line><line x1="61.953125" y1="159.3" x2="56.953125" y2="159.3" style="visibility: inherit;" fill="rgb(0, 0, 0)" stroke="rgb(204, 204, 204)" stroke-width="1px"></line><line x1="61.953125" y1="141.6" x2="56.953125" y2="141.6" style="visibility: inherit;" fill="rgb(0, 0, 0)" stroke="rgb(204, 204, 204)" stroke-width="1px"></line><line x1="61.953125" y1="123.89999999999999" x2="56.953125" y2="123.89999999999999" style="visibility: inherit;" fill="rgb(0, 0, 0)" stroke="rgb(204, 204, 204)" stroke-width="1px"></line><line x1="61.953125" y1="106.2" x2="56.953125" y2="106.2" style="visibility: inherit;" fill="rgb(0, 0, 0)" stroke="rgb(204, 204, 204)" stroke-width="1px"></line><line x1="61.953125" y1="88.5" x2="56.953125" y2="88.5" style="visibility: inherit;" fill="rgb(0, 0, 0)" stroke="rgb(204, 204, 204)" stroke-width="1px"></line><line x1="61.953125" y1="70.8" x2="56.953125" y2="70.8" style="visibility: inherit;" fill="rgb(0, 0, 0)" stroke="rgb(204, 204, 204)" stroke-width="1px"></line><line x1="61.953125" y1="53.10000000000001" x2="56.953125" y2="53.10000000000001" style="visibility: inherit;" fill="rgb(0, 0, 0)" stroke="rgb(204, 204, 204)" stroke-width="1px"></line><line x1="61.953125" y1="35.40000000000001" x2="56.953125" y2="35.40000000000001" style="visibility: inherit;" fill="rgb(0, 0, 0)" stroke="rgb(204, 204, 204)" stroke-width="1px"></line><line x1="61.953125" y1="17.699999999999996" x2="56.953125" y2="17.699999999999996" style="visibility: inherit;" fill="rgb(0, 0, 0)" stroke="rgb(204, 204, 204)" stroke-width="1px"></line><line x1="61.953125" y1="0" x2="56.953125" y2="0" style="visibility: inherit;" fill="rgb(0, 0, 0)" stroke="rgb(204, 204, 204)" stroke-width="1px"></line></g><g transform="translate(51.953125, 0)"><text x="0" y="177" dx="0em" dy="0.3em" style="text-anchor: end; visibility: hidden; font-family: Roboto, sans-serif; font-size: 12px; font-weight: 200;" fill="rgb(33, 33, 33)" stroke="none" stroke-width="1px">-0.05</text><text x="0" y="159.3" dx="0em" dy="0.3em" style="text-anchor: end; visibility: inherit; font-family: Roboto, sans-serif; font-size: 12px; font-weight: 200;" fill="rgb(33, 33, 33)" stroke="none" stroke-width="1px">0</text><text x="0" y="141.6" dx="0em" dy="0.3em" style="text-anchor: end; visibility: hidden; font-family: Roboto, sans-serif; font-size: 12px; font-weight: 200;" fill="rgb(33, 33, 33)" stroke="none" stroke-width="1px">0.05</text><text x="0" y="123.89999999999999" dx="0em" dy="0.3em" style="text-anchor: end; visibility: inherit; font-family: Roboto, sans-serif; font-size: 12px; font-weight: 200;" fill="rgb(33, 33, 33)" stroke="none" stroke-width="1px">0.1</text><text x="0" y="106.2" dx="0em" dy="0.3em" style="text-anchor: end; visibility: hidden; font-family: Roboto, sans-serif; font-size: 12px; font-weight: 200;" fill="rgb(33, 33, 33)" stroke="none" stroke-width="1px">0.15</text><text x="0" y="88.5" dx="0em" dy="0.3em" style="text-anchor: end; visibility: inherit; font-family: Roboto, sans-serif; font-size: 12px; font-weight: 200;" fill="rgb(33, 33, 33)" stroke="none" stroke-width="1px">0.2</text><text x="0" y="70.8" dx="0em" dy="0.3em" style="text-anchor: end; visibility: hidden; font-family: Roboto, sans-serif; font-size: 12px; font-weight: 200;" fill="rgb(33, 33, 33)" stroke="none" stroke-width="1px">0.25</text><text x="0" y="53.10000000000001" dx="0em" dy="0.3em" style="text-anchor: end; visibility: inherit; font-family: Roboto, sans-serif; font-size: 12px; font-weight: 200;" fill="rgb(33, 33, 33)" stroke="none" stroke-width="1px">0.3</text><text x="0" y="35.40000000000001" dx="0em" dy="0.3em" style="text-anchor: end; visibility: hidden; font-family: Roboto, sans-serif; font-size: 12px; font-weight: 200;" fill="rgb(33, 33, 33)" stroke="none" stroke-width="1px">0.35</text><text x="0" y="17.699999999999996" dx="0em" dy="0.3em" style="text-anchor: end; visibility: inherit; font-family: Roboto, sans-serif; font-size: 12px; font-weight: 200;" fill="rgb(33, 33, 33)" stroke="none" stroke-width="1px">0.4</text><text x="0" y="0" dx="0em" dy="0.3em" style="text-anchor: end; visibility: hidden; font-family: Roboto, sans-serif; font-size: 12px; font-weight: 200;" fill="rgb(33, 33, 33)" stroke="none" stroke-width="1px">0.45</text></g><line x1="61.953125" y1="0" x2="61.953125" y2="177" fill="rgb(0, 0, 0)" stroke="rgb(204, 204, 204)" stroke-width="1px"></line></g></g><g transform="translate(61, 0)" clip-path="url(#clip_0)"><clipPath id="clip_0"><rect width="268" height="177"></rect></clipPath><g><g><g><line x1="0" y1="0" x2="0" y2="177" fill="rgb(0, 0, 0)" stroke="rgb(66, 66, 66)" stroke-width="1px" opacity="0.25"></line><line x1="33.505859375" y1="0" x2="33.505859375" y2="177" fill="rgb(0, 0, 0)" stroke="rgb(66, 66, 66)" stroke-width="1px" opacity="0.25"></line><line x1="67.01171875" y1="0" x2="67.01171875" y2="177" fill="rgb(0, 0, 0)" stroke="rgb(66, 66, 66)" stroke-width="1px" opacity="0.25"></line><line x1="100.517578125" y1="0" x2="100.517578125" y2="177" fill="rgb(0, 0, 0)" stroke="rgb(66, 66, 66)" stroke-width="1px" opacity="0.25"></line><line x1="134.0234375" y1="0" x2="134.0234375" y2="177" fill="rgb(0, 0, 0)" stroke="rgb(66, 66, 66)" stroke-width="1px" opacity="0.25"></line><line x1="167.529296875" y1="0" x2="167.529296875" y2="177" fill="rgb(0, 0, 0)" stroke="rgb(66, 66, 66)" stroke-width="1px" opacity="0.25"></line><line x1="201.03515625" y1="0" x2="201.03515625" y2="177" fill="rgb(0, 0, 0)" stroke="rgb(66, 66, 66)" stroke-width="1px" opacity="0.25"></line><line x1="234.541015625" y1="0" x2="234.541015625" y2="177" fill="rgb(0, 0, 0)" stroke="rgb(66, 66, 66)" stroke-width="1px" opacity="0.25"></line><line x1="268.046875" y1="0" x2="268.046875" y2="177" fill="rgb(0, 0, 0)" stroke="rgb(66, 66, 66)" stroke-width="1px" opacity="0.25"></line></g><g><line x1="0" y1="177" x2="268.046875" y2="177" fill="rgb(0, 0, 0)" stroke="rgb(66, 66, 66)" stroke-width="1px" opacity="0.25"></line><line x1="0" y1="159.3" x2="268.046875" y2="159.3" fill="rgb(0, 0, 0)" stroke="rgb(66, 66, 66)" stroke-width="1px" opacity="0.25"></line><line x1="0" y1="141.6" x2="268.046875" y2="141.6" fill="rgb(0, 0, 0)" stroke="rgb(66, 66, 66)" stroke-width="1px" opacity="0.25"></line><line x1="0" y1="123.89999999999999" x2="268.046875" y2="123.89999999999999" fill="rgb(0, 0, 0)" stroke="rgb(66, 66, 66)" stroke-width="1px" opacity="0.25"></line><line x1="0" y1="106.2" x2="268.046875" y2="106.2" fill="rgb(0, 0, 0)" stroke="rgb(66, 66, 66)" stroke-width="1px" opacity="0.25"></line><line x1="0" y1="88.5" x2="268.046875" y2="88.5" fill="rgb(0, 0, 0)" stroke="rgb(66, 66, 66)" stroke-width="1px" opacity="0.25"></line><line x1="0" y1="70.8" x2="268.046875" y2="70.8" fill="rgb(0, 0, 0)" stroke="rgb(66, 66, 66)" stroke-width="1px" opacity="0.25"></line><line x1="0" y1="53.10000000000001" x2="268.046875" y2="53.10000000000001" fill="rgb(0, 0, 0)" stroke="rgb(66, 66, 66)" stroke-width="1px" opacity="0.25"></line><line x1="0" y1="35.40000000000001" x2="268.046875" y2="35.40000000000001" fill="rgb(0, 0, 0)" stroke="rgb(66, 66, 66)" stroke-width="1px" opacity="0.25"></line><line x1="0" y1="17.699999999999996" x2="268.046875" y2="17.699999999999996" fill="rgb(0, 0, 0)" stroke="rgb(66, 66, 66)" stroke-width="1px" opacity="0.25"></line><line x1="0" y1="0" x2="268.046875" y2="0" fill="rgb(0, 0, 0)" stroke="rgb(66, 66, 66)" stroke-width="1px" opacity="0.25"></line></g></g></g><g><g><line x1="0" y1="159.3" x2="268.046875" y2="159.3" fill="rgb(0, 0, 0)" stroke="rgb(153, 153, 153)" stroke-width="1.5px"></line></g></g><g><g><line x1="33.505859375" y1="0" x2="33.505859375" y2="177" fill="rgb(0, 0, 0)" stroke="rgb(153, 153, 153)" stroke-width="1.5px"></line></g></g><g><g><g><g><g><path stroke="rgb(0, 119, 187)" stroke-width="2px" d="M174.84865185546874,139.44838206768037L175.28087744140626,140.89221688471736L175.71310302734375,141.71988849214145L176.14532861328127,142.47093351644958L176.57755419921875,143.05023849015845L177.00977978515624,143.78866622333607L177.44200537109373,144.3505902231534L177.87423095703124,144.77465640360074L178.30645654296876,145.17503316880823L178.73868212890625,145.5768289401971L179.17090771484376,145.75848322814852L179.60313330078125,146.09718265601379L180.03535888671874,146.4827457103049L180.46758447265626,146.9156472384949L180.89981005859374,147.238570512317L181.33203564453126,147.5369768737663L181.76426123046875,147.7208538739025L182.19648681640626,147.8464138686047L182.62871240234375,148.04927445000774L183.06093798828124,148.18145416700162L183.49316357421876,148.51448511727824L183.92538916015624,148.73772960053L184.35761474609376,148.90701831814508L184.78984033203125,149.02133518019414L185.22206591796876,149.26554032707412L185.65429150390625,149.404198707203L186.08651708984374,149.54486858076373L186.51874267578125,149.63832893106664L186.95096826171874,149.67718482455774L187.38319384765626,149.79180459316024L187.81541943359375,149.82455232777727L188.24764501953126,149.9400379018816L188.67987060546875,149.97550771416718L189.11209619140624,150.14002672745178L189.54432177734375,150.1407666690083L189.97654736328124,150.22321305550327L190.40877294921876,150.62779278753555L190.84099853515627,151.00202871639428L191.27322412109373,151.284711972383L191.70544970703125,151.5762696314819L192.13767529296874,151.62962761787685L192.56990087890625,151.72255375370747L193.00212646484374,151.8716214796459L193.43435205078126,151.91691581134123L193.86657763671877,151.95335849478695L194.29880322265623,151.95826758179012L194.73102880859375,151.95531741787747L195.16325439453124,152.0012368482943L195.59547998046875,152.13143521056324L196.02770556640627,152.18891812089578L196.45993115234376,152.31605394139052L196.89215673828127,152.27186446728788L197.32438232421873,152.31916348512468L197.75660791015625,152.40281235173651L198.18883349609374,152.38320694533172L198.62105908203125,152.4394074715208L199.05328466796877,152.41811522436328L199.48551025390626,152.48394228841178L199.91773583984374,152.53285494908877L200.34996142578123,152.64402719834558L200.78218701171875,152.6680662584252L201.21441259765623,152.63269490879458L201.64663818359375,152.6462141131263L202.07886376953127,152.63365260362033L202.51108935546876,152.62734424799325L202.94331494140624,152.6338726724961L203.37554052734373,152.63913828377596L203.80776611328125,152.72142070647877L204.23999169921876,152.70054468403342L204.67221728515625,152.79224010163594L205.10444287109377,152.82033633323937L205.53666845703125,152.85352629770296L205.96889404296874,152.95031512260113L206.40111962890623,152.85694812494324L206.83334521484375,152.8455273536313L207.26557080078126,152.883919979481L207.69779638671875,152.8608042194534L208.13002197265627,152.85496464902693L208.56224755859373,152.96598640820105L208.99447314453124,152.85273134524058L209.42669873046876,152.862594743159L209.85892431640625,152.90770954286253L210.29114990234376,152.826048048408L210.72337548828125,152.80598801617097L211.15560107421877,152.84156398292942L211.58782666015622,152.8779069469366L212.02005224609374,152.94136843270027L212.45227783203126,152.90676068297603L212.88450341796874,152.96389185775266L213.31672900390626,152.9242739876446L213.74895458984375,152.872228678783L214.18118017578126,152.86995286418212L214.61340576171875,152.86250555141694L215.04563134765624,152.86420919045167L215.47785693359376,152.87160121348117L215.91008251953124,152.94178838519224L216.34230810546876,152.89748967699984L216.77453369140625,152.94404373295774L217.20675927734374,152.93165239946646L217.63898486328125,152.89161433849694L218.07121044921874,152.906405033314L218.50343603515626,152.9076016716026L218.93566162109374,152.93549202781097L219.36788720703126,152.91494721085533L219.80011279296878,152.89564359105054L220.23233837890623,152.93790345708382L220.66456396484375,152.91355663996848L221.09678955078124,152.88681971676297L221.52901513671875,152.8900772458145L221.96124072265624,152.92999153410366L222.39346630859376,152.93507956877335L222.82569189453127,152.91132715710987L223.25791748046873,152.92421854328506L223.69014306640625,152.97160668815013L224.12236865234374,153.0170095494082L224.55459423828125,152.95214957300962L224.98681982421877,152.96500887575232L225.41904541015626,152.8875335562377L225.85127099609375,152.9212572814911L226.28349658203123,152.91481024693783L226.71572216796875,152.8537769950708L227.14794775390624,152.8789361272621L227.58017333984375,152.86118701394605L228.01239892578127,152.88341853616362L228.44462451171876,153.03931224970654L228.87685009765624,153.00870399372957L229.30907568359373,152.9142185205053L229.74130126953125,153.00011157684511L230.17352685546877,153.07868949111096L230.60575244140625,153.01443618229501L231.03797802734377,153.0548152425377L231.47020361328126,152.87995743116667L231.90242919921874,152.9532508168276L232.33465478515623,152.98865231774187L232.76688037109375,152.94551249952278L233.19910595703126,152.99519050455785L233.63133154296875,153.03210090122639L234.06355712890627,152.92172013504518L234.49578271484373,152.958110949297L234.92800830078124,152.9496858643885L235.36023388671873,152.96037434771034L235.79245947265625,152.96276392301544L236.22468505859376,153.02319945818556L236.65691064453125,152.96818963662608L237.08913623046877,152.9608965213646L237.52136181640623,153.04233426842387L237.95358740234374,153.00932610746204L238.38581298828126,153.0549698556422L238.81803857421875,152.90882142811768L239.25026416015626,152.891827014862L239.68248974609375,152.7548201559654L240.11471533203127,152.83832180939143L240.54694091796873,152.989939334345L240.97916650390624,152.93261741957195L241.41139208984376,152.93895078486878L241.84361767578125,152.91990921489403L242.27584326171876,152.99238569761516L242.70806884765625,152.9082619483781L243.14029443359374,152.89205918195918L243.57252001953125,152.90314955075428L244.00474560546874,152.9529668138018L244.43697119140626,153.05477007869425L244.86919677734375,153.08347929473842L245.30142236328126,152.98712170366124L245.73364794921875,152.91792684014843L246.16587353515624,152.90301575908782L246.59809912109375,152.93584587931468L247.03032470703124,152.93284874385498L247.46255029296876,152.9015151481384L247.89477587890624,152.8553880596491L248.32700146484376,152.8458892309268L248.75922705078125,152.91057493380305L249.19145263671874,152.89574054802415L249.62367822265625,152.91367442533348L250.05590380859374,152.91717501774414L250.48812939453126,152.88590934571616L250.92035498046874,152.97505425004357L251.35258056640626,153.05320318811056L251.78480615234375,153.0656738950188L252.21703173828124,152.96215162386744L252.64925732421875,152.92979829108864L253.08148291015624,152.9503429177174L253.51370849609376,153.02241315023713L253.94593408203127,152.9581452892817L254.37815966796876,152.978799736893L254.81038525390625,152.98986600392806L255.24261083984373,153.01540401878205L255.67483642578125,152.9996374949947" style="fill: none;" fill="none"></path></g><g><path stroke="rgb(255, 112, 67)" stroke-width="2px" d="M52.376359375,-5.708168405422361L53.63450439453125,8.7011537548328L54.892649414062504,19.733238975830723L56.15079443359375,26.884534488380147L57.408939453125,33.0925105011436L58.66708447265625,39.08063978219315L59.9252294921875,45.28128174761805L61.183374511718746,49.86405975174872L62.441519531249995,52.09734468899465L63.69966455078124,54.37006999961892L64.9578095703125,57.93981969246528L66.21595458984375,61.550768759858L67.47409960937499,62.415586795817624L68.73224462890624,64.56466747079124L69.9903896484375,67.33189726480829L71.24853466796876,67.2359571471844L72.50667968750001,69.60535426186902L73.76482470703125,70.62585935636515L75.02296972656251,72.11511400208023L76.28111474609375,73.7060675365487L77.539259765625,74.79137550448033L78.79740478515625,75.20480497223188L80.0555498046875,74.78524247590558L81.31369482421874,74.68175811123483L82.57183984375,76.24430127343942L83.82998486328124,78.25847380788997L85.0881298828125,78.860093633609L86.34627490234375,80.03860573365L87.60441992187499,80.94692934535568L88.86256494140625,81.2637370836248L90.1207099609375,81.21790424176635L91.37885498046876,81.19584623806685L92.637,81.63292225024554L93.89514501953126,82.9719896258503L95.1532900390625,83.66678803335111L96.41143505859375,85.08721261246446L97.669580078125,85.18408155574515L98.92772509765625,84.67655504544894L100.1858701171875,84.76554019451348L101.44401513671875,87.13484049082174L102.70216015625,86.34532382154639L103.96030517578124,87.6780075983063L105.2184501953125,87.2782238290223L106.47659521484374,86.87619339737364L107.734740234375,86.59935193367639L108.99288525390624,87.58629273359684L110.25103027343751,88.42673510423131L111.50917529296876,89.63786466902991L112.7673203125,87.43531610480841L114.02546533203126,88.32461162276206L115.2836103515625,88.7621626321503L116.54175537109376,90.27677830362488L117.799900390625,89.10886236133676L119.05804541015625,89.39867969335617L120.3161904296875,91.35133758295476L121.57433544921875,91.03427988474905L122.83248046874999,91.68786346546017L124.09062548828125,90.33003080386639L125.34877050781249,90.22616215764712L126.60691552734374,90.44717658411999L127.865060546875,91.54664834768498L129.12320556640626,92.61288494843797L130.3813505859375,91.66570524083707L131.63949560546877,92.10833429638822L132.897640625,92.26115942325758L134.15578564453125,93.26432999090294L135.4139306640625,93.31924111435379L136.67207568359373,91.71703774922827L137.930220703125,91.15438418623053L139.18836572265624,92.31569910190251L140.4465107421875,93.39439252222624L141.70465576171875,91.00007306578784L142.96280078125,91.94164205934422L144.22094580078127,91.68217729655395L145.4790908203125,93.77114857630426L146.73723583984375,91.77738856432732L147.995380859375,93.98570276712117L149.25352587890626,92.3495469487592L150.5116708984375,94.40672403078581L151.76981591796874,93.89457328737561L153.02796093749998,94.54964108956328L154.28610595703125,95.1105980330257L155.5442509765625,95.46614324888876L156.80239599609376,94.54329840565497L158.06054101562498,93.52811032190785L159.31868603515625,94.10861374649323L160.57683105468752,96.09825026341032L161.83497607421876,96.12411729423852L163.09312109375,95.46012957768828L164.35126611328124,95.08866693423504L165.6094111328125,93.46372094778009L166.86755615234375,93.88049328462952L168.12570117187502,94.58041385016843L169.38384619140623,93.92700693846943L170.6419912109375,94.74299518490555L171.90013623046875,95.25107810154392L173.15828125000002,108.98013681444428L174.41642626953123,120.67335733457148L175.6745712890625,128.34837168385826L176.93271630859374,133.69315048235802L178.190861328125,137.44111151622621L179.44900634765622,140.0999105264359L180.7071513671875,141.6194956338175L181.96529638671876,143.10097163055943L183.22344140625,144.05442969402438L184.48158642578127,144.77074812710742L185.7397314453125,145.28776729738988L186.99787646484376,145.52050049207375L188.256021484375,146.04209710241417L189.51416650390627,146.31749118734038L190.77231152343748,146.6537772570171L192.03045654296875,146.96566264475098L193.2886015625,147.17550227251476" style="fill: none;" fill="none"></path></g></g></g></g><g opacity="0.2"><g><g><g><path stroke="rgb(0, 119, 187)" stroke-width="2px" d="M174.84865185546874,139.44838206768037L175.28087744140626,141.75851777493955L175.71310302734375,142.5144532352686L176.14532861328127,143.35416246503593L176.57755419921875,143.80657906383277L177.00977978515624,144.8101776123047L177.44200537109373,145.15415053367616L177.87423095703124,145.3929489657283L178.30645654296876,145.7655111283064L178.73868212890625,146.17344883382322L179.17090771484376,146.02931706905366L179.60313330078125,146.60338861048223L180.03535888671874,147.05983136147262L180.46758447265626,147.56415143162013L180.89981005859374,147.72257583886386L181.33203564453126,147.98437595665456L181.76426123046875,147.99659156352283L182.19648681640626,148.034721980989L182.62871240234375,148.3535344183445L183.06093798828124,148.37971166074277L183.49316357421876,149.01401327848436L183.92538916015624,149.07258897945286L184.35761474609376,149.1609480522573L184.78984033203125,149.19280911907555L185.22206591796876,149.63184631168843L185.65429150390625,149.61218568608166L186.08651708984374,149.7558730311692L186.51874267578125,149.7785193130374L186.95096826171874,149.73546862900258L187.38319384765626,149.96373418271543L187.81541943359375,149.87367391884328L188.24764501953126,150.11326624006034L188.67987060546875,150.0287124283612L189.11209619140624,150.38680523559452L189.54432177734375,150.14187658131124L189.97654736328124,150.34688263311983L190.40877294921876,151.23466237932445L190.84099853515627,151.56338260620834L191.27322412109373,151.70873685479165L191.70544970703125,152.0136061191559L192.13767529296874,151.7096645973623L192.56990087890625,151.86194295734168L193.00212646484374,152.09522306844593L193.43435205078126,151.9848573088646L193.86657763671877,152.0080225199461L194.29880322265623,151.9656312122941L194.73102880859375,151.95089217200876L195.16325439453124,152.070115993917L195.59547998046875,152.3267327539623L196.02770556640627,152.27514248639346L196.45993115234376,152.50675767213107L196.89215673828127,152.20558025613428L197.32438232421873,152.3901120118797L197.75660791015625,152.52828565165402L198.18883349609374,152.3537988357246L198.62105908203125,152.52370826080443L199.05328466796877,152.38617685362698L199.48551025390626,152.58268288448454L199.91773583984374,152.60622394010426L200.34996142578123,152.81078557223083L200.78218701171875,152.7041248485446L201.21441259765623,152.57963788434864L201.64663818359375,152.66649291962386L202.07886376953127,152.61481033936144L202.51108935546876,152.61788171455265L202.94331494140624,152.64366530925037L203.37554052734373,152.64703670069576L203.80776611328125,152.84484434053303L204.23999169921876,152.66923065036536L204.67221728515625,152.92978322803975L205.10444287109377,152.86248068064452L205.53666845703125,152.90331124439837L205.96889404296874,153.0954983599484L206.40111962890623,152.71689762845637L206.83334521484375,152.8283961966634L207.26557080078126,152.94150891825558L207.69779638671875,152.826130579412L208.13002197265627,152.8462052933872L208.56224755859373,153.13251904696227L208.99447314453124,152.6828487507999L209.42669873046876,152.87738984003664L209.85892431640625,152.97538174241782L210.29114990234376,152.70355580672623L210.72337548828125,152.7758979678154L211.15560107421877,152.8949279330671L211.58782666015622,152.93242139294745L212.02005224609374,153.03656066134573L212.45227783203126,152.85484905838968L212.88450341796874,153.04958861991764L213.31672900390626,152.8648471824825L213.74895458984375,152.7941607154906L214.18118017578126,152.86653914228083L214.61340576171875,152.8513345822692L215.04563134765624,152.86676464900376L215.47785693359376,152.88268924802543L215.91008251953124,153.04706914275886L216.34230810546876,152.8310416147113L216.77453369140625,153.01387481689454L217.20675927734374,152.91306539922954L217.63898486328125,152.83155724704267L218.07121044921874,152.9285910755396L218.50343603515626,152.90939662903548L218.93566162109374,152.97732756212355L219.36788720703126,152.8841299854219L219.80011279296878,152.86668816134335L220.23233837890623,153.0012932561338L220.66456396484375,152.87703641429545L221.09678955078124,152.84671433195473L221.52901513671875,152.89496353939177L221.96124072265624,152.9898629665375L222.39346630859376,152.94271162077786L222.82569189453127,152.8756985396147L223.25791748046873,152.94355562254788L223.69014306640625,153.04268890544773L224.12236865234374,153.08511384129525L224.55459423828125,152.8548596084118L224.98681982421877,152.98429782986642L225.41904541015626,152.77132057696582L225.85127099609375,152.9718428693712L226.28349658203123,152.90513969510795L226.71572216796875,152.76222711727024L227.14794775390624,152.91667482554914L227.58017333984375,152.83456334397198L228.01239892578127,152.91676581948997L228.44462451171876,153.27315282002093L228.87685009765624,152.9627916097641L229.30907568359373,152.77249031066896L229.74130126953125,153.1289511613548L230.17352685546877,153.19655636250974L230.60575244140625,152.91805621907116L231.03797802734377,153.11538383290173L231.47020361328126,152.61767071411015L231.90242919921874,153.063190895319L232.33465478515623,153.04175456911327L232.76688037109375,152.88080277219416L233.19910595703126,153.06970751211048L233.63133154296875,153.08746649622918L234.06355712890627,152.75614898577334L234.49578271484373,153.0126971706748L234.92800830078124,152.93704823702575L235.36023388671873,152.97640707269312L235.79245947265625,152.96634828597308L236.22468505859376,153.1138527609408L236.65691064453125,152.88567490428687L237.08913623046877,152.94995684847237L237.52136181640623,153.16449088901282L237.95358740234374,152.95981386601926L238.38581298828126,153.12343547791244L238.81803857421875,152.6895987868309L239.25026416015626,152.86633539497853L239.68248974609375,152.54930986762048L240.11471533203127,152.96357428953053L240.54694091796873,153.2173656217754L240.97916650390624,152.8466345474124L241.41139208984376,152.948450832814L241.84361767578125,152.89134685993196L242.27584326171876,153.1011004216969L242.70806884765625,152.7820763245225L243.14029443359374,152.86775503233076L243.57252001953125,152.91978510394694L244.00474560546874,153.02769270837308L244.43697119140626,153.20747497603298L244.86919677734375,153.1265431188047L245.30142236328126,152.84258531704546L245.73364794921875,152.8141345448792L246.16587353515624,152.88064913749696L246.59809912109375,152.98509105965496L247.03032470703124,152.9283530406654L247.46255029296876,152.85451475456358L247.89477587890624,152.78619742691518L248.32700146484376,152.8316409878433L248.75922705078125,153.00760348811747L249.19145263671874,152.87348896935583L249.62367822265625,152.9405752412975L250.05590380859374,152.92242590636016L250.48812939453126,152.83901083767415L250.92035498046874,153.10877160653473L251.35258056640626,153.17042659521104L251.78480615234375,153.08437995538117L252.21703173828124,152.80686821714045L252.64925732421875,152.88126829192043L253.08148291015624,152.98115985766054L253.51370849609376,153.13051849901677L253.94593408203127,152.86174349784852L254.37815966796876,153.00978140830995L254.81038525390625,153.0064654044807L255.24261083984373,153.05371104106308L255.67483642578125,152.97598770931364" style="fill: none;" fill="none"></path></g><g><path stroke="rgb(255, 112, 67)" stroke-width="2px" d="M49.860069335937496,-7.868223381042496L51.11821435546875,7.852459537982945L52.376359375,18.13070254325867L53.63450439453125,30.304974424839024L54.892649414062504,36.27669839859009L56.15079443359375,37.609662044048314L57.408939453125,42.4035287976265L58.66708447265625,48.0622863650322L59.9252294921875,54.58190463781357L61.183374511718746,56.73807595968247L62.441519531249995,55.44722800254822L63.69966455078124,57.77913104295731L64.9578095703125,63.294418859481816L66.21595458984375,66.9671769618988L67.47409960937499,63.71281163692475L68.73224462890624,67.78828518390655L69.9903896484375,71.48273940682411L71.24853466796876,67.09204702377319L72.50667968750001,73.1594491481781L73.76482470703125,72.15661679506302L75.02296972656251,74.34899579286575L76.28111474609375,76.09249772429466L77.539259765625,76.41933740973472L78.79740478515625,75.82494916319847L80.0555498046875,74.1558987379074L81.31369482421874,74.52653156518936L82.57183984375,78.58811600804329L83.82998486328124,81.2797326028347L85.0881298828125,79.76252337098121L86.34627490234375,81.8063738822937L87.60441992187499,82.30941476225853L88.86256494140625,81.73894869089126L90.1207099609375,81.14915497899055L91.37885498046876,81.16275923252105L92.637,82.28853626847267L93.89514501953126,84.98059068918228L95.1532900390625,84.70898564457893L96.41143505859375,87.2178494811058L97.669580078125,85.32938497066498L98.92772509765625,83.91526528000831L100.1858701171875,84.89901791810989L101.44401513671875,90.68879093527794L102.70216015625,85.16104881763458L103.96030517578124,89.6770332634449L105.2184501953125,86.67854817509651L106.47659521484374,86.27314774990082L107.734740234375,86.18408973813057L108.99288525390624,89.0667039334774L110.25103027343751,89.68739866018295L111.50917529296876,91.45455901622772L112.7673203125,84.13149325847625L114.02546533203126,89.65855489969253L115.2836103515625,89.4184891462326L116.54175537109376,92.54870181083679L117.799900390625,87.35698844790458L119.05804541015625,89.83340569138527L120.3161904296875,94.28032441735267L121.57433544921875,90.55869333744049L122.83248046874999,92.66823883652687L124.09062548828125,88.29328181147575L125.34877050781249,90.07035918831825L126.60691552734374,90.77869822382927L127.865060546875,93.19585599303245L129.12320556640626,94.21223984956741L130.3813505859375,90.24493567943573L131.63949560546877,92.77227787971496L132.897640625,92.49039711356163L134.15578564453125,94.76908584237098L135.4139306640625,93.40160779953003L136.67207568359373,89.31373270153999L137.930220703125,90.31040384173393L139.18836572265624,94.05767147541046L140.4465107421875,95.01243265271187L141.70465576171875,87.40859388113022L142.96280078125,93.3539955496788L144.22094580078127,91.29298015236854L145.4790908203125,96.90460549592972L146.73723583984375,88.78674854636192L147.995380859375,97.29817407131195L149.25352587890626,89.8953132212162L150.5116708984375,97.49248965382576L151.76981591796874,93.12634717226028L153.02796093749998,95.53224279284477L154.28610595703125,95.9520334482193L155.5442509765625,95.99946107268333L156.80239599609376,93.15903114080429L158.06054101562498,92.00532819628715L159.31868603515625,94.97936888337135L160.57683105468752,99.08270503878593L161.83497607421876,96.1629178404808L163.09312109375,94.46414800286293L164.35126611328124,94.53147296905517L165.6094111328125,91.02630196809768L166.86755615234375,94.50565178990364L168.12570117187502,95.63029469847679L169.38384619140623,92.94689657092094L170.6419912109375,95.9669775545597L171.90013623046875,96.01320247650146L173.15828125000002,129.5737248837948L174.41642626953123,138.21318811476232L175.6745712890625,139.86089320778848L176.93271630859374,141.7103186801076L178.190861328125,143.06305306702853L179.44900634765622,144.08810904175044L180.7071513671875,143.89887329488994L181.96529638671876,145.32318562567235L183.22344140625,145.48461678922177L184.48158642578127,145.84522577673198L185.7397314453125,146.06329605281354L186.99787646484376,145.8696002840996L188.256021484375,146.8244920179248L189.51416650390627,146.7305823147297L190.77231152343748,147.15820636153222L192.03045654296875,147.43349072635175L193.2886015625,147.49026171416045" style="fill: none;" fill="none"></path></g></g></g></g></g></g><g transform="translate(61, 177)" clip-path="url(#clip_1)"><clipPath id="clip_1"><rect width="268" height="23"></rect></clipPath><g><g><line x1="0" y1="0" x2="0" y2="5" style="visibility: inherit;" fill="rgb(0, 0, 0)" stroke="rgb(204, 204, 204)" stroke-width="1px"></line><line x1="33.505859375" y1="0" x2="33.505859375" y2="5" style="visibility: inherit;" fill="rgb(0, 0, 0)" stroke="rgb(204, 204, 204)" stroke-width="1px"></line><line x1="67.01171875" y1="0" x2="67.01171875" y2="5" style="visibility: inherit;" fill="rgb(0, 0, 0)" stroke="rgb(204, 204, 204)" stroke-width="1px"></line><line x1="100.517578125" y1="0" x2="100.517578125" y2="5" style="visibility: inherit;" fill="rgb(0, 0, 0)" stroke="rgb(204, 204, 204)" stroke-width="1px"></line><line x1="134.0234375" y1="0" x2="134.0234375" y2="5" style="visibility: inherit;" fill="rgb(0, 0, 0)" stroke="rgb(204, 204, 204)" stroke-width="1px"></line><line x1="167.529296875" y1="0" x2="167.529296875" y2="5" style="visibility: inherit;" fill="rgb(0, 0, 0)" stroke="rgb(204, 204, 204)" stroke-width="1px"></line><line x1="201.03515625" y1="0" x2="201.03515625" y2="5" style="visibility: inherit;" fill="rgb(0, 0, 0)" stroke="rgb(204, 204, 204)" stroke-width="1px"></line><line x1="234.541015625" y1="0" x2="234.541015625" y2="5" style="visibility: inherit;" fill="rgb(0, 0, 0)" stroke="rgb(204, 204, 204)" stroke-width="1px"></line><line x1="268.046875" y1="0" x2="268.046875" y2="5" style="visibility: inherit;" fill="rgb(0, 0, 0)" stroke="rgb(204, 204, 204)" stroke-width="1px"></line></g><g transform="translate(0, 8)"><text x="0" y="0" dx="0em" dy="0.95em" style="text-anchor: middle; visibility: hidden; font-family: Roboto, sans-serif; font-size: 12px; font-weight: 200;" fill="rgb(33, 33, 33)" stroke="none" stroke-width="1px">-20k</text><text x="33.505859375" y="0" dx="0em" dy="0.95em" style="text-anchor: middle; visibility: inherit; font-family: Roboto, sans-serif; font-size: 12px; font-weight: 200;" fill="rgb(33, 33, 33)" stroke="none" stroke-width="1px">0</text><text x="67.01171875" y="0" dx="0em" dy="0.95em" style="text-anchor: middle; visibility: inherit; font-family: Roboto, sans-serif; font-size: 12px; font-weight: 200;" fill="rgb(33, 33, 33)" stroke="none" stroke-width="1px">20k</text><text x="100.517578125" y="0" dx="0em" dy="0.95em" style="text-anchor: middle; visibility: inherit; font-family: Roboto, sans-serif; font-size: 12px; font-weight: 200;" fill="rgb(33, 33, 33)" stroke="none" stroke-width="1px">40k</text><text x="134.0234375" y="0" dx="0em" dy="0.95em" style="text-anchor: middle; visibility: inherit; font-family: Roboto, sans-serif; font-size: 12px; font-weight: 200;" fill="rgb(33, 33, 33)" stroke="none" stroke-width="1px">60k</text><text x="167.529296875" y="0" dx="0em" dy="0.95em" style="text-anchor: middle; visibility: inherit; font-family: Roboto, sans-serif; font-size: 12px; font-weight: 200;" fill="rgb(33, 33, 33)" stroke="none" stroke-width="1px">80k</text><text x="201.03515625" y="0" dx="0em" dy="0.95em" style="text-anchor: middle; visibility: inherit; font-family: Roboto, sans-serif; font-size: 12px; font-weight: 200;" fill="rgb(33, 33, 33)" stroke="none" stroke-width="1px">100k</text><text x="234.541015625" y="0" dx="0em" dy="0.95em" style="text-anchor: middle; visibility: inherit; font-family: Roboto, sans-serif; font-size: 12px; font-weight: 200;" fill="rgb(33, 33, 33)" stroke="none" stroke-width="1px">120k</text><text x="268.046875" y="0" dx="0em" dy="0.95em" style="text-anchor: middle; visibility: hidden; font-family: Roboto, sans-serif; font-size: 12px; font-weight: 200;" fill="rgb(33, 33, 33)" stroke="none" stroke-width="1px">140k</text></g><line x1="0" y1="0" x2="268.046875" y2="0" fill="rgb(0, 0, 0)" stroke="rgb(204, 204, 204)" stroke-width="1px"></line></g></g></g></g></svg>