<svg class="main-svg" xmlns="http://www.w3.org/2000/svg" xmlns:xlink="http://www.w3.org/1999/xlink" width="700" height="450" style="" viewBox="0 0 700 450"><rect x="0" y="0" width="700" height="450" style="fill: rgb(255, 255, 255); fill-opacity: 1;"/><defs id="defs-4b6c8c"><g class="clips"><clipPath id="clip4b6c8cxyplot" class="plotclip"><rect width="383" height="270"/></clipPath><clipPath class="axesclip" id="clip4b6c8cx"><rect x="80" y="0" width="383" height="450"/></clipPath><clipPath class="axesclip" id="clip4b6c8cy"><rect x="0" y="100" width="700" height="270"/></clipPath><clipPath class="axesclip" id="clip4b6c8cxy"><rect x="80" y="100" width="383" height="270"/></clipPath></g><g class="gradients"/></defs><g class="bglayer"/><g class="layer-below"><g class="imagelayer"/><g class="shapelayer"/></g><g class="cartesianlayer"><g class="subplot xy"><g class="layer-subplot"><g class="shapelayer"/><g class="imagelayer"/></g><g class="gridlayer"><g class="x"><path class="xgrid crisp" transform="translate(157.37,0)" d="M0,100v270" style="stroke: rgb(238, 238, 238); stroke-opacity: 1; stroke-width: 1px;"/><path class="xgrid crisp" transform="translate(234.75,0)" d="M0,100v270" style="stroke: rgb(238, 238, 238); stroke-opacity: 1; stroke-width: 1px;"/><path class="xgrid crisp" transform="translate(312.12,0)" d="M0,100v270" style="stroke: rgb(238, 238, 238); stroke-opacity: 1; stroke-width: 1px;"/><path class="xgrid crisp" transform="translate(389.49,0)" d="M0,100v270" style="stroke: rgb(238, 238, 238); stroke-opacity: 1; stroke-width: 1px;"/></g><g class="y"><path class="ygrid crisp" transform="translate(0,363.66)" d="M80,0h383" style="stroke: rgb(238, 238, 238); stroke-opacity: 1; stroke-width: 1px;"/><path class="ygrid crisp" transform="translate(0,277.78)" d="M80,0h383" style="stroke: rgb(238, 238, 238); stroke-opacity: 1; stroke-width: 1px;"/><path class="ygrid crisp" transform="translate(0,191.91)" d="M80,0h383" style="stroke: rgb(238, 238, 238); stroke-opacity: 1; stroke-width: 1px;"/><path class="ygrid crisp" transform="translate(0,106.03)" d="M80,0h383" style="stroke: rgb(238, 238, 238); stroke-opacity: 1; stroke-width: 1px;"/></g></g><g class="zerolinelayer"/><path class="xlines-below"/><path class="ylines-below"/><g class="overlines-below"/><g class="xaxislayer-below"/><g class="yaxislayer-below"/><g class="overaxes-below"/><g class="plot" transform="translate(80,100)" clip-path="url('#clip4b6c8cxyplot')"><g class="scatterlayer mlayer"><g class="trace scatter trace65ee4b" style="stroke-miterlimit: 2; opacity: 1;"><g class="fills"/><g class="errorbars"/><g class="lines"><path class="js-line" d="M0,13.5L3.87,111.7L7.74,158.31L11.61,194.1L15.47,210.9L19.34,222.18L23.21,229.83L27.08,239.07L30.95,239.38L38.69,244.13L42.56,245.11L46.42,246.56L50.29,246.89L54.16,249.29L58.03,248.76L61.9,248.31L65.77,249.68L69.64,249.71L73.51,252.46L77.37,249.12L81.24,250.64L85.11,253.34L88.98,249.61L92.85,247.88L96.72,251.27L108.32,252.98L112.19,249.55L116.06,252.98L119.93,252.85L123.8,251.85L127.67,252.73L131.54,253.56L135.4,251.86L139.27,252.57L143.14,254.09L147.01,250.91L150.88,250.37L154.75,255.3L158.62,252.71L162.48,255.11L166.35,252.46L170.22,252.92L174.09,254.99L177.96,249.93L181.83,253.23L189.57,253.56L193.43,252.99L197.3,251.61L201.17,251.28L205.04,256.08L208.91,255.31L212.78,252.81L216.65,256.12L224.38,251.6L228.25,252.53L232.12,255.18L235.99,253.4L239.86,252.2L243.73,252.8L247.6,254.52L251.46,253.53L255.33,252.99L259.2,255.28L263.07,250.24L266.94,255.73L270.81,256.5L274.68,252.58L278.55,252.86L282.41,255.9L286.28,254.29L290.15,251.56L294.02,255.32L297.89,252.15L301.76,253.53L305.63,253.03L309.49,252.83L313.36,254.12L317.23,251.57L321.1,254.74L324.97,251.68L328.84,253.9L332.71,254.51L336.58,255.95L340.44,252.48L344.31,253.28L348.18,255.43L352.05,252.04L355.92,252.17L359.79,253.48L363.66,253.4L367.53,254.9L371.39,254.27L375.26,254.6L379.13,253.19L383,249.33" style="vector-effect: non-scaling-stroke; fill: none; stroke: rgb(156, 39, 176); stroke-opacity: 1; stroke-width: 2px; opacity: 1;"/></g><g class="points"/><g class="text"/></g><g class="trace scatter tracee22230" style="stroke-miterlimit: 2; opacity: 1;"><g class="fills"/><g class="errorbars"/><g class="lines"><path class="js-line" d="M0,68.98L7.74,148.57L11.61,167.34L15.47,179.21L19.34,178.35L23.21,181.2L27.08,179.15L30.95,183.57L34.82,189.31L38.69,191.67L42.56,182.54L46.42,190.99L50.29,191.5L54.16,193.7L58.03,182L65.77,184.7L69.64,190.83L73.51,179.36L77.37,188.56L81.24,191.02L85.11,184.87L88.98,179.35L92.85,189.63L96.72,184.75L100.59,182.01L104.45,191.68L108.32,183.8L112.19,189.54L116.06,190.22L119.93,181.85L123.8,182.39L127.67,183.26L131.54,182.95L135.4,186.68L139.27,184.36L143.14,186.23L147.01,183.56L150.88,188.65L154.75,182.22L158.62,190.69L162.48,188.83L166.35,187L170.22,180.31L174.09,177.69L177.96,179.88L181.83,189.9L185.7,172.22L189.57,188.27L193.43,182.59L197.3,184.21L201.17,168.83L205.04,184.95L208.91,185.33L212.78,180.67L216.65,177.91L220.52,188.44L224.38,183.6L228.25,174.12L232.12,182.82L235.99,183.54L239.86,177.19L243.73,184.31L247.6,187.09L251.46,181.59L255.33,179.17L259.2,182.59L263.07,187.46L266.94,186.57L270.81,184.16L274.68,179.02L278.55,185.49L282.41,174.86L286.28,184.81L290.15,174.72L294.02,175.44L297.89,176.37L301.76,180.55L305.63,176.56L309.49,179.63L313.36,173.56L317.23,177.73L321.1,184.02L324.97,185.44L328.84,177.84L332.71,183.18L336.58,176.98L340.44,185.15L344.31,178.41L348.18,176.64L352.05,187.55L355.92,180.49L359.79,177.94L363.66,182.46L367.53,186.8L371.39,185.78L379.13,184.98L383,188.21" style="vector-effect: non-scaling-stroke; fill: none; stroke: rgb(33, 150, 243); stroke-opacity: 1; stroke-width: 2px; opacity: 1;"/></g><g class="points"/><g class="text"/></g><g class="trace scatter trace32fa82" style="stroke-miterlimit: 2; opacity: 1;"><g class="fills"/><g class="errorbars"/><g class="lines"><path class="js-line" d="M0,68.14L7.74,146.72L11.61,169.06L15.47,179.38L19.34,181.43L23.21,183.97L27.08,181.23L34.82,192.29L38.69,194.08L42.56,185.09L46.42,194.87L54.16,196.05L58.03,185.64L61.9,189.85L65.77,189.54L69.64,192.74L73.51,182.99L77.37,191.9L81.24,193.84L85.11,188.02L88.98,179.64L92.85,193.11L96.72,187.69L100.59,187.27L104.45,193.68L108.32,188.45L112.19,193.01L116.06,194.11L119.93,185.12L123.8,186.55L127.67,185.57L131.54,186.12L135.4,190.44L143.14,191.22L147.01,187.13L150.88,194.06L154.75,185.62L158.62,196.23L162.48,193.73L166.35,190.91L170.22,184.71L174.09,184.49L177.96,185.08L181.83,193.56L185.7,178.12L189.57,194.58L193.43,188.93L197.3,187.78L201.17,171.8L205.04,188.21L208.91,188.35L212.78,183.96L216.65,182.82L220.52,189.44L224.38,188.72L228.25,180.84L232.12,189.89L235.99,187.48L239.86,183.55L243.73,187.74L247.6,190.78L251.46,185.18L255.33,183.02L259.2,187.97L263.07,190.05L266.94,189.78L270.81,187.57L274.68,184.21L278.55,191.22L282.41,179.6L286.28,188.83L290.15,179.18L294.02,182.2L297.89,183.06L301.76,186.67L305.63,181.26L309.49,184.94L313.36,180.87L317.23,183.07L321.1,187.54L324.97,188.54L328.84,182.78L332.71,187.09L336.58,179.34L340.44,189.8L344.31,182.17L348.18,182.4L352.05,189.46L355.92,185.51L359.79,181.33L363.66,187.92L367.53,192.13L371.39,191.99L375.26,191.67L379.13,188.72L383,192.98" style="vector-effect: non-scaling-stroke; fill: none; stroke: rgb(0, 150, 136); stroke-opacity: 1; stroke-width: 2px; opacity: 1;"/></g><g class="points"/><g class="text"/></g><g class="trace scatter tracecc78d3" style="stroke-miterlimit: 2; opacity: 1;"><g class="fills"/><g class="errorbars"/><g class="lines"><path class="js-line" d="M0,67.9L7.74,151.06L11.61,178.29L15.47,187.65L19.34,192.19L23.21,193.1L27.08,191.78L30.95,198.75L34.82,203.5L38.69,205.44L42.56,194.8L46.42,208L50.29,206.85L54.16,207.34L58.03,199.03L61.9,203.33L65.77,202.98L69.64,203.53L73.51,196.65L77.37,204.96L81.24,205.55L85.11,201.84L88.98,187.23L92.85,205.38L96.72,195.64L100.59,201.64L104.45,200.6L108.32,202.29L112.19,202.51L116.06,205.86L119.93,198.65L123.8,199.04L127.67,198.38L131.54,197.87L135.4,199.92L139.27,203.79L143.14,203.99L147.01,198.11L150.88,206.14L154.75,197.67L158.62,208.7L162.48,204.26L166.35,202.71L170.22,196.95L174.09,196.39L177.96,196.58L181.83,202.93L185.7,189.87L189.57,206.79L193.43,200.6L197.3,200.43L201.17,180.06L205.04,199.78L208.91,197.52L212.78,193.93L216.65,194.46L220.52,197.9L224.38,199.93L228.25,193.18L232.12,201.08L235.99,198.53L239.86,196.67L243.73,198.37L247.6,201.76L251.46,196.77L255.33,192.98L259.2,199.32L263.07,199.29L266.94,201.12L274.68,196.28L278.55,204.09L282.41,193.4L286.28,200.69L290.15,189.93L294.02,194.79L297.89,195.83L301.76,199.05L305.63,193.64L309.49,197.3L313.36,196.91L317.23,195.11L324.97,199.63L328.84,197.02L332.71,197.25L336.58,189.44L340.44,201.13L344.31,193.25L352.05,200.37L355.92,197.73L359.79,192.67L363.66,202.03L367.53,205.55L371.39,203.82L375.26,202.8L379.13,198.78L383,205.44" style="vector-effect: non-scaling-stroke; fill: none; stroke: rgb(205, 220, 57); stroke-opacity: 1; stroke-width: 2px; opacity: 1;"/></g><g class="points"/><g class="text"/></g><g class="trace scatter trace9d68d4" style="stroke-miterlimit: 2; opacity: 1;"><g class="fills"/><g class="errorbars"/><g class="lines"><path class="js-line" d="M0,67.54L7.74,140.54L11.61,161.56L15.47,171.28L19.34,173.74L23.21,177.59L27.08,172.76L34.82,184.05L38.69,185.13L42.56,177.93L46.42,185.61L50.29,188.3L54.16,187.12L58.03,175.89L61.9,183.02L65.77,180.94L69.64,183.85L73.51,172.95L77.37,182.18L81.24,184.96L85.11,177.34L88.98,172.36L92.85,184.33L96.72,182.68L100.59,178.15L104.45,188.75L108.32,179.27L112.19,186.97L116.06,186.24L119.93,174.87L123.8,178.21L127.67,175.07L131.54,177.54L135.4,184.7L139.27,184.34L143.14,183.44L147.01,179.71L150.88,187.38L154.75,176.98L158.62,189.3L162.48,188.1L170.22,176.87L174.09,179.4L177.96,178.79L181.83,187.85L185.7,172.28L189.57,188.66L197.3,178.69L201.17,166.52L205.04,179.91L208.91,182.2L212.78,177.28L216.65,176.08L220.52,181.98L224.38,182.63L228.25,175.21L232.12,185.76L235.99,180.38L239.86,176.78L247.6,183.47L251.46,177.18L255.33,176.9L259.2,182L263.07,183.39L266.94,181.66L274.68,177.33L278.55,184.08L282.41,170.54L286.28,180.99L290.15,172.89L294.02,176.36L297.89,176.99L301.76,180.42L305.63,173.59L309.49,177.88L313.36,172.15L317.23,176.36L321.1,181.28L324.97,180.55L328.84,173.49L332.71,180.85L336.58,171.59L340.44,183.12L344.31,174.84L348.18,174.2L352.05,180.47L355.92,178.32L359.79,173.38L363.66,179.29L367.53,184.05L371.39,186.38L375.26,186.78L379.13,182.42L383,185.28" style="vector-effect: non-scaling-stroke; fill: none; stroke: rgb(76, 175, 80); stroke-opacity: 1; stroke-width: 2px; opacity: 1;"/></g><g class="points"/><g class="text"/></g></g></g><g class="overplot"/><path class="xlines-above crisp" d="M79,370.5H463" style="fill: none; stroke-width: 1px; stroke: rgb(68, 68, 68); stroke-opacity: 1;"/><path class="ylines-above crisp" d="M79.5,100V370" style="fill: none; stroke-width: 1px; stroke: rgb(68, 68, 68); stroke-opacity: 1;"/><g class="overlines-above"/><g class="xaxislayer-above"><path class="xtick ticks crisp" d="M0,371v5" transform="translate(80,0)" style="stroke: rgb(68, 68, 68); stroke-opacity: 1; stroke-width: 1px;"/><path class="xtick ticks crisp" d="M0,371v5" transform="translate(157.37,0)" style="stroke: rgb(68, 68, 68); stroke-opacity: 1; stroke-width: 1px;"/><path class="xtick ticks crisp" d="M0,371v5" transform="translate(234.75,0)" style="stroke: rgb(68, 68, 68); stroke-opacity: 1; stroke-width: 1px;"/><path class="xtick ticks crisp" d="M0,371v5" transform="translate(312.12,0)" style="stroke: rgb(68, 68, 68); stroke-opacity: 1; stroke-width: 1px;"/><path class="xtick ticks crisp" d="M0,371v5" transform="translate(389.49,0)" style="stroke: rgb(68, 68, 68); stroke-opacity: 1; stroke-width: 1px;"/><g class="xtick"><text text-anchor="middle" x="0" y="390.4" transform="translate(80,0)" style="font-family: 'Open Sans', verdana, arial, sans-serif; font-size: 12px; fill: rgb(68, 68, 68); fill-opacity: 1; white-space: pre;">0</text></g><g class="xtick"><text text-anchor="middle" x="0" y="390.4" transform="translate(157.37,0)" style="font-family: 'Open Sans', verdana, arial, sans-serif; font-size: 12px; fill: rgb(68, 68, 68); fill-opacity: 1; white-space: pre;">20</text></g><g class="xtick"><text text-anchor="middle" x="0" y="390.4" transform="translate(234.75,0)" style="font-family: 'Open Sans', verdana, arial, sans-serif; font-size: 12px; fill: rgb(68, 68, 68); fill-opacity: 1; white-space: pre;">40</text></g><g class="xtick"><text text-anchor="middle" x="0" y="390.4" transform="translate(312.12,0)" style="font-family: 'Open Sans', verdana, arial, sans-serif; font-size: 12px; fill: rgb(68, 68, 68); fill-opacity: 1; white-space: pre;">60</text></g><g class="xtick"><text text-anchor="middle" x="0" y="390.4" transform="translate(389.49,0)" style="font-family: 'Open Sans', verdana, arial, sans-serif; font-size: 12px; fill: rgb(68, 68, 68); fill-opacity: 1; white-space: pre;">80</text></g></g><g class="yaxislayer-above"><path class="ytick ticks crisp" d="M79,0h-5" transform="translate(0,363.66)" style="stroke: rgb(68, 68, 68); stroke-opacity: 1; stroke-width: 1px;"/><path class="ytick ticks crisp" d="M79,0h-5" transform="translate(0,277.78)" style="stroke: rgb(68, 68, 68); stroke-opacity: 1; stroke-width: 1px;"/><path class="ytick ticks crisp" d="M79,0h-5" transform="translate(0,191.91)" style="stroke: rgb(68, 68, 68); stroke-opacity: 1; stroke-width: 1px;"/><path class="ytick ticks crisp" d="M79,0h-5" transform="translate(0,106.03)" style="stroke: rgb(68, 68, 68); stroke-opacity: 1; stroke-width: 1px;"/><g class="ytick"><text text-anchor="end" x="71.6" y="4.199999999999999" transform="translate(0,363.66)" style="font-family: 'Open Sans', verdana, arial, sans-serif; font-size: 12px; fill: rgb(68, 68, 68); fill-opacity: 1; white-space: pre;">2.5</text></g><g class="ytick"><text text-anchor="end" x="71.6" y="4.199999999999999" transform="translate(0,277.78)" style="font-family: 'Open Sans', verdana, arial, sans-serif; font-size: 12px; fill: rgb(68, 68, 68); fill-opacity: 1; white-space: pre;">3</text></g><g class="ytick"><text text-anchor="end" x="71.6" y="4.199999999999999" transform="translate(0,191.91)" style="font-family: 'Open Sans', verdana, arial, sans-serif; font-size: 12px; fill: rgb(68, 68, 68); fill-opacity: 1; white-space: pre;">3.5</text></g><g class="ytick"><text text-anchor="end" x="71.6" y="4.199999999999999" transform="translate(0,106.03)" style="font-family: 'Open Sans', verdana, arial, sans-serif; font-size: 12px; fill: rgb(68, 68, 68); fill-opacity: 1; white-space: pre;">4</text></g></g><g class="overaxes-above"/></g></g><g class="polarlayer"/><g class="ternarylayer"/><g class="geolayer"/><g class="funnelarealayer"/><g class="pielayer"/><g class="treemaplayer"/><g class="sunburstlayer"/><g class="glimages"/><defs id="topdefs-4b6c8c"><g class="clips"/><clipPath id="legend4b6c8c"><rect width="217" height="105" x="0" y="0"/></clipPath></defs><g class="layer-above"><g class="imagelayer"/><g class="shapelayer"/></g><g class="infolayer"><g class="legend" pointer-events="all" transform="translate(470.66,100)"><rect class="bg" shape-rendering="crispEdges" style="stroke: rgb(68, 68, 68); stroke-opacity: 1; fill: rgb(255, 255, 255); fill-opacity: 1; stroke-width: 0px;" width="217" height="105" x="0" y="0"/><g class="scrollbox" transform="" clip-path="url('#legend4b6c8c')"><g class="groups"><g class="traces" transform="translate(0,14.5)" style="opacity: 1;"><text class="legendtext" text-anchor="start" x="40" y="4.680000000000001" style="font-family: 'Open Sans', verdana, arial, sans-serif; font-size: 12px; fill: rgb(68, 68, 68); fill-opacity: 1; white-space: pre;">exp4/board/Loss_Training</text><g class="layers" style="opacity: 1;"><g class="legendfill"/><g class="legendlines"><path class="js-line" d="M5,0h30" style="fill: none; stroke: rgb(156, 39, 176); stroke-opacity: 1; stroke-width: 2px;"/></g><g class="legendsymbols"><g class="legendpoints"/></g></g><rect class="legendtoggle" x="0" y="-9.5" width="211.8125" height="19" style="fill: rgb(0, 0, 0); fill-opacity: 0;"/></g><g class="traces" transform="translate(0,33.5)" style="opacity: 1;"><text class="legendtext" text-anchor="start" x="40" y="4.680000000000001" style="font-family: 'Open Sans', verdana, arial, sans-serif; font-size: 12px; fill: rgb(68, 68, 68); fill-opacity: 1; white-space: pre;">exp4/board/Loss_2014</text><g class="layers" style="opacity: 1;"><g class="legendfill"/><g class="legendlines"><path class="js-line" d="M5,0h30" style="fill: none; stroke: rgb(33, 150, 243); stroke-opacity: 1; stroke-width: 2px;"/></g><g class="legendsymbols"><g class="legendpoints"/></g></g><rect class="legendtoggle" x="0" y="-9.5" width="211.8125" height="19" style="fill: rgb(0, 0, 0); fill-opacity: 0;"/></g><g class="traces" transform="translate(0,52.5)" style="opacity: 1;"><text class="legendtext" text-anchor="start" x="40" y="4.680000000000001" style="font-family: 'Open Sans', verdana, arial, sans-serif; font-size: 12px; fill: rgb(68, 68, 68); fill-opacity: 1; white-space: pre;">exp4/board/Loss_Validation</text><g class="layers" style="opacity: 1;"><g class="legendfill"/><g class="legendlines"><path class="js-line" d="M5,0h30" style="fill: none; stroke: rgb(0, 150, 136); stroke-opacity: 1; stroke-width: 2px;"/></g><g class="legendsymbols"><g class="legendpoints"/></g></g><rect class="legendtoggle" x="0" y="-9.5" width="211.8125" height="19" style="fill: rgb(0, 0, 0); fill-opacity: 0;"/></g><g class="traces" transform="translate(0,71.5)" style="opacity: 1;"><text class="legendtext" text-anchor="start" x="40" y="4.680000000000001" style="font-family: 'Open Sans', verdana, arial, sans-serif; font-size: 12px; fill: rgb(68, 68, 68); fill-opacity: 1; white-space: pre;">exp4/board/Loss_2019</text><g class="layers" style="opacity: 1;"><g class="legendfill"/><g class="legendlines"><path class="js-line" d="M5,0h30" style="fill: none; stroke: rgb(205, 220, 57); stroke-opacity: 1; stroke-width: 2px;"/></g><g class="legendsymbols"><g class="legendpoints"/></g></g><rect class="legendtoggle" x="0" y="-9.5" width="211.8125" height="19" style="fill: rgb(0, 0, 0); fill-opacity: 0;"/></g><g class="traces" transform="translate(0,90.5)" style="opacity: 1;"><text class="legendtext" text-anchor="start" x="40" y="4.680000000000001" style="font-family: 'Open Sans', verdana, arial, sans-serif; font-size: 12px; fill: rgb(68, 68, 68); fill-opacity: 1; white-space: pre;">exp4/board/Loss_2016</text><g class="layers" style="opacity: 1;"><g class="legendfill"/><g class="legendlines"><path class="js-line" d="M5,0h30" style="fill: none; stroke: rgb(76, 175, 80); stroke-opacity: 1; stroke-width: 2px;"/></g><g class="legendsymbols"><g class="legendpoints"/></g></g><rect class="legendtoggle" x="0" y="-9.5" width="211.8125" height="19" style="fill: rgb(0, 0, 0); fill-opacity: 0;"/></g></g></g><rect class="scrollbar" rx="20" ry="3" width="0" height="0" style="fill: rgb(128, 139, 164); fill-opacity: 1;" x="0" y="0"/></g><g class="g-gtitle"><text class="gtitle" x="350" y="50" text-anchor="middle" dy="0em" style="font-family: 'Open Sans', verdana, arial, sans-serif; font-size: 17px; fill: rgb(68, 68, 68); opacity: 1; font-weight: normal; white-space: pre;">Loss</text></g><g class="g-xtitle"/><g class="g-ytitle"/></g></svg>